%TF.GenerationSoftware,KiCad,Pcbnew,9.0.2*%
%TF.CreationDate,2025-07-09T11:25:24+10:00*%
%TF.ProjectId,kicad_board,6b696361-645f-4626-9f61-72642e6b6963,rev?*%
%TF.SameCoordinates,Original*%
%TF.FileFunction,Legend,Top*%
%TF.FilePolarity,Positive*%
%FSLAX46Y46*%
G04 Gerber Fmt 4.6, Leading zero omitted, Abs format (unit mm)*
G04 Created by KiCad (PCBNEW 9.0.2) date 2025-07-09 11:25:24*
%MOMM*%
%LPD*%
G01*
G04 APERTURE LIST*
%ADD10C,0.100000*%
%ADD11C,0.150000*%
%ADD12C,0.120000*%
G04 APERTURE END LIST*
D10*
X52102656Y-16413149D02*
X52055037Y-16508387D01*
X52055037Y-16508387D02*
X52055037Y-16651244D01*
X52055037Y-16651244D02*
X52102656Y-16794101D01*
X52102656Y-16794101D02*
X52197894Y-16889339D01*
X52197894Y-16889339D02*
X52293132Y-16936958D01*
X52293132Y-16936958D02*
X52483608Y-16984577D01*
X52483608Y-16984577D02*
X52626465Y-16984577D01*
X52626465Y-16984577D02*
X52816941Y-16936958D01*
X52816941Y-16936958D02*
X52912179Y-16889339D01*
X52912179Y-16889339D02*
X53007418Y-16794101D01*
X53007418Y-16794101D02*
X53055037Y-16651244D01*
X53055037Y-16651244D02*
X53055037Y-16556006D01*
X53055037Y-16556006D02*
X53007418Y-16413149D01*
X53007418Y-16413149D02*
X52959798Y-16365530D01*
X52959798Y-16365530D02*
X52626465Y-16365530D01*
X52626465Y-16365530D02*
X52626465Y-16556006D01*
X53055037Y-15936958D02*
X52055037Y-15936958D01*
X52055037Y-15936958D02*
X52055037Y-15556006D01*
X52055037Y-15556006D02*
X52102656Y-15460768D01*
X52102656Y-15460768D02*
X52150275Y-15413149D01*
X52150275Y-15413149D02*
X52245513Y-15365530D01*
X52245513Y-15365530D02*
X52388370Y-15365530D01*
X52388370Y-15365530D02*
X52483608Y-15413149D01*
X52483608Y-15413149D02*
X52531227Y-15460768D01*
X52531227Y-15460768D02*
X52578846Y-15556006D01*
X52578846Y-15556006D02*
X52578846Y-15936958D01*
X53055037Y-14936958D02*
X52055037Y-14936958D01*
X52055037Y-14270292D02*
X52055037Y-14079816D01*
X52055037Y-14079816D02*
X52102656Y-13984578D01*
X52102656Y-13984578D02*
X52197894Y-13889340D01*
X52197894Y-13889340D02*
X52388370Y-13841721D01*
X52388370Y-13841721D02*
X52721703Y-13841721D01*
X52721703Y-13841721D02*
X52912179Y-13889340D01*
X52912179Y-13889340D02*
X53007418Y-13984578D01*
X53007418Y-13984578D02*
X53055037Y-14079816D01*
X53055037Y-14079816D02*
X53055037Y-14270292D01*
X53055037Y-14270292D02*
X53007418Y-14365530D01*
X53007418Y-14365530D02*
X52912179Y-14460768D01*
X52912179Y-14460768D02*
X52721703Y-14508387D01*
X52721703Y-14508387D02*
X52388370Y-14508387D01*
X52388370Y-14508387D02*
X52197894Y-14460768D01*
X52197894Y-14460768D02*
X52102656Y-14365530D01*
X52102656Y-14365530D02*
X52055037Y-14270292D01*
X48327693Y-13920038D02*
X48232455Y-13872419D01*
X48232455Y-13872419D02*
X48089598Y-13872419D01*
X48089598Y-13872419D02*
X47946741Y-13920038D01*
X47946741Y-13920038D02*
X47851503Y-14015276D01*
X47851503Y-14015276D02*
X47803884Y-14110514D01*
X47803884Y-14110514D02*
X47756265Y-14300990D01*
X47756265Y-14300990D02*
X47756265Y-14443847D01*
X47756265Y-14443847D02*
X47803884Y-14634323D01*
X47803884Y-14634323D02*
X47851503Y-14729561D01*
X47851503Y-14729561D02*
X47946741Y-14824800D01*
X47946741Y-14824800D02*
X48089598Y-14872419D01*
X48089598Y-14872419D02*
X48184836Y-14872419D01*
X48184836Y-14872419D02*
X48327693Y-14824800D01*
X48327693Y-14824800D02*
X48375312Y-14777180D01*
X48375312Y-14777180D02*
X48375312Y-14443847D01*
X48375312Y-14443847D02*
X48184836Y-14443847D01*
X15872419Y-26410401D02*
X16586704Y-26410401D01*
X16586704Y-26410401D02*
X16729561Y-26458020D01*
X16729561Y-26458020D02*
X16824800Y-26553258D01*
X16824800Y-26553258D02*
X16872419Y-26696115D01*
X16872419Y-26696115D02*
X16872419Y-26791353D01*
X15872419Y-26077067D02*
X15872419Y-25505639D01*
X16872419Y-25791353D02*
X15872419Y-25791353D01*
X16586704Y-25219924D02*
X16586704Y-24743734D01*
X16872419Y-25315162D02*
X15872419Y-24981829D01*
X15872419Y-24981829D02*
X16872419Y-24648496D01*
X15920038Y-23791353D02*
X15872419Y-23886591D01*
X15872419Y-23886591D02*
X15872419Y-24029448D01*
X15872419Y-24029448D02*
X15920038Y-24172305D01*
X15920038Y-24172305D02*
X16015276Y-24267543D01*
X16015276Y-24267543D02*
X16110514Y-24315162D01*
X16110514Y-24315162D02*
X16300990Y-24362781D01*
X16300990Y-24362781D02*
X16443847Y-24362781D01*
X16443847Y-24362781D02*
X16634323Y-24315162D01*
X16634323Y-24315162D02*
X16729561Y-24267543D01*
X16729561Y-24267543D02*
X16824800Y-24172305D01*
X16824800Y-24172305D02*
X16872419Y-24029448D01*
X16872419Y-24029448D02*
X16872419Y-23934210D01*
X16872419Y-23934210D02*
X16824800Y-23791353D01*
X16824800Y-23791353D02*
X16777180Y-23743734D01*
X16777180Y-23743734D02*
X16443847Y-23743734D01*
X16443847Y-23743734D02*
X16443847Y-23934210D01*
X46080710Y-23540094D02*
X46699757Y-23540094D01*
X46699757Y-23540094D02*
X46366424Y-23921046D01*
X46366424Y-23921046D02*
X46509281Y-23921046D01*
X46509281Y-23921046D02*
X46604519Y-23968665D01*
X46604519Y-23968665D02*
X46652138Y-24016284D01*
X46652138Y-24016284D02*
X46699757Y-24111522D01*
X46699757Y-24111522D02*
X46699757Y-24349617D01*
X46699757Y-24349617D02*
X46652138Y-24444855D01*
X46652138Y-24444855D02*
X46604519Y-24492475D01*
X46604519Y-24492475D02*
X46509281Y-24540094D01*
X46509281Y-24540094D02*
X46223567Y-24540094D01*
X46223567Y-24540094D02*
X46128329Y-24492475D01*
X46128329Y-24492475D02*
X46080710Y-24444855D01*
X46985472Y-23540094D02*
X47318805Y-24540094D01*
X47318805Y-24540094D02*
X47652138Y-23540094D01*
X47890234Y-23540094D02*
X48509281Y-23540094D01*
X48509281Y-23540094D02*
X48175948Y-23921046D01*
X48175948Y-23921046D02*
X48318805Y-23921046D01*
X48318805Y-23921046D02*
X48414043Y-23968665D01*
X48414043Y-23968665D02*
X48461662Y-24016284D01*
X48461662Y-24016284D02*
X48509281Y-24111522D01*
X48509281Y-24111522D02*
X48509281Y-24349617D01*
X48509281Y-24349617D02*
X48461662Y-24444855D01*
X48461662Y-24444855D02*
X48414043Y-24492475D01*
X48414043Y-24492475D02*
X48318805Y-24540094D01*
X48318805Y-24540094D02*
X48033091Y-24540094D01*
X48033091Y-24540094D02*
X47937853Y-24492475D01*
X47937853Y-24492475D02*
X47890234Y-24444855D01*
D11*
X94175057Y-34095238D02*
X94127438Y-34190476D01*
X94127438Y-34190476D02*
X94032200Y-34285714D01*
X94032200Y-34285714D02*
X93889342Y-34428571D01*
X93889342Y-34428571D02*
X93841723Y-34523809D01*
X93841723Y-34523809D02*
X93841723Y-34619047D01*
X94079819Y-34571428D02*
X94032200Y-34666666D01*
X94032200Y-34666666D02*
X93936961Y-34761904D01*
X93936961Y-34761904D02*
X93746485Y-34809523D01*
X93746485Y-34809523D02*
X93413152Y-34809523D01*
X93413152Y-34809523D02*
X93222676Y-34761904D01*
X93222676Y-34761904D02*
X93127438Y-34666666D01*
X93127438Y-34666666D02*
X93079819Y-34571428D01*
X93079819Y-34571428D02*
X93079819Y-34380952D01*
X93079819Y-34380952D02*
X93127438Y-34285714D01*
X93127438Y-34285714D02*
X93222676Y-34190476D01*
X93222676Y-34190476D02*
X93413152Y-34142857D01*
X93413152Y-34142857D02*
X93746485Y-34142857D01*
X93746485Y-34142857D02*
X93936961Y-34190476D01*
X93936961Y-34190476D02*
X94032200Y-34285714D01*
X94032200Y-34285714D02*
X94079819Y-34380952D01*
X94079819Y-34380952D02*
X94079819Y-34571428D01*
X93079819Y-33285714D02*
X93079819Y-33476190D01*
X93079819Y-33476190D02*
X93127438Y-33571428D01*
X93127438Y-33571428D02*
X93175057Y-33619047D01*
X93175057Y-33619047D02*
X93317914Y-33714285D01*
X93317914Y-33714285D02*
X93508390Y-33761904D01*
X93508390Y-33761904D02*
X93889342Y-33761904D01*
X93889342Y-33761904D02*
X93984580Y-33714285D01*
X93984580Y-33714285D02*
X94032200Y-33666666D01*
X94032200Y-33666666D02*
X94079819Y-33571428D01*
X94079819Y-33571428D02*
X94079819Y-33380952D01*
X94079819Y-33380952D02*
X94032200Y-33285714D01*
X94032200Y-33285714D02*
X93984580Y-33238095D01*
X93984580Y-33238095D02*
X93889342Y-33190476D01*
X93889342Y-33190476D02*
X93651247Y-33190476D01*
X93651247Y-33190476D02*
X93556009Y-33238095D01*
X93556009Y-33238095D02*
X93508390Y-33285714D01*
X93508390Y-33285714D02*
X93460771Y-33380952D01*
X93460771Y-33380952D02*
X93460771Y-33571428D01*
X93460771Y-33571428D02*
X93508390Y-33666666D01*
X93508390Y-33666666D02*
X93556009Y-33714285D01*
X93556009Y-33714285D02*
X93651247Y-33761904D01*
X90958333Y-36904819D02*
X90625000Y-36428628D01*
X90386905Y-36904819D02*
X90386905Y-35904819D01*
X90386905Y-35904819D02*
X90767857Y-35904819D01*
X90767857Y-35904819D02*
X90863095Y-35952438D01*
X90863095Y-35952438D02*
X90910714Y-36000057D01*
X90910714Y-36000057D02*
X90958333Y-36095295D01*
X90958333Y-36095295D02*
X90958333Y-36238152D01*
X90958333Y-36238152D02*
X90910714Y-36333390D01*
X90910714Y-36333390D02*
X90863095Y-36381009D01*
X90863095Y-36381009D02*
X90767857Y-36428628D01*
X90767857Y-36428628D02*
X90386905Y-36428628D01*
X91815476Y-35904819D02*
X91625000Y-35904819D01*
X91625000Y-35904819D02*
X91529762Y-35952438D01*
X91529762Y-35952438D02*
X91482143Y-36000057D01*
X91482143Y-36000057D02*
X91386905Y-36142914D01*
X91386905Y-36142914D02*
X91339286Y-36333390D01*
X91339286Y-36333390D02*
X91339286Y-36714342D01*
X91339286Y-36714342D02*
X91386905Y-36809580D01*
X91386905Y-36809580D02*
X91434524Y-36857200D01*
X91434524Y-36857200D02*
X91529762Y-36904819D01*
X91529762Y-36904819D02*
X91720238Y-36904819D01*
X91720238Y-36904819D02*
X91815476Y-36857200D01*
X91815476Y-36857200D02*
X91863095Y-36809580D01*
X91863095Y-36809580D02*
X91910714Y-36714342D01*
X91910714Y-36714342D02*
X91910714Y-36476247D01*
X91910714Y-36476247D02*
X91863095Y-36381009D01*
X91863095Y-36381009D02*
X91815476Y-36333390D01*
X91815476Y-36333390D02*
X91720238Y-36285771D01*
X91720238Y-36285771D02*
X91529762Y-36285771D01*
X91529762Y-36285771D02*
X91434524Y-36333390D01*
X91434524Y-36333390D02*
X91386905Y-36381009D01*
X91386905Y-36381009D02*
X91339286Y-36476247D01*
X95458333Y-34454819D02*
X95125000Y-33978628D01*
X94886905Y-34454819D02*
X94886905Y-33454819D01*
X94886905Y-33454819D02*
X95267857Y-33454819D01*
X95267857Y-33454819D02*
X95363095Y-33502438D01*
X95363095Y-33502438D02*
X95410714Y-33550057D01*
X95410714Y-33550057D02*
X95458333Y-33645295D01*
X95458333Y-33645295D02*
X95458333Y-33788152D01*
X95458333Y-33788152D02*
X95410714Y-33883390D01*
X95410714Y-33883390D02*
X95363095Y-33931009D01*
X95363095Y-33931009D02*
X95267857Y-33978628D01*
X95267857Y-33978628D02*
X94886905Y-33978628D01*
X96363095Y-33454819D02*
X95886905Y-33454819D01*
X95886905Y-33454819D02*
X95839286Y-33931009D01*
X95839286Y-33931009D02*
X95886905Y-33883390D01*
X95886905Y-33883390D02*
X95982143Y-33835771D01*
X95982143Y-33835771D02*
X96220238Y-33835771D01*
X96220238Y-33835771D02*
X96315476Y-33883390D01*
X96315476Y-33883390D02*
X96363095Y-33931009D01*
X96363095Y-33931009D02*
X96410714Y-34026247D01*
X96410714Y-34026247D02*
X96410714Y-34264342D01*
X96410714Y-34264342D02*
X96363095Y-34359580D01*
X96363095Y-34359580D02*
X96315476Y-34407200D01*
X96315476Y-34407200D02*
X96220238Y-34454819D01*
X96220238Y-34454819D02*
X95982143Y-34454819D01*
X95982143Y-34454819D02*
X95886905Y-34407200D01*
X95886905Y-34407200D02*
X95839286Y-34359580D01*
X86050057Y-33095238D02*
X86002438Y-33190476D01*
X86002438Y-33190476D02*
X85907200Y-33285714D01*
X85907200Y-33285714D02*
X85764342Y-33428571D01*
X85764342Y-33428571D02*
X85716723Y-33523809D01*
X85716723Y-33523809D02*
X85716723Y-33619047D01*
X85954819Y-33571428D02*
X85907200Y-33666666D01*
X85907200Y-33666666D02*
X85811961Y-33761904D01*
X85811961Y-33761904D02*
X85621485Y-33809523D01*
X85621485Y-33809523D02*
X85288152Y-33809523D01*
X85288152Y-33809523D02*
X85097676Y-33761904D01*
X85097676Y-33761904D02*
X85002438Y-33666666D01*
X85002438Y-33666666D02*
X84954819Y-33571428D01*
X84954819Y-33571428D02*
X84954819Y-33380952D01*
X84954819Y-33380952D02*
X85002438Y-33285714D01*
X85002438Y-33285714D02*
X85097676Y-33190476D01*
X85097676Y-33190476D02*
X85288152Y-33142857D01*
X85288152Y-33142857D02*
X85621485Y-33142857D01*
X85621485Y-33142857D02*
X85811961Y-33190476D01*
X85811961Y-33190476D02*
X85907200Y-33285714D01*
X85907200Y-33285714D02*
X85954819Y-33380952D01*
X85954819Y-33380952D02*
X85954819Y-33571428D01*
X85383390Y-32571428D02*
X85335771Y-32666666D01*
X85335771Y-32666666D02*
X85288152Y-32714285D01*
X85288152Y-32714285D02*
X85192914Y-32761904D01*
X85192914Y-32761904D02*
X85145295Y-32761904D01*
X85145295Y-32761904D02*
X85050057Y-32714285D01*
X85050057Y-32714285D02*
X85002438Y-32666666D01*
X85002438Y-32666666D02*
X84954819Y-32571428D01*
X84954819Y-32571428D02*
X84954819Y-32380952D01*
X84954819Y-32380952D02*
X85002438Y-32285714D01*
X85002438Y-32285714D02*
X85050057Y-32238095D01*
X85050057Y-32238095D02*
X85145295Y-32190476D01*
X85145295Y-32190476D02*
X85192914Y-32190476D01*
X85192914Y-32190476D02*
X85288152Y-32238095D01*
X85288152Y-32238095D02*
X85335771Y-32285714D01*
X85335771Y-32285714D02*
X85383390Y-32380952D01*
X85383390Y-32380952D02*
X85383390Y-32571428D01*
X85383390Y-32571428D02*
X85431009Y-32666666D01*
X85431009Y-32666666D02*
X85478628Y-32714285D01*
X85478628Y-32714285D02*
X85573866Y-32761904D01*
X85573866Y-32761904D02*
X85764342Y-32761904D01*
X85764342Y-32761904D02*
X85859580Y-32714285D01*
X85859580Y-32714285D02*
X85907200Y-32666666D01*
X85907200Y-32666666D02*
X85954819Y-32571428D01*
X85954819Y-32571428D02*
X85954819Y-32380952D01*
X85954819Y-32380952D02*
X85907200Y-32285714D01*
X85907200Y-32285714D02*
X85859580Y-32238095D01*
X85859580Y-32238095D02*
X85764342Y-32190476D01*
X85764342Y-32190476D02*
X85573866Y-32190476D01*
X85573866Y-32190476D02*
X85478628Y-32238095D01*
X85478628Y-32238095D02*
X85431009Y-32285714D01*
X85431009Y-32285714D02*
X85383390Y-32380952D01*
X103454819Y-32666666D02*
X102978628Y-32999999D01*
X103454819Y-33238094D02*
X102454819Y-33238094D01*
X102454819Y-33238094D02*
X102454819Y-32857142D01*
X102454819Y-32857142D02*
X102502438Y-32761904D01*
X102502438Y-32761904D02*
X102550057Y-32714285D01*
X102550057Y-32714285D02*
X102645295Y-32666666D01*
X102645295Y-32666666D02*
X102788152Y-32666666D01*
X102788152Y-32666666D02*
X102883390Y-32714285D01*
X102883390Y-32714285D02*
X102931009Y-32761904D01*
X102931009Y-32761904D02*
X102978628Y-32857142D01*
X102978628Y-32857142D02*
X102978628Y-33238094D01*
X102788152Y-31809523D02*
X103454819Y-31809523D01*
X102407200Y-32047618D02*
X103121485Y-32285713D01*
X103121485Y-32285713D02*
X103121485Y-31666666D01*
X87954819Y-27666666D02*
X87478628Y-27999999D01*
X87954819Y-28238094D02*
X86954819Y-28238094D01*
X86954819Y-28238094D02*
X86954819Y-27857142D01*
X86954819Y-27857142D02*
X87002438Y-27761904D01*
X87002438Y-27761904D02*
X87050057Y-27714285D01*
X87050057Y-27714285D02*
X87145295Y-27666666D01*
X87145295Y-27666666D02*
X87288152Y-27666666D01*
X87288152Y-27666666D02*
X87383390Y-27714285D01*
X87383390Y-27714285D02*
X87431009Y-27761904D01*
X87431009Y-27761904D02*
X87478628Y-27857142D01*
X87478628Y-27857142D02*
X87478628Y-28238094D01*
X87383390Y-27095237D02*
X87335771Y-27190475D01*
X87335771Y-27190475D02*
X87288152Y-27238094D01*
X87288152Y-27238094D02*
X87192914Y-27285713D01*
X87192914Y-27285713D02*
X87145295Y-27285713D01*
X87145295Y-27285713D02*
X87050057Y-27238094D01*
X87050057Y-27238094D02*
X87002438Y-27190475D01*
X87002438Y-27190475D02*
X86954819Y-27095237D01*
X86954819Y-27095237D02*
X86954819Y-26904761D01*
X86954819Y-26904761D02*
X87002438Y-26809523D01*
X87002438Y-26809523D02*
X87050057Y-26761904D01*
X87050057Y-26761904D02*
X87145295Y-26714285D01*
X87145295Y-26714285D02*
X87192914Y-26714285D01*
X87192914Y-26714285D02*
X87288152Y-26761904D01*
X87288152Y-26761904D02*
X87335771Y-26809523D01*
X87335771Y-26809523D02*
X87383390Y-26904761D01*
X87383390Y-26904761D02*
X87383390Y-27095237D01*
X87383390Y-27095237D02*
X87431009Y-27190475D01*
X87431009Y-27190475D02*
X87478628Y-27238094D01*
X87478628Y-27238094D02*
X87573866Y-27285713D01*
X87573866Y-27285713D02*
X87764342Y-27285713D01*
X87764342Y-27285713D02*
X87859580Y-27238094D01*
X87859580Y-27238094D02*
X87907200Y-27190475D01*
X87907200Y-27190475D02*
X87954819Y-27095237D01*
X87954819Y-27095237D02*
X87954819Y-26904761D01*
X87954819Y-26904761D02*
X87907200Y-26809523D01*
X87907200Y-26809523D02*
X87859580Y-26761904D01*
X87859580Y-26761904D02*
X87764342Y-26714285D01*
X87764342Y-26714285D02*
X87573866Y-26714285D01*
X87573866Y-26714285D02*
X87478628Y-26761904D01*
X87478628Y-26761904D02*
X87431009Y-26809523D01*
X87431009Y-26809523D02*
X87383390Y-26904761D01*
X107050057Y-15095238D02*
X107002438Y-15190476D01*
X107002438Y-15190476D02*
X106907200Y-15285714D01*
X106907200Y-15285714D02*
X106764342Y-15428571D01*
X106764342Y-15428571D02*
X106716723Y-15523809D01*
X106716723Y-15523809D02*
X106716723Y-15619047D01*
X106954819Y-15571428D02*
X106907200Y-15666666D01*
X106907200Y-15666666D02*
X106811961Y-15761904D01*
X106811961Y-15761904D02*
X106621485Y-15809523D01*
X106621485Y-15809523D02*
X106288152Y-15809523D01*
X106288152Y-15809523D02*
X106097676Y-15761904D01*
X106097676Y-15761904D02*
X106002438Y-15666666D01*
X106002438Y-15666666D02*
X105954819Y-15571428D01*
X105954819Y-15571428D02*
X105954819Y-15380952D01*
X105954819Y-15380952D02*
X106002438Y-15285714D01*
X106002438Y-15285714D02*
X106097676Y-15190476D01*
X106097676Y-15190476D02*
X106288152Y-15142857D01*
X106288152Y-15142857D02*
X106621485Y-15142857D01*
X106621485Y-15142857D02*
X106811961Y-15190476D01*
X106811961Y-15190476D02*
X106907200Y-15285714D01*
X106907200Y-15285714D02*
X106954819Y-15380952D01*
X106954819Y-15380952D02*
X106954819Y-15571428D01*
X106050057Y-14761904D02*
X106002438Y-14714285D01*
X106002438Y-14714285D02*
X105954819Y-14619047D01*
X105954819Y-14619047D02*
X105954819Y-14380952D01*
X105954819Y-14380952D02*
X106002438Y-14285714D01*
X106002438Y-14285714D02*
X106050057Y-14238095D01*
X106050057Y-14238095D02*
X106145295Y-14190476D01*
X106145295Y-14190476D02*
X106240533Y-14190476D01*
X106240533Y-14190476D02*
X106383390Y-14238095D01*
X106383390Y-14238095D02*
X106954819Y-14809523D01*
X106954819Y-14809523D02*
X106954819Y-14190476D01*
X106550057Y-25595238D02*
X106502438Y-25690476D01*
X106502438Y-25690476D02*
X106407200Y-25785714D01*
X106407200Y-25785714D02*
X106264342Y-25928571D01*
X106264342Y-25928571D02*
X106216723Y-26023809D01*
X106216723Y-26023809D02*
X106216723Y-26119047D01*
X106454819Y-26071428D02*
X106407200Y-26166666D01*
X106407200Y-26166666D02*
X106311961Y-26261904D01*
X106311961Y-26261904D02*
X106121485Y-26309523D01*
X106121485Y-26309523D02*
X105788152Y-26309523D01*
X105788152Y-26309523D02*
X105597676Y-26261904D01*
X105597676Y-26261904D02*
X105502438Y-26166666D01*
X105502438Y-26166666D02*
X105454819Y-26071428D01*
X105454819Y-26071428D02*
X105454819Y-25880952D01*
X105454819Y-25880952D02*
X105502438Y-25785714D01*
X105502438Y-25785714D02*
X105597676Y-25690476D01*
X105597676Y-25690476D02*
X105788152Y-25642857D01*
X105788152Y-25642857D02*
X106121485Y-25642857D01*
X106121485Y-25642857D02*
X106311961Y-25690476D01*
X106311961Y-25690476D02*
X106407200Y-25785714D01*
X106407200Y-25785714D02*
X106454819Y-25880952D01*
X106454819Y-25880952D02*
X106454819Y-26071428D01*
X105454819Y-25309523D02*
X105454819Y-24690476D01*
X105454819Y-24690476D02*
X105835771Y-25023809D01*
X105835771Y-25023809D02*
X105835771Y-24880952D01*
X105835771Y-24880952D02*
X105883390Y-24785714D01*
X105883390Y-24785714D02*
X105931009Y-24738095D01*
X105931009Y-24738095D02*
X106026247Y-24690476D01*
X106026247Y-24690476D02*
X106264342Y-24690476D01*
X106264342Y-24690476D02*
X106359580Y-24738095D01*
X106359580Y-24738095D02*
X106407200Y-24785714D01*
X106407200Y-24785714D02*
X106454819Y-24880952D01*
X106454819Y-24880952D02*
X106454819Y-25166666D01*
X106454819Y-25166666D02*
X106407200Y-25261904D01*
X106407200Y-25261904D02*
X106359580Y-25309523D01*
X51954819Y-28833333D02*
X52669104Y-28833333D01*
X52669104Y-28833333D02*
X52811961Y-28880952D01*
X52811961Y-28880952D02*
X52907200Y-28976190D01*
X52907200Y-28976190D02*
X52954819Y-29119047D01*
X52954819Y-29119047D02*
X52954819Y-29214285D01*
X51954819Y-27880952D02*
X51954819Y-28357142D01*
X51954819Y-28357142D02*
X52431009Y-28404761D01*
X52431009Y-28404761D02*
X52383390Y-28357142D01*
X52383390Y-28357142D02*
X52335771Y-28261904D01*
X52335771Y-28261904D02*
X52335771Y-28023809D01*
X52335771Y-28023809D02*
X52383390Y-27928571D01*
X52383390Y-27928571D02*
X52431009Y-27880952D01*
X52431009Y-27880952D02*
X52526247Y-27833333D01*
X52526247Y-27833333D02*
X52764342Y-27833333D01*
X52764342Y-27833333D02*
X52859580Y-27880952D01*
X52859580Y-27880952D02*
X52907200Y-27928571D01*
X52907200Y-27928571D02*
X52954819Y-28023809D01*
X52954819Y-28023809D02*
X52954819Y-28261904D01*
X52954819Y-28261904D02*
X52907200Y-28357142D01*
X52907200Y-28357142D02*
X52859580Y-28404761D01*
X17866666Y-20669819D02*
X17866666Y-21384104D01*
X17866666Y-21384104D02*
X17819047Y-21526961D01*
X17819047Y-21526961D02*
X17723809Y-21622200D01*
X17723809Y-21622200D02*
X17580952Y-21669819D01*
X17580952Y-21669819D02*
X17485714Y-21669819D01*
X18771428Y-21003152D02*
X18771428Y-21669819D01*
X18533333Y-20622200D02*
X18295238Y-21336485D01*
X18295238Y-21336485D02*
X18914285Y-21336485D01*
X21154819Y-24142857D02*
X20678628Y-24476190D01*
X21154819Y-24714285D02*
X20154819Y-24714285D01*
X20154819Y-24714285D02*
X20154819Y-24333333D01*
X20154819Y-24333333D02*
X20202438Y-24238095D01*
X20202438Y-24238095D02*
X20250057Y-24190476D01*
X20250057Y-24190476D02*
X20345295Y-24142857D01*
X20345295Y-24142857D02*
X20488152Y-24142857D01*
X20488152Y-24142857D02*
X20583390Y-24190476D01*
X20583390Y-24190476D02*
X20631009Y-24238095D01*
X20631009Y-24238095D02*
X20678628Y-24333333D01*
X20678628Y-24333333D02*
X20678628Y-24714285D01*
X21154819Y-23190476D02*
X21154819Y-23761904D01*
X21154819Y-23476190D02*
X20154819Y-23476190D01*
X20154819Y-23476190D02*
X20297676Y-23571428D01*
X20297676Y-23571428D02*
X20392914Y-23666666D01*
X20392914Y-23666666D02*
X20440533Y-23761904D01*
X20250057Y-22809523D02*
X20202438Y-22761904D01*
X20202438Y-22761904D02*
X20154819Y-22666666D01*
X20154819Y-22666666D02*
X20154819Y-22428571D01*
X20154819Y-22428571D02*
X20202438Y-22333333D01*
X20202438Y-22333333D02*
X20250057Y-22285714D01*
X20250057Y-22285714D02*
X20345295Y-22238095D01*
X20345295Y-22238095D02*
X20440533Y-22238095D01*
X20440533Y-22238095D02*
X20583390Y-22285714D01*
X20583390Y-22285714D02*
X21154819Y-22857142D01*
X21154819Y-22857142D02*
X21154819Y-22238095D01*
X53833333Y-25132080D02*
X53785714Y-25179700D01*
X53785714Y-25179700D02*
X53642857Y-25227319D01*
X53642857Y-25227319D02*
X53547619Y-25227319D01*
X53547619Y-25227319D02*
X53404762Y-25179700D01*
X53404762Y-25179700D02*
X53309524Y-25084461D01*
X53309524Y-25084461D02*
X53261905Y-24989223D01*
X53261905Y-24989223D02*
X53214286Y-24798747D01*
X53214286Y-24798747D02*
X53214286Y-24655890D01*
X53214286Y-24655890D02*
X53261905Y-24465414D01*
X53261905Y-24465414D02*
X53309524Y-24370176D01*
X53309524Y-24370176D02*
X53404762Y-24274938D01*
X53404762Y-24274938D02*
X53547619Y-24227319D01*
X53547619Y-24227319D02*
X53642857Y-24227319D01*
X53642857Y-24227319D02*
X53785714Y-24274938D01*
X53785714Y-24274938D02*
X53833333Y-24322557D01*
X54166667Y-24227319D02*
X54833333Y-24227319D01*
X54833333Y-24227319D02*
X54404762Y-25227319D01*
X25857142Y-9359580D02*
X25809523Y-9407200D01*
X25809523Y-9407200D02*
X25666666Y-9454819D01*
X25666666Y-9454819D02*
X25571428Y-9454819D01*
X25571428Y-9454819D02*
X25428571Y-9407200D01*
X25428571Y-9407200D02*
X25333333Y-9311961D01*
X25333333Y-9311961D02*
X25285714Y-9216723D01*
X25285714Y-9216723D02*
X25238095Y-9026247D01*
X25238095Y-9026247D02*
X25238095Y-8883390D01*
X25238095Y-8883390D02*
X25285714Y-8692914D01*
X25285714Y-8692914D02*
X25333333Y-8597676D01*
X25333333Y-8597676D02*
X25428571Y-8502438D01*
X25428571Y-8502438D02*
X25571428Y-8454819D01*
X25571428Y-8454819D02*
X25666666Y-8454819D01*
X25666666Y-8454819D02*
X25809523Y-8502438D01*
X25809523Y-8502438D02*
X25857142Y-8550057D01*
X26809523Y-9454819D02*
X26238095Y-9454819D01*
X26523809Y-9454819D02*
X26523809Y-8454819D01*
X26523809Y-8454819D02*
X26428571Y-8597676D01*
X26428571Y-8597676D02*
X26333333Y-8692914D01*
X26333333Y-8692914D02*
X26238095Y-8740533D01*
X27761904Y-9454819D02*
X27190476Y-9454819D01*
X27476190Y-9454819D02*
X27476190Y-8454819D01*
X27476190Y-8454819D02*
X27380952Y-8597676D01*
X27380952Y-8597676D02*
X27285714Y-8692914D01*
X27285714Y-8692914D02*
X27190476Y-8740533D01*
X28059580Y-16642857D02*
X28107200Y-16690476D01*
X28107200Y-16690476D02*
X28154819Y-16833333D01*
X28154819Y-16833333D02*
X28154819Y-16928571D01*
X28154819Y-16928571D02*
X28107200Y-17071428D01*
X28107200Y-17071428D02*
X28011961Y-17166666D01*
X28011961Y-17166666D02*
X27916723Y-17214285D01*
X27916723Y-17214285D02*
X27726247Y-17261904D01*
X27726247Y-17261904D02*
X27583390Y-17261904D01*
X27583390Y-17261904D02*
X27392914Y-17214285D01*
X27392914Y-17214285D02*
X27297676Y-17166666D01*
X27297676Y-17166666D02*
X27202438Y-17071428D01*
X27202438Y-17071428D02*
X27154819Y-16928571D01*
X27154819Y-16928571D02*
X27154819Y-16833333D01*
X27154819Y-16833333D02*
X27202438Y-16690476D01*
X27202438Y-16690476D02*
X27250057Y-16642857D01*
X28154819Y-15690476D02*
X28154819Y-16261904D01*
X28154819Y-15976190D02*
X27154819Y-15976190D01*
X27154819Y-15976190D02*
X27297676Y-16071428D01*
X27297676Y-16071428D02*
X27392914Y-16166666D01*
X27392914Y-16166666D02*
X27440533Y-16261904D01*
X27154819Y-15357142D02*
X27154819Y-14738095D01*
X27154819Y-14738095D02*
X27535771Y-15071428D01*
X27535771Y-15071428D02*
X27535771Y-14928571D01*
X27535771Y-14928571D02*
X27583390Y-14833333D01*
X27583390Y-14833333D02*
X27631009Y-14785714D01*
X27631009Y-14785714D02*
X27726247Y-14738095D01*
X27726247Y-14738095D02*
X27964342Y-14738095D01*
X27964342Y-14738095D02*
X28059580Y-14785714D01*
X28059580Y-14785714D02*
X28107200Y-14833333D01*
X28107200Y-14833333D02*
X28154819Y-14928571D01*
X28154819Y-14928571D02*
X28154819Y-15214285D01*
X28154819Y-15214285D02*
X28107200Y-15309523D01*
X28107200Y-15309523D02*
X28059580Y-15357142D01*
X24857142Y-26954819D02*
X24523809Y-26478628D01*
X24285714Y-26954819D02*
X24285714Y-25954819D01*
X24285714Y-25954819D02*
X24666666Y-25954819D01*
X24666666Y-25954819D02*
X24761904Y-26002438D01*
X24761904Y-26002438D02*
X24809523Y-26050057D01*
X24809523Y-26050057D02*
X24857142Y-26145295D01*
X24857142Y-26145295D02*
X24857142Y-26288152D01*
X24857142Y-26288152D02*
X24809523Y-26383390D01*
X24809523Y-26383390D02*
X24761904Y-26431009D01*
X24761904Y-26431009D02*
X24666666Y-26478628D01*
X24666666Y-26478628D02*
X24285714Y-26478628D01*
X25809523Y-26954819D02*
X25238095Y-26954819D01*
X25523809Y-26954819D02*
X25523809Y-25954819D01*
X25523809Y-25954819D02*
X25428571Y-26097676D01*
X25428571Y-26097676D02*
X25333333Y-26192914D01*
X25333333Y-26192914D02*
X25238095Y-26240533D01*
X26666666Y-26288152D02*
X26666666Y-26954819D01*
X26428571Y-25907200D02*
X26190476Y-26621485D01*
X26190476Y-26621485D02*
X26809523Y-26621485D01*
X23223809Y-18478628D02*
X23223809Y-18954819D01*
X22890476Y-17954819D02*
X23223809Y-18478628D01*
X23223809Y-18478628D02*
X23557142Y-17954819D01*
X24414285Y-18954819D02*
X23842857Y-18954819D01*
X24128571Y-18954819D02*
X24128571Y-17954819D01*
X24128571Y-17954819D02*
X24033333Y-18097676D01*
X24033333Y-18097676D02*
X23938095Y-18192914D01*
X23938095Y-18192914D02*
X23842857Y-18240533D01*
X25357142Y-12359580D02*
X25309523Y-12407200D01*
X25309523Y-12407200D02*
X25166666Y-12454819D01*
X25166666Y-12454819D02*
X25071428Y-12454819D01*
X25071428Y-12454819D02*
X24928571Y-12407200D01*
X24928571Y-12407200D02*
X24833333Y-12311961D01*
X24833333Y-12311961D02*
X24785714Y-12216723D01*
X24785714Y-12216723D02*
X24738095Y-12026247D01*
X24738095Y-12026247D02*
X24738095Y-11883390D01*
X24738095Y-11883390D02*
X24785714Y-11692914D01*
X24785714Y-11692914D02*
X24833333Y-11597676D01*
X24833333Y-11597676D02*
X24928571Y-11502438D01*
X24928571Y-11502438D02*
X25071428Y-11454819D01*
X25071428Y-11454819D02*
X25166666Y-11454819D01*
X25166666Y-11454819D02*
X25309523Y-11502438D01*
X25309523Y-11502438D02*
X25357142Y-11550057D01*
X26309523Y-12454819D02*
X25738095Y-12454819D01*
X26023809Y-12454819D02*
X26023809Y-11454819D01*
X26023809Y-11454819D02*
X25928571Y-11597676D01*
X25928571Y-11597676D02*
X25833333Y-11692914D01*
X25833333Y-11692914D02*
X25738095Y-11740533D01*
X26928571Y-11454819D02*
X27023809Y-11454819D01*
X27023809Y-11454819D02*
X27119047Y-11502438D01*
X27119047Y-11502438D02*
X27166666Y-11550057D01*
X27166666Y-11550057D02*
X27214285Y-11645295D01*
X27214285Y-11645295D02*
X27261904Y-11835771D01*
X27261904Y-11835771D02*
X27261904Y-12073866D01*
X27261904Y-12073866D02*
X27214285Y-12264342D01*
X27214285Y-12264342D02*
X27166666Y-12359580D01*
X27166666Y-12359580D02*
X27119047Y-12407200D01*
X27119047Y-12407200D02*
X27023809Y-12454819D01*
X27023809Y-12454819D02*
X26928571Y-12454819D01*
X26928571Y-12454819D02*
X26833333Y-12407200D01*
X26833333Y-12407200D02*
X26785714Y-12359580D01*
X26785714Y-12359580D02*
X26738095Y-12264342D01*
X26738095Y-12264342D02*
X26690476Y-12073866D01*
X26690476Y-12073866D02*
X26690476Y-11835771D01*
X26690476Y-11835771D02*
X26738095Y-11645295D01*
X26738095Y-11645295D02*
X26785714Y-11550057D01*
X26785714Y-11550057D02*
X26833333Y-11502438D01*
X26833333Y-11502438D02*
X26928571Y-11454819D01*
X51357142Y-7359580D02*
X51309523Y-7407200D01*
X51309523Y-7407200D02*
X51166666Y-7454819D01*
X51166666Y-7454819D02*
X51071428Y-7454819D01*
X51071428Y-7454819D02*
X50928571Y-7407200D01*
X50928571Y-7407200D02*
X50833333Y-7311961D01*
X50833333Y-7311961D02*
X50785714Y-7216723D01*
X50785714Y-7216723D02*
X50738095Y-7026247D01*
X50738095Y-7026247D02*
X50738095Y-6883390D01*
X50738095Y-6883390D02*
X50785714Y-6692914D01*
X50785714Y-6692914D02*
X50833333Y-6597676D01*
X50833333Y-6597676D02*
X50928571Y-6502438D01*
X50928571Y-6502438D02*
X51071428Y-6454819D01*
X51071428Y-6454819D02*
X51166666Y-6454819D01*
X51166666Y-6454819D02*
X51309523Y-6502438D01*
X51309523Y-6502438D02*
X51357142Y-6550057D01*
X52309523Y-7454819D02*
X51738095Y-7454819D01*
X52023809Y-7454819D02*
X52023809Y-6454819D01*
X52023809Y-6454819D02*
X51928571Y-6597676D01*
X51928571Y-6597676D02*
X51833333Y-6692914D01*
X51833333Y-6692914D02*
X51738095Y-6740533D01*
X52690476Y-6550057D02*
X52738095Y-6502438D01*
X52738095Y-6502438D02*
X52833333Y-6454819D01*
X52833333Y-6454819D02*
X53071428Y-6454819D01*
X53071428Y-6454819D02*
X53166666Y-6502438D01*
X53166666Y-6502438D02*
X53214285Y-6550057D01*
X53214285Y-6550057D02*
X53261904Y-6645295D01*
X53261904Y-6645295D02*
X53261904Y-6740533D01*
X53261904Y-6740533D02*
X53214285Y-6883390D01*
X53214285Y-6883390D02*
X52642857Y-7454819D01*
X52642857Y-7454819D02*
X53261904Y-7454819D01*
X38166667Y-7907200D02*
X38309524Y-7954819D01*
X38309524Y-7954819D02*
X38547619Y-7954819D01*
X38547619Y-7954819D02*
X38642857Y-7907200D01*
X38642857Y-7907200D02*
X38690476Y-7859580D01*
X38690476Y-7859580D02*
X38738095Y-7764342D01*
X38738095Y-7764342D02*
X38738095Y-7669104D01*
X38738095Y-7669104D02*
X38690476Y-7573866D01*
X38690476Y-7573866D02*
X38642857Y-7526247D01*
X38642857Y-7526247D02*
X38547619Y-7478628D01*
X38547619Y-7478628D02*
X38357143Y-7431009D01*
X38357143Y-7431009D02*
X38261905Y-7383390D01*
X38261905Y-7383390D02*
X38214286Y-7335771D01*
X38214286Y-7335771D02*
X38166667Y-7240533D01*
X38166667Y-7240533D02*
X38166667Y-7145295D01*
X38166667Y-7145295D02*
X38214286Y-7050057D01*
X38214286Y-7050057D02*
X38261905Y-7002438D01*
X38261905Y-7002438D02*
X38357143Y-6954819D01*
X38357143Y-6954819D02*
X38595238Y-6954819D01*
X38595238Y-6954819D02*
X38738095Y-7002438D01*
X39071429Y-6954819D02*
X39309524Y-7954819D01*
X39309524Y-7954819D02*
X39500000Y-7240533D01*
X39500000Y-7240533D02*
X39690476Y-7954819D01*
X39690476Y-7954819D02*
X39928572Y-6954819D01*
X40833333Y-7954819D02*
X40261905Y-7954819D01*
X40547619Y-7954819D02*
X40547619Y-6954819D01*
X40547619Y-6954819D02*
X40452381Y-7097676D01*
X40452381Y-7097676D02*
X40357143Y-7192914D01*
X40357143Y-7192914D02*
X40261905Y-7240533D01*
X43833333Y-7359580D02*
X43785714Y-7407200D01*
X43785714Y-7407200D02*
X43642857Y-7454819D01*
X43642857Y-7454819D02*
X43547619Y-7454819D01*
X43547619Y-7454819D02*
X43404762Y-7407200D01*
X43404762Y-7407200D02*
X43309524Y-7311961D01*
X43309524Y-7311961D02*
X43261905Y-7216723D01*
X43261905Y-7216723D02*
X43214286Y-7026247D01*
X43214286Y-7026247D02*
X43214286Y-6883390D01*
X43214286Y-6883390D02*
X43261905Y-6692914D01*
X43261905Y-6692914D02*
X43309524Y-6597676D01*
X43309524Y-6597676D02*
X43404762Y-6502438D01*
X43404762Y-6502438D02*
X43547619Y-6454819D01*
X43547619Y-6454819D02*
X43642857Y-6454819D01*
X43642857Y-6454819D02*
X43785714Y-6502438D01*
X43785714Y-6502438D02*
X43833333Y-6550057D01*
X44309524Y-7454819D02*
X44500000Y-7454819D01*
X44500000Y-7454819D02*
X44595238Y-7407200D01*
X44595238Y-7407200D02*
X44642857Y-7359580D01*
X44642857Y-7359580D02*
X44738095Y-7216723D01*
X44738095Y-7216723D02*
X44785714Y-7026247D01*
X44785714Y-7026247D02*
X44785714Y-6645295D01*
X44785714Y-6645295D02*
X44738095Y-6550057D01*
X44738095Y-6550057D02*
X44690476Y-6502438D01*
X44690476Y-6502438D02*
X44595238Y-6454819D01*
X44595238Y-6454819D02*
X44404762Y-6454819D01*
X44404762Y-6454819D02*
X44309524Y-6502438D01*
X44309524Y-6502438D02*
X44261905Y-6550057D01*
X44261905Y-6550057D02*
X44214286Y-6645295D01*
X44214286Y-6645295D02*
X44214286Y-6883390D01*
X44214286Y-6883390D02*
X44261905Y-6978628D01*
X44261905Y-6978628D02*
X44309524Y-7026247D01*
X44309524Y-7026247D02*
X44404762Y-7073866D01*
X44404762Y-7073866D02*
X44595238Y-7073866D01*
X44595238Y-7073866D02*
X44690476Y-7026247D01*
X44690476Y-7026247D02*
X44738095Y-6978628D01*
X44738095Y-6978628D02*
X44785714Y-6883390D01*
X47357142Y-7454819D02*
X47023809Y-6978628D01*
X46785714Y-7454819D02*
X46785714Y-6454819D01*
X46785714Y-6454819D02*
X47166666Y-6454819D01*
X47166666Y-6454819D02*
X47261904Y-6502438D01*
X47261904Y-6502438D02*
X47309523Y-6550057D01*
X47309523Y-6550057D02*
X47357142Y-6645295D01*
X47357142Y-6645295D02*
X47357142Y-6788152D01*
X47357142Y-6788152D02*
X47309523Y-6883390D01*
X47309523Y-6883390D02*
X47261904Y-6931009D01*
X47261904Y-6931009D02*
X47166666Y-6978628D01*
X47166666Y-6978628D02*
X46785714Y-6978628D01*
X48309523Y-7454819D02*
X47738095Y-7454819D01*
X48023809Y-7454819D02*
X48023809Y-6454819D01*
X48023809Y-6454819D02*
X47928571Y-6597676D01*
X47928571Y-6597676D02*
X47833333Y-6692914D01*
X47833333Y-6692914D02*
X47738095Y-6740533D01*
X48642857Y-6454819D02*
X49261904Y-6454819D01*
X49261904Y-6454819D02*
X48928571Y-6835771D01*
X48928571Y-6835771D02*
X49071428Y-6835771D01*
X49071428Y-6835771D02*
X49166666Y-6883390D01*
X49166666Y-6883390D02*
X49214285Y-6931009D01*
X49214285Y-6931009D02*
X49261904Y-7026247D01*
X49261904Y-7026247D02*
X49261904Y-7264342D01*
X49261904Y-7264342D02*
X49214285Y-7359580D01*
X49214285Y-7359580D02*
X49166666Y-7407200D01*
X49166666Y-7407200D02*
X49071428Y-7454819D01*
X49071428Y-7454819D02*
X48785714Y-7454819D01*
X48785714Y-7454819D02*
X48690476Y-7407200D01*
X48690476Y-7407200D02*
X48642857Y-7359580D01*
X55341304Y-18808827D02*
X55007971Y-18332636D01*
X54769876Y-18808827D02*
X54769876Y-17808827D01*
X54769876Y-17808827D02*
X55150828Y-17808827D01*
X55150828Y-17808827D02*
X55246066Y-17856446D01*
X55246066Y-17856446D02*
X55293685Y-17904065D01*
X55293685Y-17904065D02*
X55341304Y-17999303D01*
X55341304Y-17999303D02*
X55341304Y-18142160D01*
X55341304Y-18142160D02*
X55293685Y-18237398D01*
X55293685Y-18237398D02*
X55246066Y-18285017D01*
X55246066Y-18285017D02*
X55150828Y-18332636D01*
X55150828Y-18332636D02*
X54769876Y-18332636D01*
X56293685Y-18808827D02*
X55722257Y-18808827D01*
X56007971Y-18808827D02*
X56007971Y-17808827D01*
X56007971Y-17808827D02*
X55912733Y-17951684D01*
X55912733Y-17951684D02*
X55817495Y-18046922D01*
X55817495Y-18046922D02*
X55722257Y-18094541D01*
X56912733Y-17808827D02*
X57007971Y-17808827D01*
X57007971Y-17808827D02*
X57103209Y-17856446D01*
X57103209Y-17856446D02*
X57150828Y-17904065D01*
X57150828Y-17904065D02*
X57198447Y-17999303D01*
X57198447Y-17999303D02*
X57246066Y-18189779D01*
X57246066Y-18189779D02*
X57246066Y-18427874D01*
X57246066Y-18427874D02*
X57198447Y-18618350D01*
X57198447Y-18618350D02*
X57150828Y-18713588D01*
X57150828Y-18713588D02*
X57103209Y-18761208D01*
X57103209Y-18761208D02*
X57007971Y-18808827D01*
X57007971Y-18808827D02*
X56912733Y-18808827D01*
X56912733Y-18808827D02*
X56817495Y-18761208D01*
X56817495Y-18761208D02*
X56769876Y-18713588D01*
X56769876Y-18713588D02*
X56722257Y-18618350D01*
X56722257Y-18618350D02*
X56674638Y-18427874D01*
X56674638Y-18427874D02*
X56674638Y-18189779D01*
X56674638Y-18189779D02*
X56722257Y-17999303D01*
X56722257Y-17999303D02*
X56769876Y-17904065D01*
X56769876Y-17904065D02*
X56817495Y-17856446D01*
X56817495Y-17856446D02*
X56912733Y-17808827D01*
X24666667Y-35017200D02*
X24809524Y-35064819D01*
X24809524Y-35064819D02*
X25047619Y-35064819D01*
X25047619Y-35064819D02*
X25142857Y-35017200D01*
X25142857Y-35017200D02*
X25190476Y-34969580D01*
X25190476Y-34969580D02*
X25238095Y-34874342D01*
X25238095Y-34874342D02*
X25238095Y-34779104D01*
X25238095Y-34779104D02*
X25190476Y-34683866D01*
X25190476Y-34683866D02*
X25142857Y-34636247D01*
X25142857Y-34636247D02*
X25047619Y-34588628D01*
X25047619Y-34588628D02*
X24857143Y-34541009D01*
X24857143Y-34541009D02*
X24761905Y-34493390D01*
X24761905Y-34493390D02*
X24714286Y-34445771D01*
X24714286Y-34445771D02*
X24666667Y-34350533D01*
X24666667Y-34350533D02*
X24666667Y-34255295D01*
X24666667Y-34255295D02*
X24714286Y-34160057D01*
X24714286Y-34160057D02*
X24761905Y-34112438D01*
X24761905Y-34112438D02*
X24857143Y-34064819D01*
X24857143Y-34064819D02*
X25095238Y-34064819D01*
X25095238Y-34064819D02*
X25238095Y-34112438D01*
X25571429Y-34064819D02*
X25809524Y-35064819D01*
X25809524Y-35064819D02*
X26000000Y-34350533D01*
X26000000Y-34350533D02*
X26190476Y-35064819D01*
X26190476Y-35064819D02*
X26428572Y-34064819D01*
X26761905Y-34160057D02*
X26809524Y-34112438D01*
X26809524Y-34112438D02*
X26904762Y-34064819D01*
X26904762Y-34064819D02*
X27142857Y-34064819D01*
X27142857Y-34064819D02*
X27238095Y-34112438D01*
X27238095Y-34112438D02*
X27285714Y-34160057D01*
X27285714Y-34160057D02*
X27333333Y-34255295D01*
X27333333Y-34255295D02*
X27333333Y-34350533D01*
X27333333Y-34350533D02*
X27285714Y-34493390D01*
X27285714Y-34493390D02*
X26714286Y-35064819D01*
X26714286Y-35064819D02*
X27333333Y-35064819D01*
X61389483Y-25035273D02*
X61341864Y-25082893D01*
X61341864Y-25082893D02*
X61199007Y-25130512D01*
X61199007Y-25130512D02*
X61103769Y-25130512D01*
X61103769Y-25130512D02*
X60960912Y-25082893D01*
X60960912Y-25082893D02*
X60865674Y-24987654D01*
X60865674Y-24987654D02*
X60818055Y-24892416D01*
X60818055Y-24892416D02*
X60770436Y-24701940D01*
X60770436Y-24701940D02*
X60770436Y-24559083D01*
X60770436Y-24559083D02*
X60818055Y-24368607D01*
X60818055Y-24368607D02*
X60865674Y-24273369D01*
X60865674Y-24273369D02*
X60960912Y-24178131D01*
X60960912Y-24178131D02*
X61103769Y-24130512D01*
X61103769Y-24130512D02*
X61199007Y-24130512D01*
X61199007Y-24130512D02*
X61341864Y-24178131D01*
X61341864Y-24178131D02*
X61389483Y-24225750D01*
X61960912Y-24559083D02*
X61865674Y-24511464D01*
X61865674Y-24511464D02*
X61818055Y-24463845D01*
X61818055Y-24463845D02*
X61770436Y-24368607D01*
X61770436Y-24368607D02*
X61770436Y-24320988D01*
X61770436Y-24320988D02*
X61818055Y-24225750D01*
X61818055Y-24225750D02*
X61865674Y-24178131D01*
X61865674Y-24178131D02*
X61960912Y-24130512D01*
X61960912Y-24130512D02*
X62151388Y-24130512D01*
X62151388Y-24130512D02*
X62246626Y-24178131D01*
X62246626Y-24178131D02*
X62294245Y-24225750D01*
X62294245Y-24225750D02*
X62341864Y-24320988D01*
X62341864Y-24320988D02*
X62341864Y-24368607D01*
X62341864Y-24368607D02*
X62294245Y-24463845D01*
X62294245Y-24463845D02*
X62246626Y-24511464D01*
X62246626Y-24511464D02*
X62151388Y-24559083D01*
X62151388Y-24559083D02*
X61960912Y-24559083D01*
X61960912Y-24559083D02*
X61865674Y-24606702D01*
X61865674Y-24606702D02*
X61818055Y-24654321D01*
X61818055Y-24654321D02*
X61770436Y-24749559D01*
X61770436Y-24749559D02*
X61770436Y-24940035D01*
X61770436Y-24940035D02*
X61818055Y-25035273D01*
X61818055Y-25035273D02*
X61865674Y-25082893D01*
X61865674Y-25082893D02*
X61960912Y-25130512D01*
X61960912Y-25130512D02*
X62151388Y-25130512D01*
X62151388Y-25130512D02*
X62246626Y-25082893D01*
X62246626Y-25082893D02*
X62294245Y-25035273D01*
X62294245Y-25035273D02*
X62341864Y-24940035D01*
X62341864Y-24940035D02*
X62341864Y-24749559D01*
X62341864Y-24749559D02*
X62294245Y-24654321D01*
X62294245Y-24654321D02*
X62246626Y-24606702D01*
X62246626Y-24606702D02*
X62151388Y-24559083D01*
X59472003Y-18757923D02*
X59138670Y-18281732D01*
X58900575Y-18757923D02*
X58900575Y-17757923D01*
X58900575Y-17757923D02*
X59281527Y-17757923D01*
X59281527Y-17757923D02*
X59376765Y-17805542D01*
X59376765Y-17805542D02*
X59424384Y-17853161D01*
X59424384Y-17853161D02*
X59472003Y-17948399D01*
X59472003Y-17948399D02*
X59472003Y-18091256D01*
X59472003Y-18091256D02*
X59424384Y-18186494D01*
X59424384Y-18186494D02*
X59376765Y-18234113D01*
X59376765Y-18234113D02*
X59281527Y-18281732D01*
X59281527Y-18281732D02*
X58900575Y-18281732D01*
X59948194Y-18757923D02*
X60138670Y-18757923D01*
X60138670Y-18757923D02*
X60233908Y-18710304D01*
X60233908Y-18710304D02*
X60281527Y-18662684D01*
X60281527Y-18662684D02*
X60376765Y-18519827D01*
X60376765Y-18519827D02*
X60424384Y-18329351D01*
X60424384Y-18329351D02*
X60424384Y-17948399D01*
X60424384Y-17948399D02*
X60376765Y-17853161D01*
X60376765Y-17853161D02*
X60329146Y-17805542D01*
X60329146Y-17805542D02*
X60233908Y-17757923D01*
X60233908Y-17757923D02*
X60043432Y-17757923D01*
X60043432Y-17757923D02*
X59948194Y-17805542D01*
X59948194Y-17805542D02*
X59900575Y-17853161D01*
X59900575Y-17853161D02*
X59852956Y-17948399D01*
X59852956Y-17948399D02*
X59852956Y-18186494D01*
X59852956Y-18186494D02*
X59900575Y-18281732D01*
X59900575Y-18281732D02*
X59948194Y-18329351D01*
X59948194Y-18329351D02*
X60043432Y-18376970D01*
X60043432Y-18376970D02*
X60233908Y-18376970D01*
X60233908Y-18376970D02*
X60329146Y-18329351D01*
X60329146Y-18329351D02*
X60376765Y-18281732D01*
X60376765Y-18281732D02*
X60424384Y-18186494D01*
X27859580Y-21642857D02*
X27907200Y-21690476D01*
X27907200Y-21690476D02*
X27954819Y-21833333D01*
X27954819Y-21833333D02*
X27954819Y-21928571D01*
X27954819Y-21928571D02*
X27907200Y-22071428D01*
X27907200Y-22071428D02*
X27811961Y-22166666D01*
X27811961Y-22166666D02*
X27716723Y-22214285D01*
X27716723Y-22214285D02*
X27526247Y-22261904D01*
X27526247Y-22261904D02*
X27383390Y-22261904D01*
X27383390Y-22261904D02*
X27192914Y-22214285D01*
X27192914Y-22214285D02*
X27097676Y-22166666D01*
X27097676Y-22166666D02*
X27002438Y-22071428D01*
X27002438Y-22071428D02*
X26954819Y-21928571D01*
X26954819Y-21928571D02*
X26954819Y-21833333D01*
X26954819Y-21833333D02*
X27002438Y-21690476D01*
X27002438Y-21690476D02*
X27050057Y-21642857D01*
X27954819Y-20690476D02*
X27954819Y-21261904D01*
X27954819Y-20976190D02*
X26954819Y-20976190D01*
X26954819Y-20976190D02*
X27097676Y-21071428D01*
X27097676Y-21071428D02*
X27192914Y-21166666D01*
X27192914Y-21166666D02*
X27240533Y-21261904D01*
X27288152Y-19833333D02*
X27954819Y-19833333D01*
X26907200Y-20071428D02*
X27621485Y-20309523D01*
X27621485Y-20309523D02*
X27621485Y-19690476D01*
X30238095Y-29954819D02*
X30238095Y-30764342D01*
X30238095Y-30764342D02*
X30285714Y-30859580D01*
X30285714Y-30859580D02*
X30333333Y-30907200D01*
X30333333Y-30907200D02*
X30428571Y-30954819D01*
X30428571Y-30954819D02*
X30619047Y-30954819D01*
X30619047Y-30954819D02*
X30714285Y-30907200D01*
X30714285Y-30907200D02*
X30761904Y-30859580D01*
X30761904Y-30859580D02*
X30809523Y-30764342D01*
X30809523Y-30764342D02*
X30809523Y-29954819D01*
X31190476Y-29954819D02*
X31809523Y-29954819D01*
X31809523Y-29954819D02*
X31476190Y-30335771D01*
X31476190Y-30335771D02*
X31619047Y-30335771D01*
X31619047Y-30335771D02*
X31714285Y-30383390D01*
X31714285Y-30383390D02*
X31761904Y-30431009D01*
X31761904Y-30431009D02*
X31809523Y-30526247D01*
X31809523Y-30526247D02*
X31809523Y-30764342D01*
X31809523Y-30764342D02*
X31761904Y-30859580D01*
X31761904Y-30859580D02*
X31714285Y-30907200D01*
X31714285Y-30907200D02*
X31619047Y-30954819D01*
X31619047Y-30954819D02*
X31333333Y-30954819D01*
X31333333Y-30954819D02*
X31238095Y-30907200D01*
X31238095Y-30907200D02*
X31190476Y-30859580D01*
X4166666Y-35954819D02*
X4166666Y-36669104D01*
X4166666Y-36669104D02*
X4119047Y-36811961D01*
X4119047Y-36811961D02*
X4023809Y-36907200D01*
X4023809Y-36907200D02*
X3880952Y-36954819D01*
X3880952Y-36954819D02*
X3785714Y-36954819D01*
X4547619Y-35954819D02*
X5166666Y-35954819D01*
X5166666Y-35954819D02*
X4833333Y-36335771D01*
X4833333Y-36335771D02*
X4976190Y-36335771D01*
X4976190Y-36335771D02*
X5071428Y-36383390D01*
X5071428Y-36383390D02*
X5119047Y-36431009D01*
X5119047Y-36431009D02*
X5166666Y-36526247D01*
X5166666Y-36526247D02*
X5166666Y-36764342D01*
X5166666Y-36764342D02*
X5119047Y-36859580D01*
X5119047Y-36859580D02*
X5071428Y-36907200D01*
X5071428Y-36907200D02*
X4976190Y-36954819D01*
X4976190Y-36954819D02*
X4690476Y-36954819D01*
X4690476Y-36954819D02*
X4595238Y-36907200D01*
X4595238Y-36907200D02*
X4547619Y-36859580D01*
X65166666Y-9454819D02*
X65166666Y-10169104D01*
X65166666Y-10169104D02*
X65119047Y-10311961D01*
X65119047Y-10311961D02*
X65023809Y-10407200D01*
X65023809Y-10407200D02*
X64880952Y-10454819D01*
X64880952Y-10454819D02*
X64785714Y-10454819D01*
X66166666Y-10454819D02*
X65595238Y-10454819D01*
X65880952Y-10454819D02*
X65880952Y-9454819D01*
X65880952Y-9454819D02*
X65785714Y-9597676D01*
X65785714Y-9597676D02*
X65690476Y-9692914D01*
X65690476Y-9692914D02*
X65595238Y-9740533D01*
X84550057Y-29595238D02*
X84502438Y-29690476D01*
X84502438Y-29690476D02*
X84407200Y-29785714D01*
X84407200Y-29785714D02*
X84264342Y-29928571D01*
X84264342Y-29928571D02*
X84216723Y-30023809D01*
X84216723Y-30023809D02*
X84216723Y-30119047D01*
X84454819Y-30071428D02*
X84407200Y-30166666D01*
X84407200Y-30166666D02*
X84311961Y-30261904D01*
X84311961Y-30261904D02*
X84121485Y-30309523D01*
X84121485Y-30309523D02*
X83788152Y-30309523D01*
X83788152Y-30309523D02*
X83597676Y-30261904D01*
X83597676Y-30261904D02*
X83502438Y-30166666D01*
X83502438Y-30166666D02*
X83454819Y-30071428D01*
X83454819Y-30071428D02*
X83454819Y-29880952D01*
X83454819Y-29880952D02*
X83502438Y-29785714D01*
X83502438Y-29785714D02*
X83597676Y-29690476D01*
X83597676Y-29690476D02*
X83788152Y-29642857D01*
X83788152Y-29642857D02*
X84121485Y-29642857D01*
X84121485Y-29642857D02*
X84311961Y-29690476D01*
X84311961Y-29690476D02*
X84407200Y-29785714D01*
X84407200Y-29785714D02*
X84454819Y-29880952D01*
X84454819Y-29880952D02*
X84454819Y-30071428D01*
X83454819Y-29309523D02*
X83454819Y-28642857D01*
X83454819Y-28642857D02*
X84454819Y-29071428D01*
X13395833Y-25954819D02*
X12919643Y-25954819D01*
X12919643Y-25954819D02*
X12919643Y-24954819D01*
X14252976Y-25954819D02*
X13681548Y-25954819D01*
X13967262Y-25954819D02*
X13967262Y-24954819D01*
X13967262Y-24954819D02*
X13872024Y-25097676D01*
X13872024Y-25097676D02*
X13776786Y-25192914D01*
X13776786Y-25192914D02*
X13681548Y-25240533D01*
X72833333Y-28283569D02*
X72500000Y-27807378D01*
X72261905Y-28283569D02*
X72261905Y-27283569D01*
X72261905Y-27283569D02*
X72642857Y-27283569D01*
X72642857Y-27283569D02*
X72738095Y-27331188D01*
X72738095Y-27331188D02*
X72785714Y-27378807D01*
X72785714Y-27378807D02*
X72833333Y-27474045D01*
X72833333Y-27474045D02*
X72833333Y-27616902D01*
X72833333Y-27616902D02*
X72785714Y-27712140D01*
X72785714Y-27712140D02*
X72738095Y-27759759D01*
X72738095Y-27759759D02*
X72642857Y-27807378D01*
X72642857Y-27807378D02*
X72261905Y-27807378D01*
X73214286Y-27378807D02*
X73261905Y-27331188D01*
X73261905Y-27331188D02*
X73357143Y-27283569D01*
X73357143Y-27283569D02*
X73595238Y-27283569D01*
X73595238Y-27283569D02*
X73690476Y-27331188D01*
X73690476Y-27331188D02*
X73738095Y-27378807D01*
X73738095Y-27378807D02*
X73785714Y-27474045D01*
X73785714Y-27474045D02*
X73785714Y-27569283D01*
X73785714Y-27569283D02*
X73738095Y-27712140D01*
X73738095Y-27712140D02*
X73166667Y-28283569D01*
X73166667Y-28283569D02*
X73785714Y-28283569D01*
X5895833Y-26009580D02*
X5848214Y-26057200D01*
X5848214Y-26057200D02*
X5705357Y-26104819D01*
X5705357Y-26104819D02*
X5610119Y-26104819D01*
X5610119Y-26104819D02*
X5467262Y-26057200D01*
X5467262Y-26057200D02*
X5372024Y-25961961D01*
X5372024Y-25961961D02*
X5324405Y-25866723D01*
X5324405Y-25866723D02*
X5276786Y-25676247D01*
X5276786Y-25676247D02*
X5276786Y-25533390D01*
X5276786Y-25533390D02*
X5324405Y-25342914D01*
X5324405Y-25342914D02*
X5372024Y-25247676D01*
X5372024Y-25247676D02*
X5467262Y-25152438D01*
X5467262Y-25152438D02*
X5610119Y-25104819D01*
X5610119Y-25104819D02*
X5705357Y-25104819D01*
X5705357Y-25104819D02*
X5848214Y-25152438D01*
X5848214Y-25152438D02*
X5895833Y-25200057D01*
X6229167Y-25104819D02*
X6848214Y-25104819D01*
X6848214Y-25104819D02*
X6514881Y-25485771D01*
X6514881Y-25485771D02*
X6657738Y-25485771D01*
X6657738Y-25485771D02*
X6752976Y-25533390D01*
X6752976Y-25533390D02*
X6800595Y-25581009D01*
X6800595Y-25581009D02*
X6848214Y-25676247D01*
X6848214Y-25676247D02*
X6848214Y-25914342D01*
X6848214Y-25914342D02*
X6800595Y-26009580D01*
X6800595Y-26009580D02*
X6752976Y-26057200D01*
X6752976Y-26057200D02*
X6657738Y-26104819D01*
X6657738Y-26104819D02*
X6372024Y-26104819D01*
X6372024Y-26104819D02*
X6276786Y-26057200D01*
X6276786Y-26057200D02*
X6229167Y-26009580D01*
X2454819Y-19324404D02*
X3264342Y-19324404D01*
X3264342Y-19324404D02*
X3359580Y-19276785D01*
X3359580Y-19276785D02*
X3407200Y-19229166D01*
X3407200Y-19229166D02*
X3454819Y-19133928D01*
X3454819Y-19133928D02*
X3454819Y-18943452D01*
X3454819Y-18943452D02*
X3407200Y-18848214D01*
X3407200Y-18848214D02*
X3359580Y-18800595D01*
X3359580Y-18800595D02*
X3264342Y-18752976D01*
X3264342Y-18752976D02*
X2454819Y-18752976D01*
X2550057Y-18324404D02*
X2502438Y-18276785D01*
X2502438Y-18276785D02*
X2454819Y-18181547D01*
X2454819Y-18181547D02*
X2454819Y-17943452D01*
X2454819Y-17943452D02*
X2502438Y-17848214D01*
X2502438Y-17848214D02*
X2550057Y-17800595D01*
X2550057Y-17800595D02*
X2645295Y-17752976D01*
X2645295Y-17752976D02*
X2740533Y-17752976D01*
X2740533Y-17752976D02*
X2883390Y-17800595D01*
X2883390Y-17800595D02*
X3454819Y-18372023D01*
X3454819Y-18372023D02*
X3454819Y-17752976D01*
X9833333Y-14422080D02*
X9785714Y-14469700D01*
X9785714Y-14469700D02*
X9642857Y-14517319D01*
X9642857Y-14517319D02*
X9547619Y-14517319D01*
X9547619Y-14517319D02*
X9404762Y-14469700D01*
X9404762Y-14469700D02*
X9309524Y-14374461D01*
X9309524Y-14374461D02*
X9261905Y-14279223D01*
X9261905Y-14279223D02*
X9214286Y-14088747D01*
X9214286Y-14088747D02*
X9214286Y-13945890D01*
X9214286Y-13945890D02*
X9261905Y-13755414D01*
X9261905Y-13755414D02*
X9309524Y-13660176D01*
X9309524Y-13660176D02*
X9404762Y-13564938D01*
X9404762Y-13564938D02*
X9547619Y-13517319D01*
X9547619Y-13517319D02*
X9642857Y-13517319D01*
X9642857Y-13517319D02*
X9785714Y-13564938D01*
X9785714Y-13564938D02*
X9833333Y-13612557D01*
X10738095Y-13517319D02*
X10261905Y-13517319D01*
X10261905Y-13517319D02*
X10214286Y-13993509D01*
X10214286Y-13993509D02*
X10261905Y-13945890D01*
X10261905Y-13945890D02*
X10357143Y-13898271D01*
X10357143Y-13898271D02*
X10595238Y-13898271D01*
X10595238Y-13898271D02*
X10690476Y-13945890D01*
X10690476Y-13945890D02*
X10738095Y-13993509D01*
X10738095Y-13993509D02*
X10785714Y-14088747D01*
X10785714Y-14088747D02*
X10785714Y-14326842D01*
X10785714Y-14326842D02*
X10738095Y-14422080D01*
X10738095Y-14422080D02*
X10690476Y-14469700D01*
X10690476Y-14469700D02*
X10595238Y-14517319D01*
X10595238Y-14517319D02*
X10357143Y-14517319D01*
X10357143Y-14517319D02*
X10261905Y-14469700D01*
X10261905Y-14469700D02*
X10214286Y-14422080D01*
X9833333Y-33859580D02*
X9785714Y-33907200D01*
X9785714Y-33907200D02*
X9642857Y-33954819D01*
X9642857Y-33954819D02*
X9547619Y-33954819D01*
X9547619Y-33954819D02*
X9404762Y-33907200D01*
X9404762Y-33907200D02*
X9309524Y-33811961D01*
X9309524Y-33811961D02*
X9261905Y-33716723D01*
X9261905Y-33716723D02*
X9214286Y-33526247D01*
X9214286Y-33526247D02*
X9214286Y-33383390D01*
X9214286Y-33383390D02*
X9261905Y-33192914D01*
X9261905Y-33192914D02*
X9309524Y-33097676D01*
X9309524Y-33097676D02*
X9404762Y-33002438D01*
X9404762Y-33002438D02*
X9547619Y-32954819D01*
X9547619Y-32954819D02*
X9642857Y-32954819D01*
X9642857Y-32954819D02*
X9785714Y-33002438D01*
X9785714Y-33002438D02*
X9833333Y-33050057D01*
X10785714Y-33954819D02*
X10214286Y-33954819D01*
X10500000Y-33954819D02*
X10500000Y-32954819D01*
X10500000Y-32954819D02*
X10404762Y-33097676D01*
X10404762Y-33097676D02*
X10309524Y-33192914D01*
X10309524Y-33192914D02*
X10214286Y-33240533D01*
X5833333Y-13572080D02*
X5785714Y-13619700D01*
X5785714Y-13619700D02*
X5642857Y-13667319D01*
X5642857Y-13667319D02*
X5547619Y-13667319D01*
X5547619Y-13667319D02*
X5404762Y-13619700D01*
X5404762Y-13619700D02*
X5309524Y-13524461D01*
X5309524Y-13524461D02*
X5261905Y-13429223D01*
X5261905Y-13429223D02*
X5214286Y-13238747D01*
X5214286Y-13238747D02*
X5214286Y-13095890D01*
X5214286Y-13095890D02*
X5261905Y-12905414D01*
X5261905Y-12905414D02*
X5309524Y-12810176D01*
X5309524Y-12810176D02*
X5404762Y-12714938D01*
X5404762Y-12714938D02*
X5547619Y-12667319D01*
X5547619Y-12667319D02*
X5642857Y-12667319D01*
X5642857Y-12667319D02*
X5785714Y-12714938D01*
X5785714Y-12714938D02*
X5833333Y-12762557D01*
X6690476Y-12667319D02*
X6500000Y-12667319D01*
X6500000Y-12667319D02*
X6404762Y-12714938D01*
X6404762Y-12714938D02*
X6357143Y-12762557D01*
X6357143Y-12762557D02*
X6261905Y-12905414D01*
X6261905Y-12905414D02*
X6214286Y-13095890D01*
X6214286Y-13095890D02*
X6214286Y-13476842D01*
X6214286Y-13476842D02*
X6261905Y-13572080D01*
X6261905Y-13572080D02*
X6309524Y-13619700D01*
X6309524Y-13619700D02*
X6404762Y-13667319D01*
X6404762Y-13667319D02*
X6595238Y-13667319D01*
X6595238Y-13667319D02*
X6690476Y-13619700D01*
X6690476Y-13619700D02*
X6738095Y-13572080D01*
X6738095Y-13572080D02*
X6785714Y-13476842D01*
X6785714Y-13476842D02*
X6785714Y-13238747D01*
X6785714Y-13238747D02*
X6738095Y-13143509D01*
X6738095Y-13143509D02*
X6690476Y-13095890D01*
X6690476Y-13095890D02*
X6595238Y-13048271D01*
X6595238Y-13048271D02*
X6404762Y-13048271D01*
X6404762Y-13048271D02*
X6309524Y-13095890D01*
X6309524Y-13095890D02*
X6261905Y-13143509D01*
X6261905Y-13143509D02*
X6214286Y-13238747D01*
X85550057Y-25595238D02*
X85502438Y-25690476D01*
X85502438Y-25690476D02*
X85407200Y-25785714D01*
X85407200Y-25785714D02*
X85264342Y-25928571D01*
X85264342Y-25928571D02*
X85216723Y-26023809D01*
X85216723Y-26023809D02*
X85216723Y-26119047D01*
X85454819Y-26071428D02*
X85407200Y-26166666D01*
X85407200Y-26166666D02*
X85311961Y-26261904D01*
X85311961Y-26261904D02*
X85121485Y-26309523D01*
X85121485Y-26309523D02*
X84788152Y-26309523D01*
X84788152Y-26309523D02*
X84597676Y-26261904D01*
X84597676Y-26261904D02*
X84502438Y-26166666D01*
X84502438Y-26166666D02*
X84454819Y-26071428D01*
X84454819Y-26071428D02*
X84454819Y-25880952D01*
X84454819Y-25880952D02*
X84502438Y-25785714D01*
X84502438Y-25785714D02*
X84597676Y-25690476D01*
X84597676Y-25690476D02*
X84788152Y-25642857D01*
X84788152Y-25642857D02*
X85121485Y-25642857D01*
X85121485Y-25642857D02*
X85311961Y-25690476D01*
X85311961Y-25690476D02*
X85407200Y-25785714D01*
X85407200Y-25785714D02*
X85454819Y-25880952D01*
X85454819Y-25880952D02*
X85454819Y-26071428D01*
X85454819Y-24690476D02*
X85454819Y-25261904D01*
X85454819Y-24976190D02*
X84454819Y-24976190D01*
X84454819Y-24976190D02*
X84597676Y-25071428D01*
X84597676Y-25071428D02*
X84692914Y-25166666D01*
X84692914Y-25166666D02*
X84740533Y-25261904D01*
X9694984Y-21943246D02*
X9647365Y-21990866D01*
X9647365Y-21990866D02*
X9504508Y-22038485D01*
X9504508Y-22038485D02*
X9409270Y-22038485D01*
X9409270Y-22038485D02*
X9266413Y-21990866D01*
X9266413Y-21990866D02*
X9171175Y-21895627D01*
X9171175Y-21895627D02*
X9123556Y-21800389D01*
X9123556Y-21800389D02*
X9075937Y-21609913D01*
X9075937Y-21609913D02*
X9075937Y-21467056D01*
X9075937Y-21467056D02*
X9123556Y-21276580D01*
X9123556Y-21276580D02*
X9171175Y-21181342D01*
X9171175Y-21181342D02*
X9266413Y-21086104D01*
X9266413Y-21086104D02*
X9409270Y-21038485D01*
X9409270Y-21038485D02*
X9504508Y-21038485D01*
X9504508Y-21038485D02*
X9647365Y-21086104D01*
X9647365Y-21086104D02*
X9694984Y-21133723D01*
X10552127Y-21371818D02*
X10552127Y-22038485D01*
X10314032Y-20990866D02*
X10075937Y-21705151D01*
X10075937Y-21705151D02*
X10694984Y-21705151D01*
X85050057Y-15705238D02*
X85002438Y-15800476D01*
X85002438Y-15800476D02*
X84907200Y-15895714D01*
X84907200Y-15895714D02*
X84764342Y-16038571D01*
X84764342Y-16038571D02*
X84716723Y-16133809D01*
X84716723Y-16133809D02*
X84716723Y-16229047D01*
X84954819Y-16181428D02*
X84907200Y-16276666D01*
X84907200Y-16276666D02*
X84811961Y-16371904D01*
X84811961Y-16371904D02*
X84621485Y-16419523D01*
X84621485Y-16419523D02*
X84288152Y-16419523D01*
X84288152Y-16419523D02*
X84097676Y-16371904D01*
X84097676Y-16371904D02*
X84002438Y-16276666D01*
X84002438Y-16276666D02*
X83954819Y-16181428D01*
X83954819Y-16181428D02*
X83954819Y-15990952D01*
X83954819Y-15990952D02*
X84002438Y-15895714D01*
X84002438Y-15895714D02*
X84097676Y-15800476D01*
X84097676Y-15800476D02*
X84288152Y-15752857D01*
X84288152Y-15752857D02*
X84621485Y-15752857D01*
X84621485Y-15752857D02*
X84811961Y-15800476D01*
X84811961Y-15800476D02*
X84907200Y-15895714D01*
X84907200Y-15895714D02*
X84954819Y-15990952D01*
X84954819Y-15990952D02*
X84954819Y-16181428D01*
X84288152Y-14895714D02*
X84954819Y-14895714D01*
X83907200Y-15133809D02*
X84621485Y-15371904D01*
X84621485Y-15371904D02*
X84621485Y-14752857D01*
X3017319Y-31261904D02*
X3826842Y-31261904D01*
X3826842Y-31261904D02*
X3922080Y-31214285D01*
X3922080Y-31214285D02*
X3969700Y-31166666D01*
X3969700Y-31166666D02*
X4017319Y-31071428D01*
X4017319Y-31071428D02*
X4017319Y-30880952D01*
X4017319Y-30880952D02*
X3969700Y-30785714D01*
X3969700Y-30785714D02*
X3922080Y-30738095D01*
X3922080Y-30738095D02*
X3826842Y-30690476D01*
X3826842Y-30690476D02*
X3017319Y-30690476D01*
X4017319Y-29690476D02*
X4017319Y-30261904D01*
X4017319Y-29976190D02*
X3017319Y-29976190D01*
X3017319Y-29976190D02*
X3160176Y-30071428D01*
X3160176Y-30071428D02*
X3255414Y-30166666D01*
X3255414Y-30166666D02*
X3303033Y-30261904D01*
X12833333Y-14517319D02*
X12357143Y-14517319D01*
X12357143Y-14517319D02*
X12357143Y-13517319D01*
X13119048Y-13612557D02*
X13166667Y-13564938D01*
X13166667Y-13564938D02*
X13261905Y-13517319D01*
X13261905Y-13517319D02*
X13500000Y-13517319D01*
X13500000Y-13517319D02*
X13595238Y-13564938D01*
X13595238Y-13564938D02*
X13642857Y-13612557D01*
X13642857Y-13612557D02*
X13690476Y-13707795D01*
X13690476Y-13707795D02*
X13690476Y-13803033D01*
X13690476Y-13803033D02*
X13642857Y-13945890D01*
X13642857Y-13945890D02*
X13071429Y-14517319D01*
X13071429Y-14517319D02*
X13690476Y-14517319D01*
X82954819Y-27666666D02*
X82478628Y-27999999D01*
X82954819Y-28238094D02*
X81954819Y-28238094D01*
X81954819Y-28238094D02*
X81954819Y-27857142D01*
X81954819Y-27857142D02*
X82002438Y-27761904D01*
X82002438Y-27761904D02*
X82050057Y-27714285D01*
X82050057Y-27714285D02*
X82145295Y-27666666D01*
X82145295Y-27666666D02*
X82288152Y-27666666D01*
X82288152Y-27666666D02*
X82383390Y-27714285D01*
X82383390Y-27714285D02*
X82431009Y-27761904D01*
X82431009Y-27761904D02*
X82478628Y-27857142D01*
X82478628Y-27857142D02*
X82478628Y-28238094D01*
X81954819Y-27333332D02*
X81954819Y-26714285D01*
X81954819Y-26714285D02*
X82335771Y-27047618D01*
X82335771Y-27047618D02*
X82335771Y-26904761D01*
X82335771Y-26904761D02*
X82383390Y-26809523D01*
X82383390Y-26809523D02*
X82431009Y-26761904D01*
X82431009Y-26761904D02*
X82526247Y-26714285D01*
X82526247Y-26714285D02*
X82764342Y-26714285D01*
X82764342Y-26714285D02*
X82859580Y-26761904D01*
X82859580Y-26761904D02*
X82907200Y-26809523D01*
X82907200Y-26809523D02*
X82954819Y-26904761D01*
X82954819Y-26904761D02*
X82954819Y-27190475D01*
X82954819Y-27190475D02*
X82907200Y-27285713D01*
X82907200Y-27285713D02*
X82859580Y-27333332D01*
X10395833Y-25859580D02*
X10348214Y-25907200D01*
X10348214Y-25907200D02*
X10205357Y-25954819D01*
X10205357Y-25954819D02*
X10110119Y-25954819D01*
X10110119Y-25954819D02*
X9967262Y-25907200D01*
X9967262Y-25907200D02*
X9872024Y-25811961D01*
X9872024Y-25811961D02*
X9824405Y-25716723D01*
X9824405Y-25716723D02*
X9776786Y-25526247D01*
X9776786Y-25526247D02*
X9776786Y-25383390D01*
X9776786Y-25383390D02*
X9824405Y-25192914D01*
X9824405Y-25192914D02*
X9872024Y-25097676D01*
X9872024Y-25097676D02*
X9967262Y-25002438D01*
X9967262Y-25002438D02*
X10110119Y-24954819D01*
X10110119Y-24954819D02*
X10205357Y-24954819D01*
X10205357Y-24954819D02*
X10348214Y-25002438D01*
X10348214Y-25002438D02*
X10395833Y-25050057D01*
X10776786Y-25050057D02*
X10824405Y-25002438D01*
X10824405Y-25002438D02*
X10919643Y-24954819D01*
X10919643Y-24954819D02*
X11157738Y-24954819D01*
X11157738Y-24954819D02*
X11252976Y-25002438D01*
X11252976Y-25002438D02*
X11300595Y-25050057D01*
X11300595Y-25050057D02*
X11348214Y-25145295D01*
X11348214Y-25145295D02*
X11348214Y-25240533D01*
X11348214Y-25240533D02*
X11300595Y-25383390D01*
X11300595Y-25383390D02*
X10729167Y-25954819D01*
X10729167Y-25954819D02*
X11348214Y-25954819D01*
X984863Y-33141151D02*
X651530Y-32664960D01*
X413435Y-33141151D02*
X413435Y-32141151D01*
X413435Y-32141151D02*
X794387Y-32141151D01*
X794387Y-32141151D02*
X889625Y-32188770D01*
X889625Y-32188770D02*
X937244Y-32236389D01*
X937244Y-32236389D02*
X984863Y-32331627D01*
X984863Y-32331627D02*
X984863Y-32474484D01*
X984863Y-32474484D02*
X937244Y-32569722D01*
X937244Y-32569722D02*
X889625Y-32617341D01*
X889625Y-32617341D02*
X794387Y-32664960D01*
X794387Y-32664960D02*
X413435Y-32664960D01*
X1937244Y-33141151D02*
X1365816Y-33141151D01*
X1651530Y-33141151D02*
X1651530Y-32141151D01*
X1651530Y-32141151D02*
X1556292Y-32284008D01*
X1556292Y-32284008D02*
X1461054Y-32379246D01*
X1461054Y-32379246D02*
X1365816Y-32426865D01*
X2889625Y-33141151D02*
X2318197Y-33141151D01*
X2603911Y-33141151D02*
X2603911Y-32141151D01*
X2603911Y-32141151D02*
X2508673Y-32284008D01*
X2508673Y-32284008D02*
X2413435Y-32379246D01*
X2413435Y-32379246D02*
X2318197Y-32426865D01*
X78433333Y-37113569D02*
X78100000Y-36637378D01*
X77861905Y-37113569D02*
X77861905Y-36113569D01*
X77861905Y-36113569D02*
X78242857Y-36113569D01*
X78242857Y-36113569D02*
X78338095Y-36161188D01*
X78338095Y-36161188D02*
X78385714Y-36208807D01*
X78385714Y-36208807D02*
X78433333Y-36304045D01*
X78433333Y-36304045D02*
X78433333Y-36446902D01*
X78433333Y-36446902D02*
X78385714Y-36542140D01*
X78385714Y-36542140D02*
X78338095Y-36589759D01*
X78338095Y-36589759D02*
X78242857Y-36637378D01*
X78242857Y-36637378D02*
X77861905Y-36637378D01*
X78766667Y-36113569D02*
X79433333Y-36113569D01*
X79433333Y-36113569D02*
X79004762Y-37113569D01*
X69833333Y-28283569D02*
X69500000Y-27807378D01*
X69261905Y-28283569D02*
X69261905Y-27283569D01*
X69261905Y-27283569D02*
X69642857Y-27283569D01*
X69642857Y-27283569D02*
X69738095Y-27331188D01*
X69738095Y-27331188D02*
X69785714Y-27378807D01*
X69785714Y-27378807D02*
X69833333Y-27474045D01*
X69833333Y-27474045D02*
X69833333Y-27616902D01*
X69833333Y-27616902D02*
X69785714Y-27712140D01*
X69785714Y-27712140D02*
X69738095Y-27759759D01*
X69738095Y-27759759D02*
X69642857Y-27807378D01*
X69642857Y-27807378D02*
X69261905Y-27807378D01*
X70785714Y-28283569D02*
X70214286Y-28283569D01*
X70500000Y-28283569D02*
X70500000Y-27283569D01*
X70500000Y-27283569D02*
X70404762Y-27426426D01*
X70404762Y-27426426D02*
X70309524Y-27521664D01*
X70309524Y-27521664D02*
X70214286Y-27569283D01*
X76050057Y-28095238D02*
X76002438Y-28190476D01*
X76002438Y-28190476D02*
X75907200Y-28285714D01*
X75907200Y-28285714D02*
X75764342Y-28428571D01*
X75764342Y-28428571D02*
X75716723Y-28523809D01*
X75716723Y-28523809D02*
X75716723Y-28619047D01*
X75954819Y-28571428D02*
X75907200Y-28666666D01*
X75907200Y-28666666D02*
X75811961Y-28761904D01*
X75811961Y-28761904D02*
X75621485Y-28809523D01*
X75621485Y-28809523D02*
X75288152Y-28809523D01*
X75288152Y-28809523D02*
X75097676Y-28761904D01*
X75097676Y-28761904D02*
X75002438Y-28666666D01*
X75002438Y-28666666D02*
X74954819Y-28571428D01*
X74954819Y-28571428D02*
X74954819Y-28380952D01*
X74954819Y-28380952D02*
X75002438Y-28285714D01*
X75002438Y-28285714D02*
X75097676Y-28190476D01*
X75097676Y-28190476D02*
X75288152Y-28142857D01*
X75288152Y-28142857D02*
X75621485Y-28142857D01*
X75621485Y-28142857D02*
X75811961Y-28190476D01*
X75811961Y-28190476D02*
X75907200Y-28285714D01*
X75907200Y-28285714D02*
X75954819Y-28380952D01*
X75954819Y-28380952D02*
X75954819Y-28571428D01*
X74954819Y-27238095D02*
X74954819Y-27714285D01*
X74954819Y-27714285D02*
X75431009Y-27761904D01*
X75431009Y-27761904D02*
X75383390Y-27714285D01*
X75383390Y-27714285D02*
X75335771Y-27619047D01*
X75335771Y-27619047D02*
X75335771Y-27380952D01*
X75335771Y-27380952D02*
X75383390Y-27285714D01*
X75383390Y-27285714D02*
X75431009Y-27238095D01*
X75431009Y-27238095D02*
X75526247Y-27190476D01*
X75526247Y-27190476D02*
X75764342Y-27190476D01*
X75764342Y-27190476D02*
X75859580Y-27238095D01*
X75859580Y-27238095D02*
X75907200Y-27285714D01*
X75907200Y-27285714D02*
X75954819Y-27380952D01*
X75954819Y-27380952D02*
X75954819Y-27619047D01*
X75954819Y-27619047D02*
X75907200Y-27714285D01*
X75907200Y-27714285D02*
X75859580Y-27761904D01*
X-45180Y-23261904D02*
X764342Y-23261904D01*
X764342Y-23261904D02*
X859580Y-23214285D01*
X859580Y-23214285D02*
X907200Y-23166666D01*
X907200Y-23166666D02*
X954819Y-23071428D01*
X954819Y-23071428D02*
X954819Y-22880952D01*
X954819Y-22880952D02*
X907200Y-22785714D01*
X907200Y-22785714D02*
X859580Y-22738095D01*
X859580Y-22738095D02*
X764342Y-22690476D01*
X764342Y-22690476D02*
X-45180Y-22690476D01*
X288152Y-21785714D02*
X954819Y-21785714D01*
X-92800Y-22023809D02*
X621485Y-22261904D01*
X621485Y-22261904D02*
X621485Y-21642857D01*
D12*
%TO.C,Q6*%
X93527500Y-32840000D02*
X93047500Y-32840000D01*
X93287500Y-32510000D01*
X93527500Y-32840000D01*
G36*
X93527500Y-32840000D02*
G01*
X93047500Y-32840000D01*
X93287500Y-32510000D01*
X93527500Y-32840000D01*
G37*
X92125000Y-29440000D02*
X91475000Y-29440000D01*
X92125000Y-29440000D02*
X92775000Y-29440000D01*
X92125000Y-32560000D02*
X91475000Y-32560000D01*
X92125000Y-32560000D02*
X92775000Y-32560000D01*
%TO.C,R6*%
X89397936Y-33540000D02*
X90852064Y-33540000D01*
X89397936Y-35360000D02*
X90852064Y-35360000D01*
%TO.C,R5*%
X94715000Y-31727064D02*
X94715000Y-30272936D01*
X96535000Y-31727064D02*
X96535000Y-30272936D01*
%TO.C,Q8*%
X88965000Y-32840000D02*
X88485000Y-32840000D01*
X88725000Y-32510000D01*
X88965000Y-32840000D01*
G36*
X88965000Y-32840000D02*
G01*
X88485000Y-32840000D01*
X88725000Y-32510000D01*
X88965000Y-32840000D01*
G37*
X87562500Y-29440000D02*
X86912500Y-29440000D01*
X87562500Y-29440000D02*
X88212500Y-29440000D01*
X87562500Y-32560000D02*
X86912500Y-32560000D01*
X87562500Y-32560000D02*
X88212500Y-32560000D01*
%TO.C,R4*%
X99272936Y-31590000D02*
X100727064Y-31590000D01*
X99272936Y-33410000D02*
X100727064Y-33410000D01*
%TO.C,R8*%
X89897936Y-26590000D02*
X91352064Y-26590000D01*
X89897936Y-28410000D02*
X91352064Y-28410000D01*
%TO.C,Q2*%
X89160000Y-15610000D02*
X89160000Y-5390000D01*
X105030000Y-5390000D02*
X89160000Y-5390000D01*
X105030000Y-7475000D02*
X107470000Y-7475000D01*
X105030000Y-8445000D02*
X107470000Y-8445000D01*
X105030000Y-10015000D02*
X107470000Y-10015000D01*
X105030000Y-10985000D02*
X107470000Y-10985000D01*
X105030000Y-12555000D02*
X107470000Y-12555000D01*
X105030000Y-13525000D02*
X107470000Y-13525000D01*
X105030000Y-15610000D02*
X89160000Y-15610000D01*
X105030000Y-15610000D02*
X105030000Y-5390000D01*
%TO.C,Q3*%
X89160000Y-26110000D02*
X89160000Y-15890000D01*
X105030000Y-15890000D02*
X89160000Y-15890000D01*
X105030000Y-17975000D02*
X107470000Y-17975000D01*
X105030000Y-18945000D02*
X107470000Y-18945000D01*
X105030000Y-20515000D02*
X107470000Y-20515000D01*
X105030000Y-21485000D02*
X107470000Y-21485000D01*
X105030000Y-23055000D02*
X107470000Y-23055000D01*
X105030000Y-24025000D02*
X107470000Y-24025000D01*
X105030000Y-26110000D02*
X89160000Y-26110000D01*
X105030000Y-26110000D02*
X105030000Y-15890000D01*
%TO.C,J5*%
X51360000Y-24810000D02*
X51360000Y-28555000D01*
X50866708Y-24810000D02*
X51360000Y-24810000D01*
X50517923Y-28555000D02*
X51360000Y-28555000D01*
X49040000Y-28555000D02*
X49882077Y-28555000D01*
X49040000Y-24810000D02*
X49533292Y-24810000D01*
X49040000Y-24810000D02*
X49040000Y-28555000D01*
X49040000Y-24000000D02*
X49040000Y-23190000D01*
X49040000Y-23190000D02*
X50200000Y-23190000D01*
%TO.C,J6*%
X51360000Y-15500000D02*
X51360000Y-21785000D01*
X50866708Y-15500000D02*
X51360000Y-15500000D01*
X50517923Y-21785000D02*
X51360000Y-21785000D01*
X49040000Y-21785000D02*
X49882077Y-21785000D01*
X49040000Y-15500000D02*
X49533292Y-15500000D01*
X49040000Y-15500000D02*
X49040000Y-21785000D01*
X49040000Y-14690000D02*
X49040000Y-13880000D01*
X49040000Y-13880000D02*
X50200000Y-13880000D01*
%TO.C,J4*%
X19360000Y-23770000D02*
X19360000Y-27515000D01*
X18866708Y-23770000D02*
X19360000Y-23770000D01*
X18517923Y-27515000D02*
X19360000Y-27515000D01*
X17040000Y-27515000D02*
X17882077Y-27515000D01*
X17040000Y-23770000D02*
X17533292Y-23770000D01*
X17040000Y-23770000D02*
X17040000Y-27515000D01*
X17040000Y-22960000D02*
X17040000Y-22150000D01*
X17040000Y-22150000D02*
X18200000Y-22150000D01*
%TO.C,R12*%
X22972936Y-24410000D02*
X24427064Y-24410000D01*
X22972936Y-22590000D02*
X24427064Y-22590000D01*
%TO.C,C7*%
X53090000Y-20851248D02*
X53090000Y-22273752D01*
X54910000Y-20851248D02*
X54910000Y-22273752D01*
%TO.C,C11*%
X29488748Y-9910000D02*
X30911252Y-9910000D01*
X29488748Y-8090000D02*
X30911252Y-8090000D01*
%TO.C,C13*%
X23488748Y-16910000D02*
X24911252Y-16910000D01*
X23488748Y-15090000D02*
X24911252Y-15090000D01*
%TO.C,R14*%
X27427064Y-27590000D02*
X25972936Y-27590000D01*
X27427064Y-29410000D02*
X25972936Y-29410000D01*
%TO.C,Y1*%
X24960000Y-19525000D02*
X26410000Y-19525000D01*
X26410000Y-19525000D02*
X26410000Y-17675000D01*
%TO.C,C10*%
X29488748Y-12910000D02*
X30911252Y-12910000D01*
X29488748Y-11090000D02*
X30911252Y-11090000D01*
%TO.C,C12*%
X51090000Y-9788748D02*
X51090000Y-11211252D01*
X52910000Y-9788748D02*
X52910000Y-11211252D01*
%TO.C,SW1*%
X40900000Y-12500000D02*
X40900000Y-11300000D01*
X40900000Y-9700000D02*
X40900000Y-8500000D01*
X40900000Y-8500000D02*
X34500000Y-8500000D01*
X34500000Y-12500000D02*
X40900000Y-12500000D01*
X34500000Y-11300000D02*
X34500000Y-12500000D01*
X34500000Y-8500000D02*
X34500000Y-9700000D01*
%TO.C,C9*%
X43090000Y-9788748D02*
X43090000Y-11211252D01*
X44910000Y-9788748D02*
X44910000Y-11211252D01*
%TO.C,R13*%
X48910000Y-11227064D02*
X48910000Y-9772936D01*
X47090000Y-11227064D02*
X47090000Y-9772936D01*
%TO.C,R10*%
X57410000Y-22339564D02*
X57410000Y-20885436D01*
X55590000Y-22339564D02*
X55590000Y-20885436D01*
%TO.C,SW2*%
X19190000Y-31865000D02*
X22810000Y-31865000D01*
X22810000Y-33135000D01*
X19190000Y-33135000D01*
X19190000Y-31865000D01*
X19190000Y-31865000D02*
X20396667Y-31865000D01*
X20396667Y-33135000D01*
X19190000Y-33135000D01*
X19190000Y-31865000D01*
G36*
X19190000Y-31865000D02*
G01*
X20396667Y-31865000D01*
X20396667Y-33135000D01*
X19190000Y-33135000D01*
X19190000Y-31865000D01*
G37*
X24410000Y-33300000D02*
X24410000Y-34610000D01*
X24410000Y-30390000D02*
X24410000Y-31700000D01*
X20396667Y-31865000D02*
X20396667Y-33135000D01*
X17590000Y-34610000D02*
X24410000Y-34610000D01*
X17590000Y-33300000D02*
X17590000Y-34610000D01*
X17590000Y-30390000D02*
X24410000Y-30390000D01*
X17590000Y-30390000D02*
X17590000Y-31700000D01*
X17350000Y-30150000D02*
X18733000Y-30150000D01*
X17350000Y-30150000D02*
X17350000Y-31533000D01*
%TO.C,C8*%
X62466150Y-22239445D02*
X62466150Y-20816941D01*
X60646150Y-22239445D02*
X60646150Y-20816941D01*
%TO.C,R9*%
X59910000Y-22227064D02*
X59910000Y-20772936D01*
X58090000Y-22227064D02*
X58090000Y-20772936D01*
%TO.C,C14*%
X23488748Y-21910000D02*
X24911252Y-21910000D01*
X23488748Y-20090000D02*
X24911252Y-20090000D01*
%TO.C,U3*%
X29675000Y-15550000D02*
X29339000Y-15790000D01*
X29339000Y-15310000D01*
X29675000Y-15550000D01*
G36*
X29675000Y-15550000D02*
G01*
X29339000Y-15790000D01*
X29339000Y-15310000D01*
X29675000Y-15550000D01*
G37*
X45450000Y-29300000D02*
X29850000Y-29300000D01*
X45450000Y-13700000D02*
X45450000Y-29300000D01*
X29850000Y-29300000D02*
X29850000Y-13700000D01*
X29850000Y-13700000D02*
X45450000Y-13700000D01*
%TO.C,J3*%
X3080000Y-34340000D02*
X3080000Y-35500000D01*
X2270000Y-34340000D02*
X3080000Y-34340000D01*
X1460000Y-34340000D02*
X255000Y-34340000D01*
X1460000Y-34340000D02*
X1460000Y-34833292D01*
X255000Y-34340000D02*
X255000Y-35182077D01*
X255000Y-35817923D02*
X255000Y-36660000D01*
X1460000Y-36166708D02*
X1460000Y-36660000D01*
X1460000Y-36660000D02*
X255000Y-36660000D01*
%TO.C,J1*%
X64340000Y-5690000D02*
X65500000Y-5690000D01*
X64340000Y-6500000D02*
X64340000Y-5690000D01*
X64340000Y-7310000D02*
X64340000Y-8515000D01*
X64340000Y-7310000D02*
X64833292Y-7310000D01*
X64340000Y-8515000D02*
X65182077Y-8515000D01*
X65817923Y-8515000D02*
X66660000Y-8515000D01*
X66166708Y-7310000D02*
X66660000Y-7310000D01*
X66660000Y-7310000D02*
X66660000Y-8515000D01*
%TO.C,Q7*%
X81600000Y-32838750D02*
X82250000Y-32838750D01*
X81600000Y-32838750D02*
X80950000Y-32838750D01*
X81600000Y-29718750D02*
X82250000Y-29718750D01*
X81600000Y-29718750D02*
X80950000Y-29718750D01*
X80437500Y-29768750D02*
X80197500Y-29438750D01*
X80677500Y-29438750D01*
X80437500Y-29768750D01*
G36*
X80437500Y-29768750D02*
G01*
X80197500Y-29438750D01*
X80677500Y-29438750D01*
X80437500Y-29768750D01*
G37*
%TO.C,L1*%
X12652500Y-29602064D02*
X12652500Y-28397936D01*
X14472500Y-29602064D02*
X14472500Y-28397936D01*
%TO.C,R2*%
X74510000Y-30101686D02*
X74510000Y-31555814D01*
X72690000Y-30101686D02*
X72690000Y-31555814D01*
%TO.C,C3*%
X5351248Y-26590000D02*
X6773752Y-26590000D01*
X5351248Y-28410000D02*
X6773752Y-28410000D01*
%TO.C,U2*%
X6000000Y-17002500D02*
X5200000Y-17002500D01*
X6000000Y-17002500D02*
X6800000Y-17002500D01*
X6000000Y-20122500D02*
X5200000Y-20122500D01*
X6000000Y-20122500D02*
X6800000Y-20122500D01*
X4700000Y-17052500D02*
X4460000Y-16722500D01*
X4940000Y-16722500D01*
X4700000Y-17052500D01*
G36*
X4700000Y-17052500D02*
G01*
X4460000Y-16722500D01*
X4940000Y-16722500D01*
X4700000Y-17052500D01*
G37*
%TO.C,C5*%
X9090000Y-16851248D02*
X9090000Y-18273752D01*
X10910000Y-16851248D02*
X10910000Y-18273752D01*
%TO.C,C1*%
X5851248Y-33590000D02*
X7273752Y-33590000D01*
X5851248Y-35410000D02*
X7273752Y-35410000D01*
%TO.C,C6*%
X5288748Y-14152500D02*
X6711252Y-14152500D01*
X5288748Y-15972500D02*
X6711252Y-15972500D01*
%TO.C,Q1*%
X67660000Y-26110000D02*
X67660000Y-15890000D01*
X83530000Y-15890000D02*
X67660000Y-15890000D01*
X83530000Y-17975000D02*
X85970000Y-17975000D01*
X83530000Y-18945000D02*
X85970000Y-18945000D01*
X83530000Y-20515000D02*
X85970000Y-20515000D01*
X83530000Y-21485000D02*
X85970000Y-21485000D01*
X83530000Y-23055000D02*
X85970000Y-23055000D01*
X83530000Y-24025000D02*
X85970000Y-24025000D01*
X83530000Y-26110000D02*
X67660000Y-26110000D01*
X83530000Y-26110000D02*
X83530000Y-15890000D01*
%TO.C,C4*%
X5288748Y-21152500D02*
X6711252Y-21152500D01*
X5288748Y-22972500D02*
X6711252Y-22972500D01*
%TO.C,Q4*%
X67590000Y-15610000D02*
X67590000Y-5390000D01*
X83460000Y-5390000D02*
X67590000Y-5390000D01*
X83460000Y-7475000D02*
X85900000Y-7475000D01*
X83460000Y-8445000D02*
X85900000Y-8445000D01*
X83460000Y-10015000D02*
X85900000Y-10015000D01*
X83460000Y-10985000D02*
X85900000Y-10985000D01*
X83460000Y-12555000D02*
X85900000Y-12555000D01*
X83460000Y-13525000D02*
X85900000Y-13525000D01*
X83460000Y-15610000D02*
X67590000Y-15610000D01*
X83460000Y-15610000D02*
X83460000Y-5390000D01*
%TO.C,U1*%
X6562500Y-29440000D02*
X5762500Y-29440000D01*
X6562500Y-29440000D02*
X7362500Y-29440000D01*
X6562500Y-32560000D02*
X5762500Y-32560000D01*
X6562500Y-32560000D02*
X7362500Y-32560000D01*
X5262500Y-29490000D02*
X5022500Y-29160000D01*
X5502500Y-29160000D01*
X5262500Y-29490000D01*
G36*
X5262500Y-29490000D02*
G01*
X5022500Y-29160000D01*
X5502500Y-29160000D01*
X5262500Y-29490000D01*
G37*
%TO.C,L2*%
X12090000Y-18164564D02*
X12090000Y-16960436D01*
X13910000Y-18164564D02*
X13910000Y-16960436D01*
%TO.C,R3*%
X79777064Y-28410000D02*
X78322936Y-28410000D01*
X79777064Y-26590000D02*
X78322936Y-26590000D01*
%TO.C,C2*%
X9652500Y-28288748D02*
X9652500Y-29711252D01*
X11472500Y-28288748D02*
X11472500Y-29711252D01*
%TO.C,R11*%
X590000Y-30227064D02*
X590000Y-28772936D01*
X2410000Y-30227064D02*
X2410000Y-28772936D01*
%TO.C,R7*%
X79327064Y-35738750D02*
X77872936Y-35738750D01*
X79327064Y-33918750D02*
X77872936Y-33918750D01*
%TO.C,R1*%
X71572500Y-30101686D02*
X71572500Y-31555814D01*
X69752500Y-30101686D02*
X69752500Y-31555814D01*
%TO.C,Q5*%
X76970000Y-32638750D02*
X77620000Y-32638750D01*
X76970000Y-32638750D02*
X76320000Y-32638750D01*
X76970000Y-29518750D02*
X77620000Y-29518750D01*
X76970000Y-29518750D02*
X76320000Y-29518750D01*
X75807500Y-29568750D02*
X75567500Y-29238750D01*
X76047500Y-29238750D01*
X75807500Y-29568750D01*
G36*
X75807500Y-29568750D02*
G01*
X75567500Y-29238750D01*
X76047500Y-29238750D01*
X75807500Y-29568750D01*
G37*
%TO.C,U4*%
X850000Y-23840000D02*
X2150000Y-23840000D01*
X850000Y-26160000D02*
X1900000Y-26160000D01*
X2260000Y-26440000D02*
X2260000Y-26160000D01*
X2540000Y-26160000D01*
X2260000Y-26440000D01*
G36*
X2260000Y-26440000D02*
G01*
X2260000Y-26160000D01*
X2540000Y-26160000D01*
X2260000Y-26440000D01*
G37*
%TD*%
M02*
