M48
; DRILL file {KiCad 9.0.2} date 2025-07-09T11:25:27+1000
; FORMAT={-:-/ absolute / metric / decimal}
; #@! TF.CreationDate,2025-07-09T11:25:27+10:00
; #@! TF.GenerationSoftware,Kicad,Pcbnew,9.0.2
; #@! TF.FileFunction,Plated,1,2,PTH
FMAT,2
METRIC
; #@! TA.AperFunction,Plated,PTH,ViaDrill
T1C0.300
; #@! TA.AperFunction,Plated,PTH,ComponentDrill
T2C0.650
; #@! TA.AperFunction,Plated,PTH,ComponentDrill
T3C1.100
%
G90
G05
T1
X1.5Y-22.5
X2.5Y-26.5
X3.5Y-24.0
X7.5Y-20.5
X9.0Y-20.5
X9.0Y-22.5
X9.0Y-32.0
X10.5Y-32.0
X10.5Y-34.5
X16.0Y-32.5
X22.5Y-18.5
X30.5Y-13.5
X30.5Y-29.5
X32.0Y-16.0
X32.0Y-27.0
X34.0Y-8.5
X34.0Y-12.0
X34.5Y-19.5
X34.5Y-21.5
X34.5Y-23.5
X36.0Y-18.0
X36.0Y-24.5
X37.5Y-18.0
X38.0Y-24.5
X39.5Y-18.0
X39.5Y-24.5
X41.0Y-19.5
X41.0Y-21.5
X41.0Y-23.5
X43.5Y-16.0
X43.5Y-27.0
X44.0Y-10.5
X44.5Y-13.5
X46.0Y-28.5
X52.0Y-10.5
X54.0Y-22.0
X63.0Y-23.0
X69.0Y-36.5
X70.5Y-36.0
X73.5Y-34.0
X75.5Y-33.5
X84.0Y-35.5
X85.0Y-35.5
X94.0Y-27.0
X96.0Y-27.0
T2
X1.0Y-35.5
X2.27Y-35.5
X18.2Y-22.96
X18.2Y-24.23
X18.2Y-25.5
X18.2Y-26.77
X50.2Y-14.69
X50.2Y-15.96
X50.2Y-17.23
X50.2Y-18.5
X50.2Y-19.77
X50.2Y-21.04
X50.2Y-24.0
X50.2Y-25.27
X50.2Y-26.54
X50.2Y-27.81
X65.5Y-6.5
X65.5Y-7.77
T3
X87.16Y-7.96
X87.16Y-10.5
X87.16Y-13.04
X87.23Y-18.46
X87.23Y-21.0
X87.23Y-23.54
X108.73Y-7.96
X108.73Y-10.5
X108.73Y-13.04
X108.73Y-18.46
X108.73Y-21.0
X108.73Y-23.54
M30
