%TF.GenerationSoftware,KiCad,Pcbnew,9.0.2*%
%TF.CreationDate,2025-07-09T11:25:24+10:00*%
%TF.ProjectId,kicad_board,6b696361-645f-4626-9f61-72642e6b6963,rev?*%
%TF.SameCoordinates,Original*%
%TF.FileFunction,Copper,L2,Bot*%
%TF.FilePolarity,Positive*%
%FSLAX46Y46*%
G04 Gerber Fmt 4.6, Leading zero omitted, Abs format (unit mm)*
G04 Created by KiCad (PCBNEW 9.0.2) date 2025-07-09 11:25:24*
%MOMM*%
%LPD*%
G01*
G04 APERTURE LIST*
%TA.AperFunction,ComponentPad*%
%ADD10O,2.000000X1.905000*%
%TD*%
%TA.AperFunction,ComponentPad*%
%ADD11R,2.000000X1.905000*%
%TD*%
%TA.AperFunction,ComponentPad*%
%ADD12C,1.000000*%
%TD*%
%TA.AperFunction,ComponentPad*%
%ADD13R,1.000000X1.000000*%
%TD*%
%TA.AperFunction,ViaPad*%
%ADD14C,0.600000*%
%TD*%
G04 APERTURE END LIST*
D10*
%TO.P,Q2,3,S*%
%TO.N,Net-(J1-Pin_1)*%
X108730000Y-7960000D03*
%TO.P,Q2,2,D*%
%TO.N,+12V*%
X108730000Y-10500000D03*
D11*
%TO.P,Q2,1,G*%
%TO.N,Net-(Q1-G)*%
X108730000Y-13040000D03*
%TD*%
%TO.P,Q3,1,G*%
%TO.N,Net-(Q3-G)*%
X108730000Y-23540000D03*
D10*
%TO.P,Q3,2,D*%
%TO.N,+12V*%
X108730000Y-21000000D03*
%TO.P,Q3,3,S*%
%TO.N,Net-(J1-Pin_2)*%
X108730000Y-18460000D03*
%TD*%
D12*
%TO.P,J5,4,Pin_4*%
%TO.N,GND*%
X50200000Y-27810000D03*
%TO.P,J5,3,Pin_3*%
%TO.N,Net-(J5-Pin_3)*%
X50200000Y-26540000D03*
%TO.P,J5,2,Pin_2*%
%TO.N,Net-(J5-Pin_2)*%
X50200000Y-25270000D03*
D13*
%TO.P,J5,1,Pin_1*%
%TO.N,+3V3*%
X50200000Y-24000000D03*
%TD*%
D12*
%TO.P,J6,6,Pin_6*%
%TO.N,Net-(J6-Pin_6)*%
X50200000Y-21040000D03*
%TO.P,J6,5,Pin_5*%
%TO.N,Net-(J6-Pin_5)*%
X50200000Y-19770000D03*
%TO.P,J6,4,Pin_4*%
%TO.N,Net-(J6-Pin_4)*%
X50200000Y-18500000D03*
%TO.P,J6,3,Pin_3*%
%TO.N,Net-(J6-Pin_3)*%
X50200000Y-17230000D03*
%TO.P,J6,2,Pin_2*%
%TO.N,Net-(J6-Pin_2)*%
X50200000Y-15960000D03*
D13*
%TO.P,J6,1,Pin_1*%
%TO.N,GND*%
X50200000Y-14690000D03*
%TD*%
D12*
%TO.P,J4,4,Pin_4*%
%TO.N,Net-(J4-Pin_4)*%
X18200000Y-26770000D03*
%TO.P,J4,3,Pin_3*%
%TO.N,Net-(J4-Pin_3)*%
X18200000Y-25500000D03*
%TO.P,J4,2,Pin_2*%
%TO.N,Net-(J4-Pin_2)*%
X18200000Y-24230000D03*
D13*
%TO.P,J4,1,Pin_1*%
%TO.N,Net-(J4-Pin_1)*%
X18200000Y-22960000D03*
%TD*%
%TO.P,J3,1,Pin_1*%
%TO.N,+12V*%
X2270000Y-35500000D03*
D12*
%TO.P,J3,2,Pin_2*%
%TO.N,GND*%
X1000000Y-35500000D03*
%TD*%
D13*
%TO.P,J1,1,Pin_1*%
%TO.N,Net-(J1-Pin_1)*%
X65500000Y-6500000D03*
D12*
%TO.P,J1,2,Pin_2*%
%TO.N,Net-(J1-Pin_2)*%
X65500000Y-7770000D03*
%TD*%
D10*
%TO.P,Q1,3,S*%
%TO.N,Net-(J1-Pin_2)*%
X87230000Y-18460000D03*
%TO.P,Q1,2,D*%
%TO.N,GND*%
X87230000Y-21000000D03*
D11*
%TO.P,Q1,1,G*%
%TO.N,Net-(Q1-G)*%
X87230000Y-23540000D03*
%TD*%
%TO.P,Q4,1,G*%
%TO.N,Net-(Q3-G)*%
X87160000Y-13040000D03*
D10*
%TO.P,Q4,2,D*%
%TO.N,GND*%
X87160000Y-10500000D03*
%TO.P,Q4,3,S*%
%TO.N,Net-(J1-Pin_1)*%
X87160000Y-7960000D03*
%TD*%
D14*
%TO.N,GND*%
X30500000Y-13500000D03*
X44500000Y-13500000D03*
X30500000Y-29500000D03*
X46000000Y-28500000D03*
X54000000Y-22000000D03*
X63000000Y-23000000D03*
%TO.N,+12V*%
X84000000Y-35500000D03*
X85000000Y-35500000D03*
%TO.N,GND*%
X52000000Y-10500000D03*
X44000000Y-10500000D03*
X34000000Y-8500000D03*
X34000000Y-12000000D03*
X43500000Y-27000000D03*
X32000000Y-27000000D03*
X32000000Y-16000000D03*
X43500000Y-16000000D03*
X39500000Y-24500000D03*
X38000000Y-24500000D03*
X36000000Y-24500000D03*
X37500000Y-18000000D03*
X39500000Y-18000000D03*
X36000000Y-18000000D03*
X41000000Y-23500000D03*
X41000000Y-21500000D03*
X41000000Y-19500000D03*
X34500000Y-21500000D03*
X34500000Y-23500000D03*
X34500000Y-19500000D03*
X22500000Y-18500000D03*
X16000000Y-32500000D03*
X1500000Y-22500000D03*
X3500000Y-24000000D03*
X2500000Y-26500000D03*
X7500000Y-20500000D03*
X9000000Y-20500000D03*
X9000000Y-22500000D03*
X9000000Y-32000000D03*
X10500000Y-34500000D03*
X10500000Y-32000000D03*
X73500000Y-34000000D03*
X94000000Y-27000000D03*
X96000000Y-27000000D03*
X75500000Y-33500000D03*
%TO.N,+12V*%
X69000000Y-36500000D03*
X70500000Y-36000000D03*
%TD*%
%TA.AperFunction,Conductor*%
%TO.N,+12V*%
G36*
X110892539Y-5070185D02*
G01*
X110938294Y-5122989D01*
X110949500Y-5174500D01*
X110949500Y-36825500D01*
X110929815Y-36892539D01*
X110877011Y-36938294D01*
X110825500Y-36949500D01*
X107000000Y-36949500D01*
X107000000Y-28916666D01*
X107500000Y-29500000D01*
X110000000Y-29500000D01*
X110093148Y-24842561D01*
X110173796Y-24734831D01*
X110224091Y-24599983D01*
X110230500Y-24540373D01*
X110230499Y-22539628D01*
X110224091Y-22480017D01*
X110173796Y-22345169D01*
X110173795Y-22345168D01*
X110173793Y-22345164D01*
X110143895Y-22305226D01*
X110216780Y-18660974D01*
X110230500Y-18574354D01*
X110230500Y-18345646D01*
X110223918Y-18304090D01*
X110488990Y-5050500D01*
X110825500Y-5050500D01*
X110892539Y-5070185D01*
G37*
%TD.AperFunction*%
%TD*%
%TA.AperFunction,Conductor*%
%TO.N,GND*%
G36*
X56443039Y-5070185D02*
G01*
X56488794Y-5122989D01*
X56500000Y-5174500D01*
X56500000Y-19000000D01*
X60500000Y-19000000D01*
X60500000Y-18345646D01*
X85729500Y-18345646D01*
X85729500Y-18574353D01*
X85765278Y-18800246D01*
X85765278Y-18800249D01*
X85835950Y-19017755D01*
X85930791Y-19203890D01*
X85939783Y-19221538D01*
X86074214Y-19406566D01*
X86235934Y-19568286D01*
X86420962Y-19702717D01*
X86624742Y-19806548D01*
X86624744Y-19806549D01*
X86842251Y-19877221D01*
X86842252Y-19877221D01*
X86842255Y-19877222D01*
X87068146Y-19913000D01*
X87068147Y-19913000D01*
X87391853Y-19913000D01*
X87391854Y-19913000D01*
X87617745Y-19877222D01*
X87617748Y-19877221D01*
X87617749Y-19877221D01*
X87835255Y-19806549D01*
X87835255Y-19806548D01*
X87835258Y-19806548D01*
X88039038Y-19702717D01*
X88224066Y-19568286D01*
X88385786Y-19406566D01*
X88520217Y-19221538D01*
X88624048Y-19017758D01*
X88694722Y-18800245D01*
X88730500Y-18574354D01*
X88730500Y-18345646D01*
X88694722Y-18119755D01*
X88694721Y-18119751D01*
X88694721Y-18119750D01*
X88624049Y-17902244D01*
X88603945Y-17862787D01*
X88520217Y-17698462D01*
X88385786Y-17513434D01*
X88224066Y-17351714D01*
X88039038Y-17217283D01*
X87835255Y-17113450D01*
X87617748Y-17042778D01*
X87448326Y-17015944D01*
X87391854Y-17007000D01*
X87068146Y-17007000D01*
X86992849Y-17018926D01*
X86842253Y-17042778D01*
X86842250Y-17042778D01*
X86624744Y-17113450D01*
X86420961Y-17217283D01*
X86315396Y-17293980D01*
X86235934Y-17351714D01*
X86235932Y-17351716D01*
X86235931Y-17351716D01*
X86074216Y-17513431D01*
X86074216Y-17513432D01*
X86074214Y-17513434D01*
X86016480Y-17592896D01*
X85939783Y-17698461D01*
X85835950Y-17902244D01*
X85765278Y-18119750D01*
X85765278Y-18119753D01*
X85729500Y-18345646D01*
X60500000Y-18345646D01*
X60500000Y-10368872D01*
X68499500Y-10368872D01*
X68499500Y-10631127D01*
X68526123Y-10833339D01*
X68533730Y-10891116D01*
X68601602Y-11144418D01*
X68601605Y-11144428D01*
X68701953Y-11386690D01*
X68701958Y-11386700D01*
X68833075Y-11613803D01*
X68992718Y-11821851D01*
X68992726Y-11821860D01*
X69178140Y-12007274D01*
X69178148Y-12007281D01*
X69386196Y-12166924D01*
X69613299Y-12298041D01*
X69613309Y-12298046D01*
X69855571Y-12398394D01*
X69855581Y-12398398D01*
X70108884Y-12466270D01*
X70368880Y-12500500D01*
X70368887Y-12500500D01*
X70631113Y-12500500D01*
X70631120Y-12500500D01*
X70891116Y-12466270D01*
X71144419Y-12398398D01*
X71386697Y-12298043D01*
X71613803Y-12166924D01*
X71779688Y-12039635D01*
X85659500Y-12039635D01*
X85659500Y-14040370D01*
X85659501Y-14040376D01*
X85665908Y-14099983D01*
X85716202Y-14234828D01*
X85716206Y-14234835D01*
X85802452Y-14350044D01*
X85802455Y-14350047D01*
X85917664Y-14436293D01*
X85917671Y-14436297D01*
X86052517Y-14486591D01*
X86052516Y-14486591D01*
X86059444Y-14487335D01*
X86112127Y-14493000D01*
X88207872Y-14492999D01*
X88267483Y-14486591D01*
X88402331Y-14436296D01*
X88517546Y-14350046D01*
X88603796Y-14234831D01*
X88654091Y-14099983D01*
X88660500Y-14040373D01*
X88660499Y-12039628D01*
X88654091Y-11980017D01*
X88603796Y-11845169D01*
X88603795Y-11845168D01*
X88603793Y-11845164D01*
X88517547Y-11729955D01*
X88517544Y-11729952D01*
X88402335Y-11643706D01*
X88402328Y-11643702D01*
X88267482Y-11593408D01*
X88267483Y-11593408D01*
X88207883Y-11587001D01*
X88207881Y-11587000D01*
X88207873Y-11587000D01*
X88207864Y-11587000D01*
X86112129Y-11587000D01*
X86112123Y-11587001D01*
X86052516Y-11593408D01*
X85917671Y-11643702D01*
X85917664Y-11643706D01*
X85802455Y-11729952D01*
X85802452Y-11729955D01*
X85716206Y-11845164D01*
X85716202Y-11845171D01*
X85665908Y-11980017D01*
X85659501Y-12039616D01*
X85659501Y-12039623D01*
X85659500Y-12039635D01*
X71779688Y-12039635D01*
X71821851Y-12007282D01*
X71821855Y-12007277D01*
X71821860Y-12007274D01*
X72007274Y-11821860D01*
X72007277Y-11821855D01*
X72007282Y-11821851D01*
X72166924Y-11613803D01*
X72298043Y-11386697D01*
X72398398Y-11144419D01*
X72466270Y-10891116D01*
X72500500Y-10631120D01*
X72500500Y-10368880D01*
X72500499Y-10368872D01*
X90069500Y-10368872D01*
X90069500Y-10631127D01*
X90096123Y-10833339D01*
X90103730Y-10891116D01*
X90171602Y-11144418D01*
X90171605Y-11144428D01*
X90271953Y-11386690D01*
X90271958Y-11386700D01*
X90403075Y-11613803D01*
X90562718Y-11821851D01*
X90562726Y-11821860D01*
X90748140Y-12007274D01*
X90748148Y-12007281D01*
X90956196Y-12166924D01*
X91183299Y-12298041D01*
X91183309Y-12298046D01*
X91425571Y-12398394D01*
X91425581Y-12398398D01*
X91678884Y-12466270D01*
X91938880Y-12500500D01*
X91938887Y-12500500D01*
X92201113Y-12500500D01*
X92201120Y-12500500D01*
X92461116Y-12466270D01*
X92714419Y-12398398D01*
X92956697Y-12298043D01*
X93183803Y-12166924D01*
X93391851Y-12007282D01*
X93391855Y-12007277D01*
X93391860Y-12007274D01*
X93577274Y-11821860D01*
X93577277Y-11821855D01*
X93577282Y-11821851D01*
X93736924Y-11613803D01*
X93868043Y-11386697D01*
X93968398Y-11144419D01*
X94036270Y-10891116D01*
X94070500Y-10631120D01*
X94070500Y-10368880D01*
X94036270Y-10108884D01*
X93968398Y-9855581D01*
X93968394Y-9855571D01*
X93868046Y-9613309D01*
X93868041Y-9613299D01*
X93736924Y-9386196D01*
X93577281Y-9178148D01*
X93577274Y-9178140D01*
X93391860Y-8992726D01*
X93391851Y-8992718D01*
X93183803Y-8833075D01*
X92956700Y-8701958D01*
X92956690Y-8701953D01*
X92714428Y-8601605D01*
X92714421Y-8601603D01*
X92714419Y-8601602D01*
X92461116Y-8533730D01*
X92403339Y-8526123D01*
X92201127Y-8499500D01*
X92201120Y-8499500D01*
X91938880Y-8499500D01*
X91938872Y-8499500D01*
X91707772Y-8529926D01*
X91678884Y-8533730D01*
X91628841Y-8547139D01*
X91425581Y-8601602D01*
X91425571Y-8601605D01*
X91183309Y-8701953D01*
X91183299Y-8701958D01*
X90956196Y-8833075D01*
X90748148Y-8992718D01*
X90562718Y-9178148D01*
X90403075Y-9386196D01*
X90271958Y-9613299D01*
X90271953Y-9613309D01*
X90171605Y-9855571D01*
X90171602Y-9855581D01*
X90103730Y-10108885D01*
X90069500Y-10368872D01*
X72500499Y-10368872D01*
X72466270Y-10108884D01*
X72398398Y-9855581D01*
X72398394Y-9855571D01*
X72298046Y-9613309D01*
X72298041Y-9613299D01*
X72166924Y-9386196D01*
X72007281Y-9178148D01*
X72007274Y-9178140D01*
X71821860Y-8992726D01*
X71821851Y-8992718D01*
X71613803Y-8833075D01*
X71386700Y-8701958D01*
X71386690Y-8701953D01*
X71144428Y-8601605D01*
X71144421Y-8601603D01*
X71144419Y-8601602D01*
X70891116Y-8533730D01*
X70833339Y-8526123D01*
X70631127Y-8499500D01*
X70631120Y-8499500D01*
X70368880Y-8499500D01*
X70368872Y-8499500D01*
X70137772Y-8529926D01*
X70108884Y-8533730D01*
X70058841Y-8547139D01*
X69855581Y-8601602D01*
X69855571Y-8601605D01*
X69613309Y-8701953D01*
X69613299Y-8701958D01*
X69386196Y-8833075D01*
X69178148Y-8992718D01*
X68992718Y-9178148D01*
X68833075Y-9386196D01*
X68701958Y-9613299D01*
X68701953Y-9613309D01*
X68601605Y-9855571D01*
X68601602Y-9855581D01*
X68533730Y-10108885D01*
X68499500Y-10368872D01*
X60500000Y-10368872D01*
X60500000Y-7868543D01*
X64499499Y-7868543D01*
X64537947Y-8061829D01*
X64537950Y-8061839D01*
X64613364Y-8243907D01*
X64613371Y-8243920D01*
X64722860Y-8407781D01*
X64722863Y-8407785D01*
X64862214Y-8547136D01*
X64862218Y-8547139D01*
X65026079Y-8656628D01*
X65026092Y-8656635D01*
X65182784Y-8721538D01*
X65208165Y-8732051D01*
X65208169Y-8732051D01*
X65208170Y-8732052D01*
X65401456Y-8770500D01*
X65401459Y-8770500D01*
X65598543Y-8770500D01*
X65728582Y-8744632D01*
X65791835Y-8732051D01*
X65973914Y-8656632D01*
X66137782Y-8547139D01*
X66277139Y-8407782D01*
X66386632Y-8243914D01*
X66462051Y-8061835D01*
X66500500Y-7868541D01*
X66500500Y-7845646D01*
X85659500Y-7845646D01*
X85659500Y-8074353D01*
X85695278Y-8300246D01*
X85695278Y-8300249D01*
X85765950Y-8517755D01*
X85869783Y-8721538D01*
X86004214Y-8906566D01*
X86165934Y-9068286D01*
X86350962Y-9202717D01*
X86554742Y-9306548D01*
X86554744Y-9306549D01*
X86772251Y-9377221D01*
X86772252Y-9377221D01*
X86772255Y-9377222D01*
X86998146Y-9413000D01*
X86998147Y-9413000D01*
X87321853Y-9413000D01*
X87321854Y-9413000D01*
X87547745Y-9377222D01*
X87547748Y-9377221D01*
X87547749Y-9377221D01*
X87765255Y-9306549D01*
X87765255Y-9306548D01*
X87765258Y-9306548D01*
X87969038Y-9202717D01*
X88154066Y-9068286D01*
X88315786Y-8906566D01*
X88450217Y-8721538D01*
X88554048Y-8517758D01*
X88624722Y-8300245D01*
X88660500Y-8074354D01*
X88660500Y-7845646D01*
X88624722Y-7619755D01*
X88624721Y-7619751D01*
X88624721Y-7619750D01*
X88554049Y-7402244D01*
X88540613Y-7375874D01*
X88450217Y-7198462D01*
X88315786Y-7013434D01*
X88154066Y-6851714D01*
X87969038Y-6717283D01*
X87765255Y-6613450D01*
X87547748Y-6542778D01*
X87378326Y-6515944D01*
X87321854Y-6507000D01*
X86998146Y-6507000D01*
X86922849Y-6518926D01*
X86772253Y-6542778D01*
X86772250Y-6542778D01*
X86554744Y-6613450D01*
X86350961Y-6717283D01*
X86245396Y-6793980D01*
X86165934Y-6851714D01*
X86165932Y-6851716D01*
X86165931Y-6851716D01*
X86004216Y-7013431D01*
X86004216Y-7013432D01*
X86004214Y-7013434D01*
X85946480Y-7092896D01*
X85869783Y-7198461D01*
X85765950Y-7402244D01*
X85695278Y-7619750D01*
X85695278Y-7619753D01*
X85659500Y-7845646D01*
X66500500Y-7845646D01*
X66500500Y-7671459D01*
X66500500Y-7671456D01*
X66462052Y-7478170D01*
X66462051Y-7478169D01*
X66462051Y-7478165D01*
X66419680Y-7375873D01*
X66412212Y-7306407D01*
X66434977Y-7254111D01*
X66443796Y-7242331D01*
X66494091Y-7107483D01*
X66500500Y-7047873D01*
X66500499Y-5952128D01*
X66494091Y-5892517D01*
X66443796Y-5757669D01*
X66443795Y-5757668D01*
X66443793Y-5757664D01*
X66357547Y-5642455D01*
X66357544Y-5642452D01*
X66242335Y-5556206D01*
X66242328Y-5556202D01*
X66107482Y-5505908D01*
X66107483Y-5505908D01*
X66047883Y-5499501D01*
X66047881Y-5499500D01*
X66047873Y-5499500D01*
X66047864Y-5499500D01*
X64952129Y-5499500D01*
X64952123Y-5499501D01*
X64892516Y-5505908D01*
X64757671Y-5556202D01*
X64757664Y-5556206D01*
X64642455Y-5642452D01*
X64642452Y-5642455D01*
X64556206Y-5757664D01*
X64556202Y-5757671D01*
X64505908Y-5892517D01*
X64499501Y-5952116D01*
X64499501Y-5952123D01*
X64499500Y-5952135D01*
X64499500Y-7047870D01*
X64499501Y-7047876D01*
X64505908Y-7107483D01*
X64556202Y-7242328D01*
X64556206Y-7242335D01*
X64565023Y-7254113D01*
X64589440Y-7319578D01*
X64580318Y-7375874D01*
X64569396Y-7402244D01*
X64537950Y-7478164D01*
X64537948Y-7478168D01*
X64537947Y-7478171D01*
X64499500Y-7671456D01*
X64499500Y-7671459D01*
X64499500Y-7868541D01*
X64499500Y-7868543D01*
X64499499Y-7868543D01*
X60500000Y-7868543D01*
X60500000Y-5174500D01*
X60519685Y-5107461D01*
X60572489Y-5061706D01*
X60624000Y-5050500D01*
X102376000Y-5050500D01*
X102443039Y-5070185D01*
X102488794Y-5122989D01*
X102500000Y-5174500D01*
X102500000Y-34376000D01*
X102480315Y-34443039D01*
X102427511Y-34488794D01*
X102376000Y-34500000D01*
X69500000Y-34500000D01*
X69499995Y-34500000D01*
X69499993Y-34500001D01*
X58161184Y-36443797D01*
X55634103Y-36877011D01*
X55221651Y-36947717D01*
X55200699Y-36949500D01*
X-325500Y-36949500D01*
X-392539Y-36929815D01*
X-438294Y-36877011D01*
X-449500Y-36825500D01*
X-449500Y-34952135D01*
X1269500Y-34952135D01*
X1269500Y-36047870D01*
X1269501Y-36047876D01*
X1275908Y-36107483D01*
X1326202Y-36242328D01*
X1326206Y-36242335D01*
X1412452Y-36357544D01*
X1412455Y-36357547D01*
X1527664Y-36443793D01*
X1527671Y-36443797D01*
X1662517Y-36494091D01*
X1662516Y-36494091D01*
X1669444Y-36494835D01*
X1722127Y-36500500D01*
X2817872Y-36500499D01*
X2877483Y-36494091D01*
X3012331Y-36443796D01*
X3127546Y-36357546D01*
X3213796Y-36242331D01*
X3264091Y-36107483D01*
X3270500Y-36047873D01*
X3270499Y-34952128D01*
X3264091Y-34892517D01*
X3258755Y-34878211D01*
X3213797Y-34757671D01*
X3213793Y-34757664D01*
X3127547Y-34642455D01*
X3127544Y-34642452D01*
X3012335Y-34556206D01*
X3012328Y-34556202D01*
X2877482Y-34505908D01*
X2877483Y-34505908D01*
X2817883Y-34499501D01*
X2817881Y-34499500D01*
X2817873Y-34499500D01*
X2817864Y-34499500D01*
X1722129Y-34499500D01*
X1722123Y-34499501D01*
X1662516Y-34505908D01*
X1527671Y-34556202D01*
X1527664Y-34556206D01*
X1412455Y-34642452D01*
X1412452Y-34642455D01*
X1326206Y-34757664D01*
X1326202Y-34757671D01*
X1275908Y-34892517D01*
X1269501Y-34952116D01*
X1269501Y-34952123D01*
X1269500Y-34952135D01*
X-449500Y-34952135D01*
X-449500Y-24328543D01*
X17199499Y-24328543D01*
X17237947Y-24521829D01*
X17237950Y-24521839D01*
X17273425Y-24607483D01*
X17313368Y-24703914D01*
X17339040Y-24742335D01*
X17374971Y-24796110D01*
X17395848Y-24862787D01*
X17377363Y-24930167D01*
X17374971Y-24933890D01*
X17313366Y-25026089D01*
X17237950Y-25208160D01*
X17237947Y-25208170D01*
X17199500Y-25401456D01*
X17199500Y-25401459D01*
X17199500Y-25598541D01*
X17199500Y-25598543D01*
X17199499Y-25598543D01*
X17237947Y-25791829D01*
X17237950Y-25791839D01*
X17283906Y-25902787D01*
X17313368Y-25973914D01*
X17357352Y-26039740D01*
X17374971Y-26066110D01*
X17395848Y-26132787D01*
X17377363Y-26200167D01*
X17374971Y-26203890D01*
X17313366Y-26296089D01*
X17237950Y-26478160D01*
X17237947Y-26478170D01*
X17199500Y-26671456D01*
X17199500Y-26671459D01*
X17199500Y-26868541D01*
X17199500Y-26868543D01*
X17199499Y-26868543D01*
X17237947Y-27061829D01*
X17237950Y-27061839D01*
X17313364Y-27243907D01*
X17313371Y-27243920D01*
X17422860Y-27407781D01*
X17422863Y-27407785D01*
X17562214Y-27547136D01*
X17562218Y-27547139D01*
X17726079Y-27656628D01*
X17726092Y-27656635D01*
X17908160Y-27732049D01*
X17908165Y-27732051D01*
X17908169Y-27732051D01*
X17908170Y-27732052D01*
X18101456Y-27770500D01*
X18101459Y-27770500D01*
X18298543Y-27770500D01*
X18428582Y-27744632D01*
X18491835Y-27732051D01*
X18673914Y-27656632D01*
X18837782Y-27547139D01*
X18977139Y-27407782D01*
X19086632Y-27243914D01*
X19162051Y-27061835D01*
X19200500Y-26868541D01*
X19200500Y-26671459D01*
X19200500Y-26671456D01*
X19162052Y-26478170D01*
X19162051Y-26478169D01*
X19162051Y-26478165D01*
X19146846Y-26441456D01*
X19086635Y-26296092D01*
X19086633Y-26296088D01*
X19086632Y-26296086D01*
X19025029Y-26203891D01*
X19004151Y-26137214D01*
X19022635Y-26069834D01*
X19025029Y-26066109D01*
X19037872Y-26046887D01*
X19086632Y-25973914D01*
X19162051Y-25791835D01*
X19200500Y-25598541D01*
X19200500Y-25401459D01*
X19200500Y-25401456D01*
X19193953Y-25368543D01*
X49199499Y-25368543D01*
X49237947Y-25561829D01*
X49237950Y-25561839D01*
X49313365Y-25743907D01*
X49313368Y-25743914D01*
X49357352Y-25809740D01*
X49374971Y-25836110D01*
X49395848Y-25902787D01*
X49377363Y-25970167D01*
X49374971Y-25973890D01*
X49313366Y-26066089D01*
X49237950Y-26248160D01*
X49237947Y-26248170D01*
X49199500Y-26441456D01*
X49199500Y-26441459D01*
X49199500Y-26638541D01*
X49199500Y-26638543D01*
X49199499Y-26638543D01*
X49237947Y-26831829D01*
X49237950Y-26831839D01*
X49313364Y-27013907D01*
X49313371Y-27013920D01*
X49422860Y-27177781D01*
X49422863Y-27177785D01*
X49562214Y-27317136D01*
X49562218Y-27317139D01*
X49726079Y-27426628D01*
X49726092Y-27426635D01*
X49908160Y-27502049D01*
X49908165Y-27502051D01*
X49908169Y-27502051D01*
X49908170Y-27502052D01*
X50101456Y-27540500D01*
X50101459Y-27540500D01*
X50298543Y-27540500D01*
X50428582Y-27514632D01*
X50491835Y-27502051D01*
X50673914Y-27426632D01*
X50837782Y-27317139D01*
X50977139Y-27177782D01*
X51086632Y-27013914D01*
X51162051Y-26831835D01*
X51200500Y-26638541D01*
X51200500Y-26441459D01*
X51200500Y-26441456D01*
X51162052Y-26248170D01*
X51162051Y-26248169D01*
X51162051Y-26248165D01*
X51115177Y-26135000D01*
X51086635Y-26066092D01*
X51086633Y-26066088D01*
X51086632Y-26066086D01*
X51025029Y-25973891D01*
X51004151Y-25907214D01*
X51022635Y-25839834D01*
X51025029Y-25836109D01*
X51054616Y-25791829D01*
X51086632Y-25743914D01*
X51162051Y-25561835D01*
X51200500Y-25368541D01*
X51200500Y-25171459D01*
X51200500Y-25171456D01*
X51162052Y-24978170D01*
X51162051Y-24978169D01*
X51162051Y-24978165D01*
X51119680Y-24875873D01*
X51112212Y-24806407D01*
X51134977Y-24754111D01*
X51143796Y-24742331D01*
X51194091Y-24607483D01*
X51200500Y-24547873D01*
X51200499Y-23452128D01*
X51194091Y-23392517D01*
X51143796Y-23257669D01*
X51143795Y-23257668D01*
X51143793Y-23257664D01*
X51057547Y-23142455D01*
X51057544Y-23142452D01*
X50942335Y-23056206D01*
X50942328Y-23056202D01*
X50807482Y-23005908D01*
X50807483Y-23005908D01*
X50747883Y-22999501D01*
X50747881Y-22999500D01*
X50747873Y-22999500D01*
X50747864Y-22999500D01*
X49652129Y-22999500D01*
X49652123Y-22999501D01*
X49592516Y-23005908D01*
X49457671Y-23056202D01*
X49457664Y-23056206D01*
X49342455Y-23142452D01*
X49342452Y-23142455D01*
X49256206Y-23257664D01*
X49256202Y-23257671D01*
X49205908Y-23392517D01*
X49199857Y-23448805D01*
X49199501Y-23452123D01*
X49199500Y-23452135D01*
X49199500Y-24547870D01*
X49199501Y-24547876D01*
X49205908Y-24607483D01*
X49256202Y-24742328D01*
X49256206Y-24742335D01*
X49265023Y-24754113D01*
X49289440Y-24819578D01*
X49280318Y-24875874D01*
X49257830Y-24930167D01*
X49237950Y-24978164D01*
X49237948Y-24978168D01*
X49237947Y-24978171D01*
X49199500Y-25171456D01*
X49199500Y-25171459D01*
X49199500Y-25368541D01*
X49199500Y-25368543D01*
X49199499Y-25368543D01*
X19193953Y-25368543D01*
X19162052Y-25208170D01*
X19162051Y-25208169D01*
X19162051Y-25208165D01*
X19146846Y-25171456D01*
X19086635Y-25026092D01*
X19086633Y-25026088D01*
X19086632Y-25026086D01*
X19086628Y-25026080D01*
X19025029Y-24933891D01*
X19004151Y-24867214D01*
X19022635Y-24799834D01*
X19025029Y-24796109D01*
X19053094Y-24754107D01*
X19086632Y-24703914D01*
X19162051Y-24521835D01*
X19200500Y-24328541D01*
X19200500Y-24131459D01*
X19200500Y-24131456D01*
X19162052Y-23938170D01*
X19162051Y-23938169D01*
X19162051Y-23938165D01*
X19119680Y-23835873D01*
X19112212Y-23766407D01*
X19134977Y-23714111D01*
X19143796Y-23702331D01*
X19194091Y-23567483D01*
X19200500Y-23507873D01*
X19200499Y-22412128D01*
X19194091Y-22352517D01*
X19191350Y-22345169D01*
X19143797Y-22217671D01*
X19143793Y-22217664D01*
X19057547Y-22102455D01*
X19057544Y-22102452D01*
X18942335Y-22016206D01*
X18942328Y-22016202D01*
X18807482Y-21965908D01*
X18807483Y-21965908D01*
X18747883Y-21959501D01*
X18747881Y-21959500D01*
X18747873Y-21959500D01*
X18747864Y-21959500D01*
X17652129Y-21959500D01*
X17652123Y-21959501D01*
X17592516Y-21965908D01*
X17457671Y-22016202D01*
X17457664Y-22016206D01*
X17342455Y-22102452D01*
X17342452Y-22102455D01*
X17256206Y-22217664D01*
X17256202Y-22217671D01*
X17205908Y-22352517D01*
X17199501Y-22412116D01*
X17199501Y-22412123D01*
X17199500Y-22412135D01*
X17199500Y-23507870D01*
X17199501Y-23507876D01*
X17205908Y-23567483D01*
X17256202Y-23702328D01*
X17256206Y-23702335D01*
X17265023Y-23714113D01*
X17289440Y-23779578D01*
X17280318Y-23835874D01*
X17254500Y-23898206D01*
X17237950Y-23938164D01*
X17237948Y-23938168D01*
X17237947Y-23938171D01*
X17199500Y-24131456D01*
X17199500Y-24131459D01*
X17199500Y-24328541D01*
X17199500Y-24328543D01*
X17199499Y-24328543D01*
X-449500Y-24328543D01*
X-449500Y-16058543D01*
X49199499Y-16058543D01*
X49237947Y-16251829D01*
X49237950Y-16251839D01*
X49313365Y-16433907D01*
X49313368Y-16433914D01*
X49357352Y-16499740D01*
X49374971Y-16526110D01*
X49395848Y-16592787D01*
X49377363Y-16660167D01*
X49374971Y-16663890D01*
X49313366Y-16756089D01*
X49237950Y-16938160D01*
X49237947Y-16938170D01*
X49199500Y-17131456D01*
X49199500Y-17131459D01*
X49199500Y-17328541D01*
X49199500Y-17328543D01*
X49199499Y-17328543D01*
X49237947Y-17521829D01*
X49237950Y-17521839D01*
X49313365Y-17703907D01*
X49313368Y-17703914D01*
X49357352Y-17769740D01*
X49374971Y-17796110D01*
X49395848Y-17862787D01*
X49377363Y-17930167D01*
X49374971Y-17933890D01*
X49313366Y-18026089D01*
X49237950Y-18208160D01*
X49237947Y-18208170D01*
X49199500Y-18401456D01*
X49199500Y-18401459D01*
X49199500Y-18598541D01*
X49199500Y-18598543D01*
X49199499Y-18598543D01*
X49237947Y-18791829D01*
X49237950Y-18791839D01*
X49241434Y-18800249D01*
X49313368Y-18973914D01*
X49330464Y-18999500D01*
X49374971Y-19066110D01*
X49395848Y-19132787D01*
X49377363Y-19200167D01*
X49374971Y-19203890D01*
X49313366Y-19296089D01*
X49237950Y-19478160D01*
X49237947Y-19478170D01*
X49199500Y-19671456D01*
X49199500Y-19671459D01*
X49199500Y-19868541D01*
X49199500Y-19868543D01*
X49199499Y-19868543D01*
X49237947Y-20061829D01*
X49237950Y-20061839D01*
X49313365Y-20243907D01*
X49313368Y-20243914D01*
X49357352Y-20309740D01*
X49374971Y-20336110D01*
X49395848Y-20402787D01*
X49377363Y-20470167D01*
X49374971Y-20473890D01*
X49313366Y-20566089D01*
X49237950Y-20748160D01*
X49237947Y-20748170D01*
X49199500Y-20941456D01*
X49199500Y-20941459D01*
X49199500Y-21138541D01*
X49199500Y-21138543D01*
X49199499Y-21138543D01*
X49237947Y-21331829D01*
X49237950Y-21331839D01*
X49313364Y-21513907D01*
X49313371Y-21513920D01*
X49422860Y-21677781D01*
X49422863Y-21677785D01*
X49562214Y-21817136D01*
X49562218Y-21817139D01*
X49726079Y-21926628D01*
X49726092Y-21926635D01*
X49908160Y-22002049D01*
X49908165Y-22002051D01*
X49908169Y-22002051D01*
X49908170Y-22002052D01*
X50101456Y-22040500D01*
X50101459Y-22040500D01*
X50298543Y-22040500D01*
X50428582Y-22014632D01*
X50491835Y-22002051D01*
X50673914Y-21926632D01*
X50837782Y-21817139D01*
X50977139Y-21677782D01*
X51086632Y-21513914D01*
X51162051Y-21331835D01*
X51200500Y-21138541D01*
X51200500Y-20941459D01*
X51200500Y-20941456D01*
X51190068Y-20889013D01*
X51190068Y-20889012D01*
X51186062Y-20868872D01*
X68569500Y-20868872D01*
X68569500Y-21131127D01*
X68595925Y-21331829D01*
X68603730Y-21391116D01*
X68636635Y-21513920D01*
X68671602Y-21644418D01*
X68671605Y-21644428D01*
X68771953Y-21886690D01*
X68771958Y-21886700D01*
X68903075Y-22113803D01*
X69062718Y-22321851D01*
X69062726Y-22321860D01*
X69248140Y-22507274D01*
X69248148Y-22507281D01*
X69456196Y-22666924D01*
X69683299Y-22798041D01*
X69683309Y-22798046D01*
X69925571Y-22898394D01*
X69925581Y-22898398D01*
X70178884Y-22966270D01*
X70438880Y-23000500D01*
X70438887Y-23000500D01*
X70701113Y-23000500D01*
X70701120Y-23000500D01*
X70961116Y-22966270D01*
X71214419Y-22898398D01*
X71456697Y-22798043D01*
X71683803Y-22666924D01*
X71849688Y-22539635D01*
X85729500Y-22539635D01*
X85729500Y-24540370D01*
X85729501Y-24540376D01*
X85735908Y-24599983D01*
X85786202Y-24734828D01*
X85786206Y-24734835D01*
X85872452Y-24850044D01*
X85872455Y-24850047D01*
X85987664Y-24936293D01*
X85987671Y-24936297D01*
X86122517Y-24986591D01*
X86122516Y-24986591D01*
X86129444Y-24987335D01*
X86182127Y-24993000D01*
X88277872Y-24992999D01*
X88337483Y-24986591D01*
X88472331Y-24936296D01*
X88587546Y-24850046D01*
X88673796Y-24734831D01*
X88724091Y-24599983D01*
X88730500Y-24540373D01*
X88730499Y-22539628D01*
X88724091Y-22480017D01*
X88698770Y-22412129D01*
X88673797Y-22345171D01*
X88673793Y-22345164D01*
X88587547Y-22229955D01*
X88587544Y-22229952D01*
X88472335Y-22143706D01*
X88472328Y-22143702D01*
X88337482Y-22093408D01*
X88337483Y-22093408D01*
X88277883Y-22087001D01*
X88277881Y-22087000D01*
X88277873Y-22087000D01*
X88277864Y-22087000D01*
X86182129Y-22087000D01*
X86182123Y-22087001D01*
X86122516Y-22093408D01*
X85987671Y-22143702D01*
X85987664Y-22143706D01*
X85872455Y-22229952D01*
X85872452Y-22229955D01*
X85786206Y-22345164D01*
X85786202Y-22345171D01*
X85735908Y-22480017D01*
X85729501Y-22539616D01*
X85729501Y-22539623D01*
X85729500Y-22539635D01*
X71849688Y-22539635D01*
X71891851Y-22507282D01*
X71891855Y-22507277D01*
X71891860Y-22507274D01*
X72077274Y-22321860D01*
X72077277Y-22321855D01*
X72077282Y-22321851D01*
X72236924Y-22113803D01*
X72368043Y-21886697D01*
X72468398Y-21644419D01*
X72536270Y-21391116D01*
X72570500Y-21131120D01*
X72570500Y-20868880D01*
X72570499Y-20868872D01*
X90069500Y-20868872D01*
X90069500Y-21131127D01*
X90095925Y-21331829D01*
X90103730Y-21391116D01*
X90136635Y-21513920D01*
X90171602Y-21644418D01*
X90171605Y-21644428D01*
X90271953Y-21886690D01*
X90271958Y-21886700D01*
X90403075Y-22113803D01*
X90562718Y-22321851D01*
X90562726Y-22321860D01*
X90748140Y-22507274D01*
X90748148Y-22507281D01*
X90956196Y-22666924D01*
X91183299Y-22798041D01*
X91183309Y-22798046D01*
X91425571Y-22898394D01*
X91425581Y-22898398D01*
X91678884Y-22966270D01*
X91938880Y-23000500D01*
X91938887Y-23000500D01*
X92201113Y-23000500D01*
X92201120Y-23000500D01*
X92461116Y-22966270D01*
X92714419Y-22898398D01*
X92956697Y-22798043D01*
X93183803Y-22666924D01*
X93391851Y-22507282D01*
X93391855Y-22507277D01*
X93391860Y-22507274D01*
X93577274Y-22321860D01*
X93577277Y-22321855D01*
X93577282Y-22321851D01*
X93736924Y-22113803D01*
X93868043Y-21886697D01*
X93968398Y-21644419D01*
X94036270Y-21391116D01*
X94070500Y-21131120D01*
X94070500Y-20868880D01*
X94036270Y-20608884D01*
X93968398Y-20355581D01*
X93968394Y-20355571D01*
X93868046Y-20113309D01*
X93868041Y-20113299D01*
X93736924Y-19886196D01*
X93577281Y-19678148D01*
X93577274Y-19678140D01*
X93391860Y-19492726D01*
X93391851Y-19492718D01*
X93183803Y-19333075D01*
X92956700Y-19201958D01*
X92956690Y-19201953D01*
X92714428Y-19101605D01*
X92714421Y-19101603D01*
X92714419Y-19101602D01*
X92461116Y-19033730D01*
X92403339Y-19026123D01*
X92201127Y-18999500D01*
X92201120Y-18999500D01*
X91938880Y-18999500D01*
X91938872Y-18999500D01*
X91707772Y-19029926D01*
X91678884Y-19033730D01*
X91425581Y-19101602D01*
X91425571Y-19101605D01*
X91183309Y-19201953D01*
X91183299Y-19201958D01*
X90956196Y-19333075D01*
X90748148Y-19492718D01*
X90562718Y-19678148D01*
X90403075Y-19886196D01*
X90271958Y-20113299D01*
X90271953Y-20113309D01*
X90171605Y-20355571D01*
X90171602Y-20355581D01*
X90103730Y-20608885D01*
X90069500Y-20868872D01*
X72570499Y-20868872D01*
X72536270Y-20608884D01*
X72468398Y-20355581D01*
X72468394Y-20355571D01*
X72368046Y-20113309D01*
X72368041Y-20113299D01*
X72236924Y-19886196D01*
X72077281Y-19678148D01*
X72077274Y-19678140D01*
X71891860Y-19492726D01*
X71891851Y-19492718D01*
X71683803Y-19333075D01*
X71456700Y-19201958D01*
X71456690Y-19201953D01*
X71214428Y-19101605D01*
X71214421Y-19101603D01*
X71214419Y-19101602D01*
X70961116Y-19033730D01*
X70903339Y-19026123D01*
X70701127Y-18999500D01*
X70701120Y-18999500D01*
X70438880Y-18999500D01*
X70438872Y-18999500D01*
X70207772Y-19029926D01*
X70178884Y-19033730D01*
X69925581Y-19101602D01*
X69925571Y-19101605D01*
X69683309Y-19201953D01*
X69683299Y-19201958D01*
X69456196Y-19333075D01*
X69248148Y-19492718D01*
X69062718Y-19678148D01*
X68903075Y-19886196D01*
X68771958Y-20113299D01*
X68771953Y-20113309D01*
X68671605Y-20355571D01*
X68671602Y-20355581D01*
X68603730Y-20608885D01*
X68569500Y-20868872D01*
X51186062Y-20868872D01*
X51162052Y-20748172D01*
X51162052Y-20748170D01*
X51162051Y-20748165D01*
X51104360Y-20608885D01*
X51086635Y-20566092D01*
X51086633Y-20566088D01*
X51086632Y-20566086D01*
X51025029Y-20473891D01*
X51004151Y-20407214D01*
X51022635Y-20339834D01*
X51025029Y-20336109D01*
X51037872Y-20316887D01*
X51086632Y-20243914D01*
X51162051Y-20061835D01*
X51174632Y-19998582D01*
X51200500Y-19868543D01*
X51200500Y-19671456D01*
X51162052Y-19478170D01*
X51162051Y-19478169D01*
X51162051Y-19478165D01*
X51132395Y-19406568D01*
X51086635Y-19296092D01*
X51086633Y-19296088D01*
X51086632Y-19296086D01*
X51025029Y-19203891D01*
X51004151Y-19137214D01*
X51022635Y-19069834D01*
X51025029Y-19066109D01*
X51057338Y-19017755D01*
X51086632Y-18973914D01*
X51162051Y-18791835D01*
X51200500Y-18598541D01*
X51200500Y-18401459D01*
X51200500Y-18401456D01*
X51162052Y-18208170D01*
X51162051Y-18208169D01*
X51162051Y-18208165D01*
X51125429Y-18119750D01*
X51086635Y-18026092D01*
X51086633Y-18026088D01*
X51086632Y-18026086D01*
X51025029Y-17933891D01*
X51004151Y-17867214D01*
X51022635Y-17799834D01*
X51025029Y-17796109D01*
X51037872Y-17776887D01*
X51086632Y-17703914D01*
X51162051Y-17521835D01*
X51200500Y-17328541D01*
X51200500Y-17131459D01*
X51200500Y-17131456D01*
X51162052Y-16938170D01*
X51162051Y-16938169D01*
X51162051Y-16938165D01*
X51162049Y-16938160D01*
X51086635Y-16756092D01*
X51086633Y-16756088D01*
X51086632Y-16756086D01*
X51025029Y-16663891D01*
X51004151Y-16597214D01*
X51022635Y-16529834D01*
X51025029Y-16526109D01*
X51037872Y-16506887D01*
X51086632Y-16433914D01*
X51162051Y-16251835D01*
X51200500Y-16058541D01*
X51200500Y-15861459D01*
X51200500Y-15861456D01*
X51162052Y-15668170D01*
X51162051Y-15668169D01*
X51162051Y-15668165D01*
X51162049Y-15668160D01*
X51086635Y-15486092D01*
X51086628Y-15486079D01*
X50977139Y-15322218D01*
X50977136Y-15322214D01*
X50837785Y-15182863D01*
X50837781Y-15182860D01*
X50673920Y-15073371D01*
X50673907Y-15073364D01*
X50491839Y-14997950D01*
X50491829Y-14997947D01*
X50298543Y-14959500D01*
X50298541Y-14959500D01*
X50101459Y-14959500D01*
X50101457Y-14959500D01*
X49908170Y-14997947D01*
X49908160Y-14997950D01*
X49726092Y-15073364D01*
X49726079Y-15073371D01*
X49562218Y-15182860D01*
X49562214Y-15182863D01*
X49422863Y-15322214D01*
X49422860Y-15322218D01*
X49313371Y-15486079D01*
X49313364Y-15486092D01*
X49237950Y-15668160D01*
X49237947Y-15668170D01*
X49199500Y-15861456D01*
X49199500Y-15861459D01*
X49199500Y-16058541D01*
X49199500Y-16058543D01*
X49199499Y-16058543D01*
X-449500Y-16058543D01*
X-449500Y-5174500D01*
X-429815Y-5107461D01*
X-377011Y-5061706D01*
X-325500Y-5050500D01*
X56376000Y-5050500D01*
X56443039Y-5070185D01*
G37*
%TD.AperFunction*%
%TD*%
%TA.AperFunction,Conductor*%
%TO.N,+12V*%
G36*
X83500000Y-36000000D02*
G01*
X85500000Y-36000000D01*
X85500000Y-35500000D01*
X107000000Y-35500000D01*
X107000000Y-36949500D01*
X68624000Y-36949500D01*
X68556961Y-36929815D01*
X68511206Y-36877011D01*
X68500000Y-36825500D01*
X68500000Y-35624000D01*
X68519685Y-35556961D01*
X68572489Y-35511206D01*
X68624000Y-35500000D01*
X83500000Y-35500000D01*
X83500000Y-36000000D01*
G37*
%TD.AperFunction*%
%TD*%
%TA.AperFunction,Conductor*%
%TO.N,+12V*%
G36*
X85443039Y-35019685D02*
G01*
X85488794Y-35072489D01*
X85500000Y-35124000D01*
X85500000Y-36000000D01*
X83500000Y-36000000D01*
X83500000Y-35124000D01*
X83519685Y-35056961D01*
X83572489Y-35011206D01*
X83624000Y-35000000D01*
X85376000Y-35000000D01*
X85443039Y-35019685D01*
G37*
%TD.AperFunction*%
%TD*%
%TA.AperFunction,Conductor*%
%TO.N,+12V*%
G36*
X110223918Y-18304089D02*
G01*
X110194722Y-18119755D01*
X110194721Y-18119751D01*
X110194721Y-18119750D01*
X110124049Y-17902244D01*
X110020216Y-17698461D01*
X109885786Y-17513434D01*
X109724066Y-17351714D01*
X109539038Y-17217283D01*
X109335255Y-17113450D01*
X109117748Y-17042778D01*
X108948326Y-17015944D01*
X108891854Y-17007000D01*
X108568146Y-17007000D01*
X108492849Y-17018926D01*
X108342253Y-17042778D01*
X108342250Y-17042778D01*
X108124744Y-17113450D01*
X107920961Y-17217283D01*
X107815396Y-17293980D01*
X107735934Y-17351714D01*
X107735932Y-17351716D01*
X107735931Y-17351716D01*
X107574216Y-17513431D01*
X107574216Y-17513432D01*
X107574214Y-17513434D01*
X107516480Y-17592896D01*
X107439783Y-17698461D01*
X107335950Y-17902244D01*
X107265278Y-18119750D01*
X107265278Y-18119753D01*
X107229500Y-18345646D01*
X107229500Y-18574353D01*
X107265278Y-18800246D01*
X107265278Y-18800249D01*
X107335950Y-19017755D01*
X107335952Y-19017758D01*
X107439783Y-19221538D01*
X107574214Y-19406566D01*
X107735934Y-19568286D01*
X107920962Y-19702717D01*
X108124742Y-19806548D01*
X108124744Y-19806549D01*
X108342251Y-19877221D01*
X108342252Y-19877221D01*
X108342255Y-19877222D01*
X108568146Y-19913000D01*
X108568147Y-19913000D01*
X108891853Y-19913000D01*
X108891854Y-19913000D01*
X109117745Y-19877222D01*
X109117748Y-19877221D01*
X109117749Y-19877221D01*
X109335255Y-19806549D01*
X109335255Y-19806548D01*
X109335258Y-19806548D01*
X109539038Y-19702717D01*
X109724066Y-19568286D01*
X109885786Y-19406566D01*
X110020217Y-19221538D01*
X110124048Y-19017758D01*
X110194722Y-18800245D01*
X110216779Y-18660978D01*
X110143895Y-22305226D01*
X110087547Y-22229955D01*
X110087544Y-22229952D01*
X109972335Y-22143706D01*
X109972328Y-22143702D01*
X109837482Y-22093408D01*
X109837483Y-22093408D01*
X109777883Y-22087001D01*
X109777881Y-22087000D01*
X109777873Y-22087000D01*
X109777864Y-22087000D01*
X107682129Y-22087000D01*
X107682123Y-22087001D01*
X107622516Y-22093408D01*
X107487671Y-22143702D01*
X107487664Y-22143706D01*
X107372455Y-22229952D01*
X107372452Y-22229955D01*
X107286206Y-22345164D01*
X107286202Y-22345171D01*
X107235908Y-22480017D01*
X107229501Y-22539616D01*
X107229500Y-22539635D01*
X107229500Y-24540370D01*
X107229501Y-24540376D01*
X107235908Y-24599983D01*
X107286202Y-24734828D01*
X107286206Y-24734835D01*
X107372452Y-24850044D01*
X107372455Y-24850047D01*
X107487664Y-24936293D01*
X107487671Y-24936297D01*
X107622517Y-24986591D01*
X107622516Y-24986591D01*
X107629444Y-24987335D01*
X107682127Y-24993000D01*
X109777872Y-24992999D01*
X109837483Y-24986591D01*
X109972331Y-24936296D01*
X110087546Y-24850046D01*
X110093147Y-24842562D01*
X110000000Y-29500000D01*
X107500000Y-29500000D01*
X107000000Y-28916666D01*
X104529852Y-26034827D01*
X104501169Y-25971116D01*
X104500000Y-25954129D01*
X104500000Y-12039635D01*
X107229500Y-12039635D01*
X107229500Y-14040370D01*
X107229501Y-14040376D01*
X107235908Y-14099983D01*
X107286202Y-14234828D01*
X107286206Y-14234835D01*
X107372452Y-14350044D01*
X107372455Y-14350047D01*
X107487664Y-14436293D01*
X107487671Y-14436297D01*
X107622517Y-14486591D01*
X107622516Y-14486591D01*
X107629444Y-14487335D01*
X107682127Y-14493000D01*
X109777872Y-14492999D01*
X109837483Y-14486591D01*
X109972331Y-14436296D01*
X110087546Y-14350046D01*
X110173796Y-14234831D01*
X110224091Y-14099983D01*
X110230500Y-14040373D01*
X110230499Y-12039628D01*
X110224091Y-11980017D01*
X110173796Y-11845169D01*
X110173795Y-11845168D01*
X110173793Y-11845164D01*
X110087547Y-11729955D01*
X110087544Y-11729952D01*
X109972335Y-11643706D01*
X109972328Y-11643702D01*
X109837482Y-11593408D01*
X109837483Y-11593408D01*
X109777883Y-11587001D01*
X109777881Y-11587000D01*
X109777873Y-11587000D01*
X109777864Y-11587000D01*
X107682129Y-11587000D01*
X107682123Y-11587001D01*
X107622516Y-11593408D01*
X107487671Y-11643702D01*
X107487664Y-11643706D01*
X107372455Y-11729952D01*
X107372452Y-11729955D01*
X107286206Y-11845164D01*
X107286202Y-11845171D01*
X107235908Y-11980017D01*
X107229501Y-12039616D01*
X107229501Y-12039623D01*
X107229500Y-12039635D01*
X104500000Y-12039635D01*
X104500000Y-10026859D01*
X104511115Y-9975547D01*
X105479252Y-7845646D01*
X107229500Y-7845646D01*
X107229500Y-8074353D01*
X107265278Y-8300246D01*
X107265278Y-8300249D01*
X107335950Y-8517755D01*
X107335952Y-8517758D01*
X107439783Y-8721538D01*
X107574214Y-8906566D01*
X107735934Y-9068286D01*
X107920962Y-9202717D01*
X108124742Y-9306548D01*
X108124744Y-9306549D01*
X108342251Y-9377221D01*
X108342252Y-9377221D01*
X108342255Y-9377222D01*
X108568146Y-9413000D01*
X108568147Y-9413000D01*
X108891853Y-9413000D01*
X108891854Y-9413000D01*
X109117745Y-9377222D01*
X109117748Y-9377221D01*
X109117749Y-9377221D01*
X109335255Y-9306549D01*
X109335255Y-9306548D01*
X109335258Y-9306548D01*
X109539038Y-9202717D01*
X109724066Y-9068286D01*
X109885786Y-8906566D01*
X110020217Y-8721538D01*
X110124048Y-8517758D01*
X110194722Y-8300245D01*
X110230500Y-8074354D01*
X110230500Y-7845646D01*
X110194722Y-7619755D01*
X110194721Y-7619751D01*
X110194721Y-7619750D01*
X110124049Y-7402244D01*
X110020216Y-7198461D01*
X109885786Y-7013434D01*
X109724066Y-6851714D01*
X109539038Y-6717283D01*
X109335255Y-6613450D01*
X109117748Y-6542778D01*
X108948326Y-6515944D01*
X108891854Y-6507000D01*
X108568146Y-6507000D01*
X108492849Y-6518926D01*
X108342253Y-6542778D01*
X108342250Y-6542778D01*
X108124744Y-6613450D01*
X107920961Y-6717283D01*
X107815396Y-6793980D01*
X107735934Y-6851714D01*
X107735932Y-6851716D01*
X107735931Y-6851716D01*
X107574216Y-7013431D01*
X107574216Y-7013432D01*
X107574214Y-7013434D01*
X107516480Y-7092896D01*
X107439783Y-7198461D01*
X107335950Y-7402244D01*
X107265278Y-7619750D01*
X107265278Y-7619753D01*
X107229500Y-7845646D01*
X105479252Y-7845646D01*
X105504790Y-7789462D01*
X106716733Y-5123188D01*
X106762394Y-5070303D01*
X106829398Y-5050500D01*
X110488990Y-5050500D01*
X110223918Y-18304089D01*
G37*
%TD.AperFunction*%
%TD*%
M02*
