%TF.GenerationSoftware,KiCad,Pcbnew,9.0.2*%
%TF.CreationDate,2025-07-09T11:25:24+10:00*%
%TF.ProjectId,kicad_board,6b696361-645f-4626-9f61-72642e6b6963,rev?*%
%TF.SameCoordinates,Original*%
%TF.FileFunction,Copper,L1,Top*%
%TF.FilePolarity,Positive*%
%FSLAX46Y46*%
G04 Gerber Fmt 4.6, Leading zero omitted, Abs format (unit mm)*
G04 Created by KiCad (PCBNEW 9.0.2) date 2025-07-09 11:25:24*
%MOMM*%
%LPD*%
G01*
G04 APERTURE LIST*
G04 Aperture macros list*
%AMRoundRect*
0 Rectangle with rounded corners*
0 $1 Rounding radius*
0 $2 $3 $4 $5 $6 $7 $8 $9 X,Y pos of 4 corners*
0 Add a 4 corners polygon primitive as box body*
4,1,4,$2,$3,$4,$5,$6,$7,$8,$9,$2,$3,0*
0 Add four circle primitives for the rounded corners*
1,1,$1+$1,$2,$3*
1,1,$1+$1,$4,$5*
1,1,$1+$1,$6,$7*
1,1,$1+$1,$8,$9*
0 Add four rect primitives between the rounded corners*
20,1,$1+$1,$2,$3,$4,$5,0*
20,1,$1+$1,$4,$5,$6,$7,0*
20,1,$1+$1,$6,$7,$8,$9,0*
20,1,$1+$1,$8,$9,$2,$3,0*%
%AMOutline5P*
0 Free polygon, 5 corners , with rotation*
0 The origin of the aperture is its center*
0 number of corners: always 5*
0 $1 to $10 corner X, Y*
0 $11 Rotation angle, in degrees counterclockwise*
0 create outline with 5 corners*
4,1,5,$1,$2,$3,$4,$5,$6,$7,$8,$9,$10,$1,$2,$11*%
%AMOutline6P*
0 Free polygon, 6 corners , with rotation*
0 The origin of the aperture is its center*
0 number of corners: always 6*
0 $1 to $12 corner X, Y*
0 $13 Rotation angle, in degrees counterclockwise*
0 create outline with 6 corners*
4,1,6,$1,$2,$3,$4,$5,$6,$7,$8,$9,$10,$11,$12,$1,$2,$13*%
%AMOutline7P*
0 Free polygon, 7 corners , with rotation*
0 The origin of the aperture is its center*
0 number of corners: always 7*
0 $1 to $14 corner X, Y*
0 $15 Rotation angle, in degrees counterclockwise*
0 create outline with 7 corners*
4,1,7,$1,$2,$3,$4,$5,$6,$7,$8,$9,$10,$11,$12,$13,$14,$1,$2,$15*%
%AMOutline8P*
0 Free polygon, 8 corners , with rotation*
0 The origin of the aperture is its center*
0 number of corners: always 8*
0 $1 to $16 corner X, Y*
0 $17 Rotation angle, in degrees counterclockwise*
0 create outline with 8 corners*
4,1,8,$1,$2,$3,$4,$5,$6,$7,$8,$9,$10,$11,$12,$13,$14,$15,$16,$1,$2,$17*%
G04 Aperture macros list end*
%TA.AperFunction,SMDPad,CuDef*%
%ADD10RoundRect,0.150000X0.587500X0.150000X-0.587500X0.150000X-0.587500X-0.150000X0.587500X-0.150000X0*%
%TD*%
%TA.AperFunction,SMDPad,CuDef*%
%ADD11RoundRect,0.250000X-0.400000X-0.625000X0.400000X-0.625000X0.400000X0.625000X-0.400000X0.625000X0*%
%TD*%
%TA.AperFunction,SMDPad,CuDef*%
%ADD12RoundRect,0.250000X0.625000X-0.400000X0.625000X0.400000X-0.625000X0.400000X-0.625000X-0.400000X0*%
%TD*%
%TA.AperFunction,ComponentPad*%
%ADD13O,2.000000X1.905000*%
%TD*%
%TA.AperFunction,ComponentPad*%
%ADD14R,2.000000X1.905000*%
%TD*%
%TA.AperFunction,ComponentPad*%
%ADD15C,1.000000*%
%TD*%
%TA.AperFunction,ComponentPad*%
%ADD16R,1.000000X1.000000*%
%TD*%
%TA.AperFunction,SMDPad,CuDef*%
%ADD17RoundRect,0.250000X-0.650000X0.412500X-0.650000X-0.412500X0.650000X-0.412500X0.650000X0.412500X0*%
%TD*%
%TA.AperFunction,SMDPad,CuDef*%
%ADD18RoundRect,0.250000X-0.412500X-0.650000X0.412500X-0.650000X0.412500X0.650000X-0.412500X0.650000X0*%
%TD*%
%TA.AperFunction,SMDPad,CuDef*%
%ADD19RoundRect,0.250000X0.400000X0.625000X-0.400000X0.625000X-0.400000X-0.625000X0.400000X-0.625000X0*%
%TD*%
%TA.AperFunction,SMDPad,CuDef*%
%ADD20R,0.500000X0.600000*%
%TD*%
%TA.AperFunction,SMDPad,CuDef*%
%ADD21R,1.250000X1.000000*%
%TD*%
%TA.AperFunction,SMDPad,CuDef*%
%ADD22RoundRect,0.250000X-0.830000X-0.310000X0.830000X-0.310000X0.830000X0.310000X-0.830000X0.310000X0*%
%TD*%
%TA.AperFunction,SMDPad,CuDef*%
%ADD23RoundRect,0.250000X0.650000X-0.412500X0.650000X0.412500X-0.650000X0.412500X-0.650000X-0.412500X0*%
%TD*%
%TA.AperFunction,SMDPad,CuDef*%
%ADD24R,0.800000X0.800000*%
%TD*%
%TA.AperFunction,HeatsinkPad*%
%ADD25R,1.200000X1.200000*%
%TD*%
%TA.AperFunction,HeatsinkPad*%
%ADD26Outline5P,-0.600000X0.204000X-0.204000X0.600000X0.600000X0.600000X0.600000X-0.600000X-0.600000X-0.600000X0.000000*%
%TD*%
%TA.AperFunction,SMDPad,CuDef*%
%ADD27R,0.400000X0.800000*%
%TD*%
%TA.AperFunction,SMDPad,CuDef*%
%ADD28R,0.800000X0.400000*%
%TD*%
%TA.AperFunction,SMDPad,CuDef*%
%ADD29RoundRect,0.150000X-0.587500X-0.150000X0.587500X-0.150000X0.587500X0.150000X-0.587500X0.150000X0*%
%TD*%
%TA.AperFunction,SMDPad,CuDef*%
%ADD30RoundRect,0.250001X0.624999X-0.462499X0.624999X0.462499X-0.624999X0.462499X-0.624999X-0.462499X0*%
%TD*%
%TA.AperFunction,SMDPad,CuDef*%
%ADD31RoundRect,0.250000X-0.625000X0.400000X-0.625000X-0.400000X0.625000X-0.400000X0.625000X0.400000X0*%
%TD*%
%TA.AperFunction,SMDPad,CuDef*%
%ADD32RoundRect,0.150000X-0.512500X-0.150000X0.512500X-0.150000X0.512500X0.150000X-0.512500X0.150000X0*%
%TD*%
%TA.AperFunction,SMDPad,CuDef*%
%ADD33RoundRect,0.050000X0.285000X0.100000X-0.285000X0.100000X-0.285000X-0.100000X0.285000X-0.100000X0*%
%TD*%
%TA.AperFunction,ViaPad*%
%ADD34C,0.600000*%
%TD*%
%TA.AperFunction,Conductor*%
%ADD35C,0.200000*%
%TD*%
%TA.AperFunction,Conductor*%
%ADD36C,0.400000*%
%TD*%
G04 APERTURE END LIST*
D10*
%TO.P,Q6,3,C*%
%TO.N,Net-(Q6-C)*%
X91187500Y-31000000D03*
%TO.P,Q6,2,E*%
%TO.N,GND*%
X93062500Y-30050000D03*
%TO.P,Q6,1,B*%
%TO.N,Net-(Q6-B)*%
X93062500Y-31950000D03*
%TD*%
D11*
%TO.P,R6,2*%
%TO.N,Net-(Q6-C)*%
X91675000Y-34450000D03*
%TO.P,R6,1*%
%TO.N,Net-(Q8-B)*%
X88575000Y-34450000D03*
%TD*%
D12*
%TO.P,R5,2*%
%TO.N,GND*%
X95625000Y-29450000D03*
%TO.P,R5,1*%
%TO.N,Net-(Q6-B)*%
X95625000Y-32550000D03*
%TD*%
D10*
%TO.P,Q8,3,C*%
%TO.N,+12V*%
X86625000Y-31000000D03*
%TO.P,Q8,2,E*%
%TO.N,Net-(Q3-G)*%
X88500000Y-30050000D03*
%TO.P,Q8,1,B*%
%TO.N,Net-(Q8-B)*%
X88500000Y-31950000D03*
%TD*%
D11*
%TO.P,R4,2*%
%TO.N,/Motor Controller/Motor_Signal_FWD*%
X101550000Y-32500000D03*
%TO.P,R4,1*%
%TO.N,Net-(Q6-B)*%
X98450000Y-32500000D03*
%TD*%
%TO.P,R8,2*%
%TO.N,GND*%
X92175000Y-27500000D03*
%TO.P,R8,1*%
%TO.N,Net-(Q3-G)*%
X89075000Y-27500000D03*
%TD*%
D13*
%TO.P,Q2,3,S*%
%TO.N,Net-(J1-Pin_1)*%
X108730000Y-7960000D03*
%TO.P,Q2,2,D*%
%TO.N,+12V*%
X108730000Y-10500000D03*
D14*
%TO.P,Q2,1,G*%
%TO.N,Net-(Q1-G)*%
X108730000Y-13040000D03*
%TD*%
%TO.P,Q3,1,G*%
%TO.N,Net-(Q3-G)*%
X108730000Y-23540000D03*
D13*
%TO.P,Q3,2,D*%
%TO.N,+12V*%
X108730000Y-21000000D03*
%TO.P,Q3,3,S*%
%TO.N,Net-(J1-Pin_2)*%
X108730000Y-18460000D03*
%TD*%
D15*
%TO.P,J5,4,Pin_4*%
%TO.N,GND*%
X50200000Y-27810000D03*
%TO.P,J5,3,Pin_3*%
%TO.N,Net-(J5-Pin_3)*%
X50200000Y-26540000D03*
%TO.P,J5,2,Pin_2*%
%TO.N,Net-(J5-Pin_2)*%
X50200000Y-25270000D03*
D16*
%TO.P,J5,1,Pin_1*%
%TO.N,+3V3*%
X50200000Y-24000000D03*
%TD*%
D15*
%TO.P,J6,6,Pin_6*%
%TO.N,Net-(J6-Pin_6)*%
X50200000Y-21040000D03*
%TO.P,J6,5,Pin_5*%
%TO.N,Net-(J6-Pin_5)*%
X50200000Y-19770000D03*
%TO.P,J6,4,Pin_4*%
%TO.N,Net-(J6-Pin_4)*%
X50200000Y-18500000D03*
%TO.P,J6,3,Pin_3*%
%TO.N,Net-(J6-Pin_3)*%
X50200000Y-17230000D03*
%TO.P,J6,2,Pin_2*%
%TO.N,Net-(J6-Pin_2)*%
X50200000Y-15960000D03*
D16*
%TO.P,J6,1,Pin_1*%
%TO.N,GND*%
X50200000Y-14690000D03*
%TD*%
D15*
%TO.P,J4,4,Pin_4*%
%TO.N,Net-(J4-Pin_4)*%
X18200000Y-26770000D03*
%TO.P,J4,3,Pin_3*%
%TO.N,Net-(J4-Pin_3)*%
X18200000Y-25500000D03*
%TO.P,J4,2,Pin_2*%
%TO.N,Net-(J4-Pin_2)*%
X18200000Y-24230000D03*
D16*
%TO.P,J4,1,Pin_1*%
%TO.N,Net-(J4-Pin_1)*%
X18200000Y-22960000D03*
%TD*%
D11*
%TO.P,R12,2*%
%TO.N,Net-(U3-IO2)*%
X25250000Y-23500000D03*
%TO.P,R12,1*%
%TO.N,+3V3*%
X22150000Y-23500000D03*
%TD*%
D17*
%TO.P,C7,2*%
%TO.N,GND*%
X54000000Y-23125000D03*
%TO.P,C7,1*%
%TO.N,Net-(C7-Pad1)*%
X54000000Y-20000000D03*
%TD*%
D18*
%TO.P,C11,2*%
%TO.N,GND*%
X31762500Y-9000000D03*
%TO.P,C11,1*%
%TO.N,+3V3*%
X28637500Y-9000000D03*
%TD*%
%TO.P,C13,2*%
%TO.N,Net-(U3-IO0)*%
X25762500Y-16000000D03*
%TO.P,C13,1*%
%TO.N,GND*%
X22637500Y-16000000D03*
%TD*%
D19*
%TO.P,R14,2*%
%TO.N,+3V3*%
X25150000Y-28500000D03*
%TO.P,R14,1*%
%TO.N,Net-(U3-IO8)*%
X28250000Y-28500000D03*
%TD*%
D20*
%TO.P,Y1,4*%
%TO.N,N/C*%
X25210000Y-19075000D03*
%TO.P,Y1,3*%
X25210000Y-17975000D03*
%TO.P,Y1,2,2*%
%TO.N,Net-(U3-IO0)*%
X26010000Y-17975000D03*
%TO.P,Y1,1,1*%
%TO.N,Net-(U3-IO1)*%
X26010000Y-19075000D03*
%TD*%
D18*
%TO.P,C10,2*%
%TO.N,GND*%
X31762500Y-12000000D03*
%TO.P,C10,1*%
%TO.N,+3V3*%
X28637500Y-12000000D03*
%TD*%
D17*
%TO.P,C12,2*%
%TO.N,Net-(U3-EN)*%
X52000000Y-12062500D03*
%TO.P,C12,1*%
%TO.N,GND*%
X52000000Y-8937500D03*
%TD*%
D21*
%TO.P,SW1,2,2*%
%TO.N,Net-(U3-EN)*%
X41575000Y-10500000D03*
%TO.P,SW1,1,1*%
%TO.N,GND*%
X33825000Y-10500000D03*
%TD*%
D17*
%TO.P,C9,2*%
%TO.N,Net-(U3-EN)*%
X44000000Y-12062500D03*
%TO.P,C9,1*%
%TO.N,GND*%
X44000000Y-8937500D03*
%TD*%
D12*
%TO.P,R13,2*%
%TO.N,+3V3*%
X48000000Y-8950000D03*
%TO.P,R13,1*%
%TO.N,Net-(U3-EN)*%
X48000000Y-12050000D03*
%TD*%
%TO.P,R10,2*%
%TO.N,Net-(C7-Pad1)*%
X56500000Y-20062500D03*
%TO.P,R10,1*%
%TO.N,Net-(U3-USB_D+)*%
X56500000Y-23162500D03*
%TD*%
D22*
%TO.P,SW2,2,B*%
%TO.N,Net-(SW2-B)*%
X24365000Y-32500000D03*
%TO.P,SW2,1,A*%
%TO.N,GND*%
X17635000Y-32500000D03*
%TD*%
D23*
%TO.P,C8,2*%
%TO.N,Net-(C8-Pad2)*%
X61556150Y-19965693D03*
%TO.P,C8,1*%
%TO.N,GND*%
X61556150Y-23090693D03*
%TD*%
D12*
%TO.P,R9,2*%
%TO.N,Net-(C8-Pad2)*%
X59000000Y-19950000D03*
%TO.P,R9,1*%
%TO.N,Net-(U3-USB_D-)*%
X59000000Y-23050000D03*
%TD*%
D18*
%TO.P,C14,2*%
%TO.N,Net-(U3-IO1)*%
X25762500Y-21000000D03*
%TO.P,C14,1*%
%TO.N,GND*%
X22637500Y-21000000D03*
%TD*%
D24*
%TO.P,U3,65,GND*%
%TO.N,GND*%
X44650000Y-14500000D03*
%TO.P,U3,64,GND*%
X44650000Y-28500000D03*
%TO.P,U3,63,GND*%
X30650000Y-28500000D03*
%TO.P,U3,62,GND*%
X30650000Y-14500000D03*
D25*
%TO.P,U3,61,GND*%
X39300000Y-23150000D03*
X39300000Y-21500000D03*
X39300000Y-19850000D03*
X37650000Y-23150000D03*
X37650000Y-21500000D03*
X37650000Y-19850000D03*
X36000000Y-23150000D03*
X36000000Y-21500000D03*
D26*
X36000000Y-19850000D03*
D27*
%TO.P,U3,60,GND*%
X31700000Y-14500000D03*
%TO.P,U3,59,GND*%
X32550000Y-14500000D03*
%TO.P,U3,58,GND*%
X33400000Y-14500000D03*
%TO.P,U3,57,GND*%
X34250000Y-14500000D03*
%TO.P,U3,56,GND*%
X35100000Y-14500000D03*
%TO.P,U3,55,GND*%
X35950000Y-14500000D03*
%TO.P,U3,54,GND*%
X36800000Y-14500000D03*
%TO.P,U3,53,GND*%
X37650000Y-14500000D03*
%TO.P,U3,52,GND*%
X38500000Y-14500000D03*
%TO.P,U3,51,GND*%
X39350000Y-14500000D03*
%TO.P,U3,50,GND*%
X40200000Y-14500000D03*
%TO.P,U3,49,GND*%
X41050000Y-14500000D03*
%TO.P,U3,48,GND*%
X41900000Y-14500000D03*
%TO.P,U3,47,GND*%
X42750000Y-14500000D03*
%TO.P,U3,46,GND*%
X43600000Y-14500000D03*
D28*
%TO.P,U3,45,EN*%
%TO.N,Net-(U3-EN)*%
X44650000Y-15550000D03*
%TO.P,U3,44,IO46*%
%TO.N,unconnected-(U3-IO46-Pad44)*%
X44650000Y-16400000D03*
%TO.P,U3,43,GND*%
%TO.N,GND*%
X44650000Y-17250000D03*
%TO.P,U3,42,GND*%
X44650000Y-18100000D03*
%TO.P,U3,41,IO45*%
%TO.N,unconnected-(U3-IO45-Pad41)*%
X44650000Y-18950000D03*
%TO.P,U3,40,RXD0*%
%TO.N,unconnected-(U3-RXD0-Pad40)*%
X44650000Y-19800000D03*
%TO.P,U3,39,TXD0*%
%TO.N,unconnected-(U3-TXD0-Pad39)*%
X44650000Y-20650000D03*
%TO.P,U3,38,IO42*%
%TO.N,unconnected-(U3-IO42-Pad38)*%
X44650000Y-21500000D03*
%TO.P,U3,37,IO41*%
%TO.N,Net-(J6-Pin_2)*%
X44650000Y-22350000D03*
%TO.P,U3,36,IO40*%
%TO.N,Net-(J6-Pin_3)*%
X44650000Y-23200000D03*
%TO.P,U3,35,IO39*%
%TO.N,Net-(J6-Pin_4)*%
X44650000Y-24050000D03*
%TO.P,U3,34,IO38*%
%TO.N,Net-(J6-Pin_5)*%
X44650000Y-24900000D03*
%TO.P,U3,33,IO37*%
%TO.N,Net-(J6-Pin_6)*%
X44650000Y-25750000D03*
%TO.P,U3,32,IO36*%
%TO.N,Net-(J5-Pin_2)*%
X44650000Y-26600000D03*
%TO.P,U3,31,IO35*%
%TO.N,Net-(J5-Pin_3)*%
X44650000Y-27450000D03*
D27*
%TO.P,U3,30,IO48*%
%TO.N,unconnected-(U3-IO48-Pad30)*%
X43600000Y-28500000D03*
%TO.P,U3,29,IO34*%
%TO.N,unconnected-(U3-IO34-Pad29)*%
X42750000Y-28500000D03*
%TO.P,U3,28,IO33*%
%TO.N,unconnected-(U3-IO33-Pad28)*%
X41900000Y-28500000D03*
%TO.P,U3,27,IO47*%
%TO.N,unconnected-(U3-IO47-Pad27)*%
X41050000Y-28500000D03*
%TO.P,U3,26,IO26*%
%TO.N,unconnected-(U3-IO26-Pad26)*%
X40200000Y-28500000D03*
%TO.P,U3,25,IO21*%
%TO.N,unconnected-(U3-IO21-Pad25)*%
X39350000Y-28500000D03*
%TO.P,U3,24,USB_D+*%
%TO.N,Net-(U3-USB_D+)*%
X38500000Y-28500000D03*
%TO.P,U3,23,USB_D-*%
%TO.N,Net-(U3-USB_D-)*%
X37650000Y-28500000D03*
%TO.P,U3,22,IO18*%
%TO.N,unconnected-(U3-IO18-Pad22)*%
X36800000Y-28500000D03*
%TO.P,U3,21,IO17*%
%TO.N,unconnected-(U3-IO17-Pad21)*%
X35950000Y-28500000D03*
%TO.P,U3,20,IO16*%
%TO.N,unconnected-(U3-IO16-Pad20)*%
X35100000Y-28500000D03*
%TO.P,U3,19,IO15*%
%TO.N,unconnected-(U3-IO15-Pad19)*%
X34250000Y-28500000D03*
%TO.P,U3,18,IO14*%
%TO.N,unconnected-(U3-IO14-Pad18)*%
X33400000Y-28500000D03*
%TO.P,U3,17,IO13*%
%TO.N,/Motor Controller/Motor_Signal_BACK*%
X32550000Y-28500000D03*
%TO.P,U3,16,IO12*%
%TO.N,/Motor Controller/Motor_Signal_FWD*%
X31700000Y-28500000D03*
D28*
%TO.P,U3,15,IO11*%
%TO.N,unconnected-(U3-IO11-Pad15)*%
X30650000Y-27450000D03*
%TO.P,U3,14,IO10*%
%TO.N,unconnected-(U3-IO10-Pad14)*%
X30650000Y-26600000D03*
%TO.P,U3,13,IO9*%
%TO.N,Net-(SW2-B)*%
X30650000Y-25750000D03*
%TO.P,U3,12,IO8*%
%TO.N,Net-(U3-IO8)*%
X30650000Y-24900000D03*
%TO.P,U3,11,IO7*%
%TO.N,Net-(J4-Pin_4)*%
X30650000Y-24050000D03*
%TO.P,U3,10,IO6*%
%TO.N,Net-(J4-Pin_3)*%
X30650000Y-23200000D03*
%TO.P,U3,9,IO5*%
%TO.N,Net-(J4-Pin_2)*%
X30650000Y-22350000D03*
%TO.P,U3,8,IO4*%
%TO.N,Net-(J4-Pin_1)*%
X30650000Y-21500000D03*
%TO.P,U3,7,IO3*%
%TO.N,unconnected-(U3-IO3-Pad7)*%
X30650000Y-20650000D03*
%TO.P,U3,6,IO2*%
%TO.N,Net-(U3-IO2)*%
X30650000Y-19800000D03*
%TO.P,U3,5,IO1*%
%TO.N,Net-(U3-IO1)*%
X30650000Y-18950000D03*
%TO.P,U3,4,IO0*%
%TO.N,Net-(U3-IO0)*%
X30650000Y-18100000D03*
%TO.P,U3,3,3V3*%
%TO.N,+3V3*%
X30650000Y-17250000D03*
%TO.P,U3,2,GND*%
%TO.N,GND*%
X30650000Y-16400000D03*
%TO.P,U3,1,GND*%
X30650000Y-15550000D03*
%TD*%
D16*
%TO.P,J3,1,Pin_1*%
%TO.N,+12V*%
X2270000Y-35500000D03*
D15*
%TO.P,J3,2,Pin_2*%
%TO.N,GND*%
X1000000Y-35500000D03*
%TD*%
D16*
%TO.P,J1,1,Pin_1*%
%TO.N,Net-(J1-Pin_1)*%
X65500000Y-6500000D03*
D15*
%TO.P,J1,2,Pin_2*%
%TO.N,Net-(J1-Pin_2)*%
X65500000Y-7770000D03*
%TD*%
D29*
%TO.P,Q7,1,B*%
%TO.N,Net-(Q7-B)*%
X80662500Y-30328750D03*
%TO.P,Q7,2,E*%
%TO.N,Net-(Q1-G)*%
X80662500Y-32228750D03*
%TO.P,Q7,3,C*%
%TO.N,+12V*%
X82537500Y-31278750D03*
%TD*%
D30*
%TO.P,L1,1,1*%
%TO.N,Net-(U1-SW)*%
X13562500Y-30487500D03*
%TO.P,L1,2,2*%
%TO.N,+5V*%
X13562500Y-27512500D03*
%TD*%
D31*
%TO.P,R2,1*%
%TO.N,Net-(Q5-B)*%
X73600000Y-29278750D03*
%TO.P,R2,2*%
%TO.N,GND*%
X73600000Y-32378750D03*
%TD*%
D18*
%TO.P,C3,1*%
%TO.N,+5V*%
X4500000Y-27500000D03*
%TO.P,C3,2*%
%TO.N,GND*%
X7625000Y-27500000D03*
%TD*%
D32*
%TO.P,U2,1,FB*%
%TO.N,+3V3*%
X4862500Y-17612500D03*
%TO.P,U2,2,EN*%
%TO.N,Net-(U2-EN)*%
X4862500Y-18562500D03*
%TO.P,U2,3,IN*%
X4862500Y-19512500D03*
%TO.P,U2,4,GND*%
%TO.N,GND*%
X7137500Y-19512500D03*
%TO.P,U2,5,SW*%
%TO.N,Net-(U2-SW)*%
X7137500Y-18562500D03*
%TO.P,U2,6,BST*%
%TO.N,Net-(U2-BST)*%
X7137500Y-17612500D03*
%TD*%
D17*
%TO.P,C5,1*%
%TO.N,Net-(U2-BST)*%
X10000000Y-16000000D03*
%TO.P,C5,2*%
%TO.N,Net-(U2-SW)*%
X10000000Y-19125000D03*
%TD*%
D18*
%TO.P,C1,1*%
%TO.N,+12V*%
X5000000Y-34500000D03*
%TO.P,C1,2*%
%TO.N,GND*%
X8125000Y-34500000D03*
%TD*%
%TO.P,C6,1*%
%TO.N,+3V3*%
X4437500Y-15062500D03*
%TO.P,C6,2*%
%TO.N,GND*%
X7562500Y-15062500D03*
%TD*%
D13*
%TO.P,Q1,3,S*%
%TO.N,Net-(J1-Pin_2)*%
X87230000Y-18460000D03*
%TO.P,Q1,2,D*%
%TO.N,GND*%
X87230000Y-21000000D03*
D14*
%TO.P,Q1,1,G*%
%TO.N,Net-(Q1-G)*%
X87230000Y-23540000D03*
%TD*%
D18*
%TO.P,C4,1*%
%TO.N,Net-(U2-EN)*%
X4437500Y-22062500D03*
%TO.P,C4,2*%
%TO.N,GND*%
X7562500Y-22062500D03*
%TD*%
D14*
%TO.P,Q4,1,G*%
%TO.N,Net-(Q3-G)*%
X87160000Y-13040000D03*
D13*
%TO.P,Q4,2,D*%
%TO.N,GND*%
X87160000Y-10500000D03*
%TO.P,Q4,3,S*%
%TO.N,Net-(J1-Pin_1)*%
X87160000Y-7960000D03*
%TD*%
D32*
%TO.P,U1,1,FB*%
%TO.N,+5V*%
X5425000Y-30050000D03*
%TO.P,U1,2,EN*%
%TO.N,+12V*%
X5425000Y-31000000D03*
%TO.P,U1,3,IN*%
X5425000Y-31950000D03*
%TO.P,U1,4,GND*%
%TO.N,GND*%
X7700000Y-31950000D03*
%TO.P,U1,5,SW*%
%TO.N,Net-(U1-SW)*%
X7700000Y-31000000D03*
%TO.P,U1,6,BST*%
%TO.N,Net-(U1-BST)*%
X7700000Y-30050000D03*
%TD*%
D30*
%TO.P,L2,1,1*%
%TO.N,Net-(U2-SW)*%
X13000000Y-19050000D03*
%TO.P,L2,2,2*%
%TO.N,+3V3*%
X13000000Y-16075000D03*
%TD*%
D19*
%TO.P,R3,1*%
%TO.N,Net-(Q7-B)*%
X80600000Y-27500000D03*
%TO.P,R3,2*%
%TO.N,Net-(Q5-C)*%
X77500000Y-27500000D03*
%TD*%
D17*
%TO.P,C2,1*%
%TO.N,Net-(U1-BST)*%
X10562500Y-27437500D03*
%TO.P,C2,2*%
%TO.N,Net-(U1-SW)*%
X10562500Y-30562500D03*
%TD*%
D12*
%TO.P,R11,1*%
%TO.N,+5V*%
X1500000Y-31050000D03*
%TO.P,R11,2*%
%TO.N,Net-(U4-ST)*%
X1500000Y-27950000D03*
%TD*%
D19*
%TO.P,R7,1*%
%TO.N,Net-(Q1-G)*%
X80150000Y-34828750D03*
%TO.P,R7,2*%
%TO.N,GND*%
X77050000Y-34828750D03*
%TD*%
D31*
%TO.P,R1,1*%
%TO.N,Net-(Q5-B)*%
X70662500Y-29278750D03*
%TO.P,R1,2*%
%TO.N,/Motor Controller/Motor_Signal_BACK*%
X70662500Y-32378750D03*
%TD*%
D29*
%TO.P,Q5,1,B*%
%TO.N,Net-(Q5-B)*%
X76032500Y-30128750D03*
%TO.P,Q5,2,E*%
%TO.N,GND*%
X76032500Y-32028750D03*
%TO.P,Q5,3,C*%
%TO.N,Net-(Q5-C)*%
X77907500Y-31078750D03*
%TD*%
D33*
%TO.P,U4,1,GND*%
%TO.N,GND*%
X2240000Y-25750000D03*
%TO.P,U4,2,Vout*%
%TO.N,Net-(U2-EN)*%
X2240000Y-25250000D03*
%TO.P,U4,3,Vin1*%
%TO.N,+5V*%
X2240000Y-24750000D03*
%TO.P,U4,4,On*%
%TO.N,GND*%
X2240000Y-24250000D03*
%TO.P,U4,5,GND*%
X760000Y-24250000D03*
%TO.P,U4,6,Vin2*%
%TO.N,VBUS*%
X760000Y-24750000D03*
%TO.P,U4,7,Vout*%
%TO.N,Net-(U2-EN)*%
X760000Y-25250000D03*
%TO.P,U4,8,ST*%
%TO.N,Net-(U4-ST)*%
X760000Y-25750000D03*
%TD*%
D34*
%TO.N,GND*%
X30500000Y-13500000D03*
X44500000Y-13500000D03*
X30500000Y-29500000D03*
X46000000Y-28500000D03*
X54000000Y-22000000D03*
X63000000Y-23000000D03*
%TO.N,+12V*%
X84000000Y-35500000D03*
X85000000Y-35500000D03*
%TO.N,GND*%
X52000000Y-10500000D03*
X44000000Y-10500000D03*
X34000000Y-8500000D03*
X34000000Y-12000000D03*
X43500000Y-27000000D03*
X32000000Y-27000000D03*
X32000000Y-16000000D03*
X43500000Y-16000000D03*
X39500000Y-24500000D03*
X38000000Y-24500000D03*
X36000000Y-24500000D03*
X37500000Y-18000000D03*
X39500000Y-18000000D03*
X36000000Y-18000000D03*
X41000000Y-23500000D03*
X41000000Y-21500000D03*
X41000000Y-19500000D03*
X34500000Y-21500000D03*
X34500000Y-23500000D03*
X34500000Y-19500000D03*
X22500000Y-18500000D03*
X16000000Y-32500000D03*
X1500000Y-22500000D03*
X3500000Y-24000000D03*
X2500000Y-26500000D03*
X7500000Y-20500000D03*
X9000000Y-20500000D03*
X9000000Y-22500000D03*
X9000000Y-32000000D03*
X10500000Y-34500000D03*
X10500000Y-32000000D03*
X73500000Y-34000000D03*
X94000000Y-27000000D03*
X96000000Y-27000000D03*
X75500000Y-33500000D03*
%TO.N,+12V*%
X69000000Y-36500000D03*
X70500000Y-36000000D03*
%TD*%
D35*
%TO.N,GND*%
X6736500Y-31688968D02*
X6736500Y-28388500D01*
X6997532Y-31950000D02*
X6736500Y-31688968D01*
X6736500Y-28388500D02*
X7625000Y-27500000D01*
X7700000Y-31950000D02*
X6997532Y-31950000D01*
X6000000Y-17000000D02*
X6000000Y-20000000D01*
X6500000Y-16500000D02*
X6000000Y-17000000D01*
X63000000Y-23000000D02*
X61646843Y-23000000D01*
X61646843Y-23000000D02*
X61556150Y-23090693D01*
X54000000Y-23125000D02*
X54000000Y-22000000D01*
%TO.N,Net-(U1-SW)*%
X10125000Y-31000000D02*
X7700000Y-31000000D01*
X10562500Y-30562500D02*
X10125000Y-31000000D01*
%TO.N,+5V*%
X4750000Y-24750000D02*
X5000000Y-25000000D01*
X2240000Y-24750000D02*
X4750000Y-24750000D01*
%TO.N,Net-(U2-SW)*%
X9437500Y-18562500D02*
X7137500Y-18562500D01*
X10000000Y-19125000D02*
X9437500Y-18562500D01*
%TO.N,+3V3*%
X52500000Y-7500000D02*
X46000000Y-7500000D01*
X53500000Y-8500000D02*
X52500000Y-7500000D01*
X53500000Y-12500000D02*
X53500000Y-8500000D01*
X51500000Y-14500000D02*
X53500000Y-12500000D01*
X51500000Y-22700000D02*
X51500000Y-14500000D01*
X50200000Y-24000000D02*
X51500000Y-22700000D01*
X46550000Y-7500000D02*
X46000000Y-7500000D01*
%TO.N,VBUS*%
X1500000Y-21500000D02*
X1500000Y-20000000D01*
X500000Y-22500000D02*
X1500000Y-21500000D01*
X0Y-24000000D02*
X0Y-23000000D01*
X0Y-24500000D02*
X0Y-24000000D01*
X250000Y-24750000D02*
X0Y-24500000D01*
X0Y-23000000D02*
X500000Y-22500000D01*
X760000Y-24750000D02*
X250000Y-24750000D01*
%TO.N,GND*%
X760000Y-23240000D02*
X760000Y-24250000D01*
X1500000Y-22500000D02*
X760000Y-23240000D01*
%TO.N,Net-(U2-EN)*%
X1500000Y-24500000D02*
X1500000Y-23500000D01*
X1500000Y-23500000D02*
X2500000Y-22500000D01*
X1500000Y-25250000D02*
X1500000Y-24500000D01*
X1500000Y-25250000D02*
X760000Y-25250000D01*
X2240000Y-25250000D02*
X1500000Y-25250000D01*
%TO.N,+5V*%
X2450000Y-31050000D02*
X3500000Y-30000000D01*
X1500000Y-31050000D02*
X2450000Y-31050000D01*
%TO.N,+12V*%
X84000000Y-32741250D02*
X82537500Y-31278750D01*
X84000000Y-35500000D02*
X84000000Y-32741250D01*
X85000000Y-32625000D02*
X85000000Y-35500000D01*
X86625000Y-31000000D02*
X85000000Y-32625000D01*
%TO.N,/Motor Controller/Motor_Signal_BACK*%
X32550000Y-28852000D02*
X32550000Y-28500000D01*
X36076750Y-32378750D02*
X32550000Y-28852000D01*
X70662500Y-32378750D02*
X36076750Y-32378750D01*
%TO.N,/Motor Controller/Motor_Signal_FWD*%
X31700000Y-30952000D02*
X31700000Y-28500000D01*
X35748000Y-35000000D02*
X31700000Y-30952000D01*
X71000000Y-35000000D02*
X35748000Y-35000000D01*
X72500000Y-36500000D02*
X71000000Y-35000000D01*
X97550000Y-36500000D02*
X72500000Y-36500000D01*
X101550000Y-32500000D02*
X97550000Y-36500000D01*
%TO.N,Net-(Q6-B)*%
X93662500Y-32550000D02*
X95625000Y-32550000D01*
X93062500Y-31950000D02*
X93662500Y-32550000D01*
X95675000Y-32500000D02*
X95625000Y-32550000D01*
X98450000Y-32500000D02*
X95675000Y-32500000D01*
%TO.N,+3V3*%
X28000000Y-8500000D02*
X27500000Y-8500000D01*
X29000000Y-7500000D02*
X28000000Y-8500000D01*
X46000000Y-7500000D02*
X29000000Y-7500000D01*
X48000000Y-8950000D02*
X46550000Y-7500000D01*
X18000000Y-20000000D02*
X18000000Y-15000000D01*
X18500000Y-20500000D02*
X18000000Y-20000000D01*
X22150000Y-23500000D02*
X21500000Y-23500000D01*
X21500000Y-23500000D02*
X18500000Y-20500000D01*
X16500000Y-28000000D02*
X16500000Y-15000000D01*
X17000000Y-28500000D02*
X16500000Y-28000000D01*
X25150000Y-28500000D02*
X17000000Y-28500000D01*
%TO.N,GND*%
X16000000Y-32500000D02*
X17635000Y-32500000D01*
X2240000Y-26240000D02*
X2500000Y-26500000D01*
X2240000Y-25750000D02*
X2240000Y-26240000D01*
X3250000Y-24250000D02*
X3500000Y-24000000D01*
X2240000Y-24250000D02*
X3250000Y-24250000D01*
%TO.N,Net-(U4-ST)*%
X1500000Y-26490000D02*
X1500000Y-27450000D01*
X760000Y-25750000D02*
X1500000Y-26490000D01*
%TO.N,Net-(Q1-G)*%
X87230000Y-30159468D02*
X87230000Y-23540000D01*
X88070532Y-31000000D02*
X87230000Y-30159468D01*
X88929468Y-31000000D02*
X88070532Y-31000000D01*
X91965968Y-30399000D02*
X89530468Y-30399000D01*
X92566968Y-31000000D02*
X91965968Y-30399000D01*
X103824500Y-31000000D02*
X92566968Y-31000000D01*
X110500000Y-24324500D02*
X103824500Y-31000000D01*
X108730000Y-13040000D02*
X110500000Y-14810000D01*
X110500000Y-14810000D02*
X110500000Y-24324500D01*
X89530468Y-30399000D02*
X88929468Y-31000000D01*
X82272250Y-30098468D02*
X80662500Y-31708218D01*
X82272250Y-28497750D02*
X82272250Y-30098468D01*
X87230000Y-23540000D02*
X82272250Y-28497750D01*
X80662500Y-31708218D02*
X80662500Y-32228750D01*
%TO.N,Net-(Q3-G)*%
X93035000Y-23540000D02*
X89075000Y-27500000D01*
X108730000Y-23540000D02*
X93035000Y-23540000D01*
%TO.N,Net-(Q8-B)*%
X88575000Y-33950000D02*
X88575000Y-32025000D01*
X88575000Y-32025000D02*
X88500000Y-31950000D01*
%TO.N,Net-(Q6-C)*%
X91675000Y-35000000D02*
X91675000Y-31487500D01*
X91675000Y-31487500D02*
X91187500Y-31000000D01*
%TO.N,Net-(Q3-G)*%
X89075000Y-29475000D02*
X89075000Y-27500000D01*
X88500000Y-30050000D02*
X89075000Y-29475000D01*
X87160000Y-13160000D02*
X87160000Y-13040000D01*
X89500000Y-15500000D02*
X87160000Y-13160000D01*
X109000000Y-15500000D02*
X89500000Y-15500000D01*
X110031000Y-16531000D02*
X109000000Y-15500000D01*
X110031000Y-22239000D02*
X110031000Y-16531000D01*
X108730000Y-23540000D02*
X110031000Y-22239000D01*
%TO.N,Net-(U3-USB_D+)*%
X50901000Y-30099000D02*
X39464100Y-30099000D01*
X39464100Y-30099000D02*
X38500000Y-29134900D01*
X38500000Y-29134900D02*
X38500000Y-28500000D01*
X56500000Y-24500000D02*
X50901000Y-30099000D01*
X56500000Y-23162500D02*
X56500000Y-24500000D01*
%TO.N,Net-(U3-USB_D-)*%
X37650000Y-28852000D02*
X37650000Y-28500000D01*
X39298000Y-30500000D02*
X37650000Y-28852000D01*
X51550000Y-30500000D02*
X39298000Y-30500000D01*
X59000000Y-23050000D02*
X51550000Y-30500000D01*
D36*
%TO.N,VBUS*%
X55500000Y-8000000D02*
X54000000Y-6500000D01*
X55500000Y-13954400D02*
X55500000Y-8000000D01*
D35*
X58041400Y-16495800D02*
X55500000Y-13954400D01*
X58498600Y-16953000D02*
X58041400Y-16495800D01*
X58828800Y-16953000D02*
X58498600Y-16953000D01*
%TO.N,Net-(C7-Pad1)*%
X61149600Y-15149600D02*
X58828800Y-15149600D01*
X63000000Y-17000000D02*
X61149600Y-15149600D01*
X63000000Y-21000000D02*
X63000000Y-17000000D01*
X62500000Y-21500000D02*
X63000000Y-21000000D01*
X55500000Y-21500000D02*
X62500000Y-21500000D01*
X54000000Y-20000000D02*
X55500000Y-21500000D01*
%TO.N,VBUS*%
X58473200Y-13346200D02*
X58828800Y-13346200D01*
X58041400Y-12914400D02*
X58473200Y-13346200D01*
D36*
X60500000Y-14000000D02*
X61500000Y-13000000D01*
X61500000Y-13000000D02*
X61500000Y-11000000D01*
D35*
X59482600Y-14000000D02*
X60500000Y-14000000D01*
D36*
X61500000Y-11000000D02*
X56000000Y-5500000D01*
D35*
X58828800Y-13346200D02*
X59482600Y-14000000D01*
%TO.N,Net-(C8-Pad2)*%
X58892800Y-16000000D02*
X58828800Y-16064000D01*
%TO.N,Net-(C7-Pad1)*%
X56437500Y-20000000D02*
X56500000Y-20062500D01*
X54000000Y-20000000D02*
X56437500Y-20000000D01*
%TO.N,Net-(C8-Pad2)*%
X61540457Y-19950000D02*
X61556150Y-19965693D01*
X59000000Y-19950000D02*
X61540457Y-19950000D01*
%TO.N,Net-(J6-Pin_4)*%
X48500000Y-21605800D02*
X46055800Y-24050000D01*
X48500000Y-20200000D02*
X48500000Y-21605800D01*
X50200000Y-18500000D02*
X48500000Y-20200000D01*
X46055800Y-24050000D02*
X44650000Y-24050000D01*
%TO.N,Net-(J6-Pin_5)*%
X49000000Y-21672900D02*
X49000000Y-20970000D01*
X45772900Y-24900000D02*
X49000000Y-21672900D01*
X49000000Y-20970000D02*
X50200000Y-19770000D01*
X44650000Y-24900000D02*
X45772900Y-24900000D01*
%TO.N,Net-(J6-Pin_6)*%
X45490000Y-25750000D02*
X44650000Y-25750000D01*
X50200000Y-21040000D02*
X45490000Y-25750000D01*
%TO.N,Net-(J5-Pin_3)*%
X46360000Y-26540000D02*
X45450000Y-27450000D01*
X45450000Y-27450000D02*
X44650000Y-27450000D01*
X50200000Y-26540000D02*
X46360000Y-26540000D01*
%TO.N,Net-(J5-Pin_2)*%
X45400000Y-26600000D02*
X44650000Y-26600000D01*
X46730000Y-25270000D02*
X45400000Y-26600000D01*
X50200000Y-25270000D02*
X46730000Y-25270000D01*
%TO.N,Net-(U3-EN)*%
X44950000Y-15550000D02*
X48000000Y-12500000D01*
X44650000Y-15550000D02*
X44950000Y-15550000D01*
X48000000Y-12500000D02*
X48000000Y-12050000D01*
X42437500Y-10500000D02*
X44000000Y-12062500D01*
X41575000Y-10500000D02*
X42437500Y-10500000D01*
X52000000Y-12062500D02*
X44000000Y-12062500D01*
%TO.N,Net-(U3-IO1)*%
X30650000Y-18950000D02*
X26135000Y-18950000D01*
%TO.N,Net-(U3-IO2)*%
X25750000Y-23500000D02*
X29450000Y-19800000D01*
%TO.N,Net-(U3-IO0)*%
X25762500Y-16000000D02*
X25762500Y-17727500D01*
%TO.N,Net-(U3-IO1)*%
X26135000Y-18950000D02*
X26010000Y-19075000D01*
%TO.N,Net-(U3-IO0)*%
X25762500Y-17727500D02*
X26010000Y-17975000D01*
X30650000Y-18100000D02*
X26135000Y-18100000D01*
X26135000Y-18100000D02*
X26010000Y-17975000D01*
%TO.N,Net-(U3-IO2)*%
X29450000Y-19800000D02*
X30650000Y-19800000D01*
%TO.N,Net-(U3-IO1)*%
X25762500Y-21000000D02*
X25762500Y-19322500D01*
X25762500Y-19322500D02*
X26010000Y-19075000D01*
%TO.N,Net-(J4-Pin_4)*%
X18200000Y-26770000D02*
X26430000Y-26770000D01*
%TO.N,Net-(J4-Pin_3)*%
X30650000Y-23200000D02*
X29000000Y-23200000D01*
%TO.N,Net-(J4-Pin_4)*%
X29150000Y-24050000D02*
X30650000Y-24050000D01*
%TO.N,Net-(J4-Pin_3)*%
X29000000Y-23200000D02*
X26700000Y-25500000D01*
%TO.N,Net-(U3-IO8)*%
X30050000Y-24900000D02*
X30650000Y-24900000D01*
X28250000Y-26700000D02*
X30050000Y-24900000D01*
%TO.N,Net-(SW2-B)*%
X26145000Y-32500000D02*
X25065000Y-32500000D01*
X29201000Y-29444000D02*
X26145000Y-32500000D01*
X30650000Y-25750000D02*
X30225000Y-25750000D01*
%TO.N,Net-(U3-IO8)*%
X28250000Y-28500000D02*
X28250000Y-26700000D01*
%TO.N,Net-(SW2-B)*%
X29201000Y-26774000D02*
X29201000Y-29444000D01*
%TO.N,Net-(J4-Pin_3)*%
X26700000Y-25500000D02*
X18200000Y-25500000D01*
%TO.N,Net-(J4-Pin_4)*%
X26430000Y-26770000D02*
X29150000Y-24050000D01*
%TO.N,Net-(SW2-B)*%
X30225000Y-25750000D02*
X29201000Y-26774000D01*
%TO.N,Net-(J4-Pin_2)*%
X19047000Y-25077000D02*
X18200000Y-24230000D01*
X30650000Y-22350000D02*
X28917100Y-22350000D01*
%TO.N,Net-(J4-Pin_1)*%
X29200000Y-21500000D02*
X26024000Y-24676000D01*
%TO.N,Net-(J4-Pin_2)*%
X28917100Y-22350000D02*
X26190100Y-25077000D01*
X26190100Y-25077000D02*
X19047000Y-25077000D01*
%TO.N,Net-(J4-Pin_1)*%
X26024000Y-24676000D02*
X19916000Y-24676000D01*
X30650000Y-21500000D02*
X29200000Y-21500000D01*
X19916000Y-24676000D02*
X18200000Y-22960000D01*
%TO.N,Net-(Q1-G)*%
X80150000Y-32741250D02*
X80150000Y-34828750D01*
X80662500Y-32228750D02*
X80150000Y-32741250D01*
%TO.N,Net-(Q5-B)*%
X75182500Y-29278750D02*
X76032500Y-30128750D01*
X73600000Y-29278750D02*
X70662500Y-29278750D01*
X73600000Y-29278750D02*
X75182500Y-29278750D01*
%TO.N,Net-(Q5-C)*%
X77500000Y-27328750D02*
X77500000Y-30671250D01*
X77500000Y-30671250D02*
X77907500Y-31078750D01*
%TO.N,Net-(Q7-B)*%
X80600000Y-30266250D02*
X80662500Y-30328750D01*
X80600000Y-27328750D02*
X80600000Y-30266250D01*
%TO.N,Net-(J6-Pin_3)*%
X48000000Y-19430000D02*
X50200000Y-17230000D01*
X44650000Y-23200000D02*
X46300000Y-23200000D01*
X46300000Y-23200000D02*
X48000000Y-21500000D01*
X48000000Y-21500000D02*
X48000000Y-19430000D01*
%TO.N,Net-(J6-Pin_2)*%
X49971450Y-15960000D02*
X47599000Y-18332450D01*
X47599000Y-18332450D02*
X47599000Y-21333900D01*
X47599000Y-21333900D02*
X46582900Y-22350000D01*
X50200000Y-15960000D02*
X49971450Y-15960000D01*
X46582900Y-22350000D02*
X44650000Y-22350000D01*
%TO.N,Net-(C8-Pad2)*%
X61556150Y-19965693D02*
X61556150Y-17432254D01*
X61556150Y-17432254D02*
X60123896Y-16000000D01*
X60123896Y-16000000D02*
X58892800Y-16000000D01*
%TD*%
%TA.AperFunction,Conductor*%
%TO.N,Net-(U2-SW)*%
G36*
X13649406Y-18342828D02*
G01*
X13649493Y-18342806D01*
X13649701Y-18342843D01*
X13655502Y-18343137D01*
X13657800Y-18343372D01*
X13684228Y-18349025D01*
X13715493Y-18359386D01*
X13741578Y-18371550D01*
X13772161Y-18390414D01*
X13772265Y-18390478D01*
X13790025Y-18403764D01*
X13807847Y-18419771D01*
X13807861Y-18419784D01*
X13828509Y-18436423D01*
X13831478Y-18438564D01*
X13872392Y-18468067D01*
X14003269Y-18527838D01*
X14070308Y-18547523D01*
X14070312Y-18547524D01*
X14212728Y-18568000D01*
X14212731Y-18568000D01*
X14376000Y-18568000D01*
X14443039Y-18587685D01*
X14488794Y-18640489D01*
X14500000Y-18692000D01*
X14500000Y-19938500D01*
X14480315Y-20005539D01*
X14427511Y-20051294D01*
X14376000Y-20062500D01*
X9956088Y-20062500D01*
X9889049Y-20042815D01*
X9862377Y-20019705D01*
X9825062Y-19976643D01*
X9716333Y-19882430D01*
X9716331Y-19882429D01*
X9716329Y-19882427D01*
X9585460Y-19822661D01*
X9530731Y-19806591D01*
X9530727Y-19806590D01*
X9518418Y-19802976D01*
X9518410Y-19802973D01*
X9375994Y-19782499D01*
X9373464Y-19782499D01*
X9366297Y-19781401D01*
X9360983Y-19778915D01*
X9337622Y-19773392D01*
X9233499Y-19730263D01*
X9233491Y-19730261D01*
X9226688Y-19728908D01*
X9197585Y-19713684D01*
X9167954Y-19699483D01*
X9166031Y-19697179D01*
X9164777Y-19696523D01*
X9145344Y-19672390D01*
X9134047Y-19654075D01*
X9121884Y-19627990D01*
X9090266Y-19532573D01*
X9040662Y-19426198D01*
X9010637Y-19377521D01*
X8937842Y-19285458D01*
X8937840Y-19285456D01*
X8550355Y-18897970D01*
X8538754Y-18887353D01*
X8517354Y-18867767D01*
X8500539Y-18853693D01*
X8464983Y-18826516D01*
X8463791Y-18825917D01*
X8336418Y-18761930D01*
X8336404Y-18761925D01*
X8270149Y-18739767D01*
X8128592Y-18714019D01*
X7985520Y-18729193D01*
X7920117Y-18745786D01*
X7917744Y-18745697D01*
X7915658Y-18746830D01*
X7855030Y-18744669D01*
X7752573Y-18714902D01*
X7752567Y-18714901D01*
X7715701Y-18712000D01*
X7715694Y-18712000D01*
X6724500Y-18712000D01*
X6715814Y-18709449D01*
X6706853Y-18710738D01*
X6682812Y-18699759D01*
X6657461Y-18692315D01*
X6651533Y-18685474D01*
X6643297Y-18681713D01*
X6629007Y-18659478D01*
X6611706Y-18639511D01*
X6609418Y-18628996D01*
X6605523Y-18622935D01*
X6600500Y-18588000D01*
X6600500Y-18537000D01*
X6620185Y-18469961D01*
X6672989Y-18424206D01*
X6724500Y-18413000D01*
X7715686Y-18413000D01*
X7715694Y-18413000D01*
X7752569Y-18410098D01*
X7812882Y-18392575D01*
X7817435Y-18392587D01*
X7821442Y-18390414D01*
X7852050Y-18392686D01*
X7882747Y-18392773D01*
X7890041Y-18395505D01*
X7891120Y-18395586D01*
X7891976Y-18396230D01*
X7898986Y-18398856D01*
X7909731Y-18403764D01*
X7944808Y-18419784D01*
X7961349Y-18427338D01*
X8028388Y-18447023D01*
X8028392Y-18447024D01*
X8170808Y-18467500D01*
X8170811Y-18467500D01*
X9362279Y-18467500D01*
X9362311Y-18467499D01*
X9513961Y-18467499D01*
X9514009Y-18467500D01*
X9516563Y-18467500D01*
X10667940Y-18467500D01*
X10680527Y-18468140D01*
X10691996Y-18469312D01*
X10713152Y-18473354D01*
X10715564Y-18474037D01*
X10736920Y-18479069D01*
X10780917Y-18487398D01*
X10924797Y-18487397D01*
X10993955Y-18477453D01*
X11132004Y-18436918D01*
X11132015Y-18436910D01*
X11135280Y-18435420D01*
X11138857Y-18434905D01*
X11140514Y-18434419D01*
X11140583Y-18434656D01*
X11204438Y-18425471D01*
X11267994Y-18454489D01*
X11283009Y-18467499D01*
X11283664Y-18468067D01*
X11283668Y-18468069D01*
X11385291Y-18514480D01*
X11414541Y-18527838D01*
X11481580Y-18547523D01*
X11481584Y-18547524D01*
X11624000Y-18568000D01*
X11624003Y-18568000D01*
X11787274Y-18568000D01*
X11800782Y-18567275D01*
X11841312Y-18565103D01*
X11867670Y-18562269D01*
X11867685Y-18562266D01*
X11867690Y-18562266D01*
X11921170Y-18553595D01*
X11921174Y-18553594D01*
X11921174Y-18553593D01*
X11921179Y-18553593D01*
X11931736Y-18549652D01*
X11964633Y-18542498D01*
X12025979Y-18514480D01*
X12055977Y-18503285D01*
X12058353Y-18501987D01*
X12058352Y-18501985D01*
X12080037Y-18490140D01*
X12080074Y-18490120D01*
X12083949Y-18488004D01*
X12095510Y-18482725D01*
X12106136Y-18475895D01*
X12116627Y-18470167D01*
X12117166Y-18469877D01*
X12117207Y-18469850D01*
X12117220Y-18469844D01*
X12197732Y-18409570D01*
X12206931Y-18403308D01*
X12258424Y-18371546D01*
X12284503Y-18359385D01*
X12315768Y-18349025D01*
X12342202Y-18343372D01*
X12344505Y-18343136D01*
X12357054Y-18342500D01*
X13642942Y-18342500D01*
X13649406Y-18342828D01*
G37*
%TD.AperFunction*%
%TD*%
%TA.AperFunction,Conductor*%
%TO.N,Net-(U1-BST)*%
G36*
X11505539Y-26519685D02*
G01*
X11551294Y-26572489D01*
X11562500Y-26624000D01*
X11562500Y-28376000D01*
X11542815Y-28443039D01*
X11490011Y-28488794D01*
X11438500Y-28500000D01*
X10562499Y-28500000D01*
X9614238Y-29448260D01*
X9591654Y-29466117D01*
X9443847Y-29557285D01*
X9443843Y-29557288D01*
X9319789Y-29681342D01*
X9228620Y-29829151D01*
X9210763Y-29851735D01*
X9062500Y-30000000D01*
X9062497Y-30000001D01*
X8755405Y-30307094D01*
X8694082Y-30340579D01*
X8624390Y-30335595D01*
X8604604Y-30326145D01*
X8472900Y-30248257D01*
X8472893Y-30248254D01*
X8315073Y-30202402D01*
X8315067Y-30202401D01*
X8278201Y-30199500D01*
X8278194Y-30199500D01*
X7461000Y-30199500D01*
X7452314Y-30196949D01*
X7443353Y-30198238D01*
X7419312Y-30187259D01*
X7393961Y-30179815D01*
X7388033Y-30172974D01*
X7379797Y-30169213D01*
X7365507Y-30146978D01*
X7348206Y-30127011D01*
X7345918Y-30116496D01*
X7342023Y-30110435D01*
X7337000Y-30075500D01*
X7337000Y-29872504D01*
X7356685Y-29805465D01*
X7409489Y-29759710D01*
X7441291Y-29750080D01*
X7553334Y-29732045D01*
X7620033Y-29711237D01*
X7620035Y-29711236D01*
X7620040Y-29711233D01*
X7620165Y-29711183D01*
X7621047Y-29710753D01*
X7749888Y-29649276D01*
X7749888Y-29649275D01*
X7749890Y-29649275D01*
X8787684Y-28957412D01*
X8867720Y-28891233D01*
X8903252Y-28855098D01*
X8968067Y-28773973D01*
X9027838Y-28643096D01*
X9047523Y-28576057D01*
X9047524Y-28576053D01*
X9068000Y-28433637D01*
X9068000Y-27518272D01*
X9081091Y-27462818D01*
X9526256Y-26572489D01*
X9528227Y-26568546D01*
X9575814Y-26517387D01*
X9639136Y-26500000D01*
X11438500Y-26500000D01*
X11505539Y-26519685D01*
G37*
%TD.AperFunction*%
%TD*%
%TA.AperFunction,Conductor*%
%TO.N,+12V*%
G36*
X4794690Y-30843170D02*
G01*
X4809931Y-30847598D01*
X4846806Y-30850500D01*
X4846814Y-30850500D01*
X5938500Y-30850500D01*
X6005539Y-30870185D01*
X6051294Y-30922989D01*
X6062500Y-30974500D01*
X6062500Y-32122998D01*
X6042815Y-32190037D01*
X5990011Y-32235792D01*
X5977442Y-32240724D01*
X5975911Y-32241230D01*
X5958991Y-32247515D01*
X5924999Y-32261567D01*
X5924994Y-32261570D01*
X5803962Y-32339353D01*
X5803951Y-32339361D01*
X5751159Y-32385105D01*
X5656933Y-32493846D01*
X5656930Y-32493850D01*
X5597164Y-32624716D01*
X5577476Y-32691764D01*
X5557000Y-32834183D01*
X5557000Y-32887055D01*
X5562143Y-32958980D01*
X5562144Y-32958990D01*
X5567128Y-32993655D01*
X5567166Y-32993917D01*
X5582497Y-33064397D01*
X5642266Y-33195276D01*
X5680041Y-33254056D01*
X5774261Y-33362793D01*
X5895300Y-33440582D01*
X5958854Y-33469607D01*
X5973432Y-33473887D01*
X6014067Y-33500000D01*
X4062500Y-33500000D01*
X4062500Y-31129500D01*
X4082185Y-31062461D01*
X4134989Y-31016706D01*
X4186500Y-31005500D01*
X4293434Y-31005500D01*
X4293441Y-31005500D01*
X4378930Y-30998219D01*
X4420267Y-30991126D01*
X4503291Y-30969492D01*
X4630735Y-30902712D01*
X4687378Y-30861805D01*
X4687435Y-30861763D01*
X4687495Y-30861720D01*
X4753368Y-30838429D01*
X4794690Y-30843170D01*
G37*
%TD.AperFunction*%
%TD*%
%TA.AperFunction,Conductor*%
%TO.N,GND*%
G36*
X96873039Y-25969685D02*
G01*
X96918794Y-26022489D01*
X96930000Y-26074000D01*
X96930000Y-30275500D01*
X96910315Y-30342539D01*
X96857511Y-30388294D01*
X96806000Y-30399500D01*
X92867065Y-30399500D01*
X92800026Y-30379815D01*
X92779384Y-30363181D01*
X92453558Y-30037355D01*
X92453556Y-30037352D01*
X92334685Y-29918481D01*
X92334684Y-29918480D01*
X92247872Y-29868360D01*
X92247872Y-29868359D01*
X92247868Y-29868358D01*
X92197753Y-29839423D01*
X92045025Y-29798499D01*
X92003374Y-29798499D01*
X91936335Y-29778814D01*
X91904174Y-29748899D01*
X90954800Y-28483066D01*
X90930324Y-28417624D01*
X90930000Y-28408666D01*
X90930000Y-26545597D01*
X90949685Y-26478558D01*
X90966319Y-26457916D01*
X91437916Y-25986319D01*
X91499239Y-25952834D01*
X91525597Y-25950000D01*
X96806000Y-25950000D01*
X96873039Y-25969685D01*
G37*
%TD.AperFunction*%
%TD*%
%TA.AperFunction,Conductor*%
%TO.N,GND*%
G36*
X76545677Y-31348435D02*
G01*
X76566319Y-31365069D01*
X76747498Y-31546248D01*
X76766549Y-31570808D01*
X76801916Y-31630611D01*
X76801923Y-31630620D01*
X76918129Y-31746826D01*
X76918135Y-31746831D01*
X76977943Y-31782201D01*
X77002500Y-31801250D01*
X77015771Y-31814521D01*
X77038999Y-31846748D01*
X78016909Y-33802568D01*
X78030000Y-33858022D01*
X78030000Y-35704750D01*
X78010315Y-35771789D01*
X77957511Y-35817544D01*
X77906000Y-35828750D01*
X72729347Y-35828750D01*
X72699906Y-35820105D01*
X72669920Y-35813582D01*
X72664904Y-35809827D01*
X72662308Y-35809065D01*
X72641666Y-35792431D01*
X72566319Y-35717084D01*
X72532834Y-35655761D01*
X72530000Y-35629403D01*
X72530000Y-31452750D01*
X72549685Y-31385711D01*
X72602489Y-31339956D01*
X72654000Y-31328750D01*
X76478638Y-31328750D01*
X76545677Y-31348435D01*
G37*
%TD.AperFunction*%
%TD*%
%TA.AperFunction,Conductor*%
%TO.N,Net-(U1-SW)*%
G36*
X14505539Y-29519685D02*
G01*
X14551294Y-29572489D01*
X14562500Y-29624000D01*
X14562500Y-31376000D01*
X14542815Y-31443039D01*
X14490011Y-31488794D01*
X14438500Y-31500000D01*
X11456088Y-31500000D01*
X11389049Y-31480315D01*
X11362376Y-31457203D01*
X11325093Y-31414177D01*
X11325086Y-31414170D01*
X11325070Y-31414151D01*
X11325068Y-31414149D01*
X11325050Y-31414133D01*
X11216334Y-31319930D01*
X11216326Y-31319925D01*
X11085455Y-31260159D01*
X11085452Y-31260158D01*
X11018413Y-31240474D01*
X11018410Y-31240473D01*
X11018405Y-31240472D01*
X10876000Y-31219999D01*
X10694108Y-31219999D01*
X10669917Y-31217616D01*
X10641647Y-31211992D01*
X10578844Y-31199500D01*
X10578842Y-31199500D01*
X10421158Y-31199500D01*
X10421156Y-31199500D01*
X10358352Y-31211992D01*
X10330082Y-31217616D01*
X10305892Y-31219999D01*
X9894565Y-31219999D01*
X9881956Y-31219356D01*
X9879657Y-31219121D01*
X9853262Y-31213470D01*
X9822007Y-31203113D01*
X9795917Y-31190947D01*
X9792304Y-31188719D01*
X9792305Y-31188719D01*
X9792298Y-31188715D01*
X9664861Y-31132644D01*
X9664856Y-31132642D01*
X9664851Y-31132640D01*
X9643919Y-31126703D01*
X9599756Y-31114179D01*
X9461838Y-31095000D01*
X9461836Y-31095000D01*
X8733308Y-31095000D01*
X8733306Y-31095000D01*
X8687162Y-31097473D01*
X8679272Y-31097896D01*
X8667828Y-31099126D01*
X8652901Y-31100731D01*
X8652889Y-31100733D01*
X8599489Y-31109386D01*
X8464674Y-31159673D01*
X8460654Y-31161510D01*
X8460032Y-31160150D01*
X8439230Y-31164672D01*
X8413081Y-31173794D01*
X8402803Y-31172592D01*
X8398023Y-31173632D01*
X8391785Y-31171304D01*
X8372290Y-31169026D01*
X8315069Y-31152402D01*
X8315067Y-31152401D01*
X8315063Y-31152401D01*
X8278201Y-31149500D01*
X8278194Y-31149500D01*
X7461000Y-31149500D01*
X7452314Y-31146949D01*
X7443353Y-31148238D01*
X7419312Y-31137259D01*
X7393961Y-31129815D01*
X7388033Y-31122974D01*
X7379797Y-31119213D01*
X7365507Y-31096978D01*
X7348206Y-31077011D01*
X7345918Y-31066496D01*
X7342023Y-31060435D01*
X7337000Y-31025500D01*
X7337000Y-30974500D01*
X7356685Y-30907461D01*
X7409489Y-30861706D01*
X7461000Y-30850500D01*
X8278186Y-30850500D01*
X8278194Y-30850500D01*
X8315069Y-30847598D01*
X8417190Y-30817927D01*
X8433519Y-30817368D01*
X8445587Y-30813159D01*
X8459421Y-30816479D01*
X8478143Y-30815838D01*
X8527793Y-30826638D01*
X8588331Y-30839807D01*
X8649300Y-30844167D01*
X8658021Y-30844791D01*
X8658023Y-30844791D01*
X8658024Y-30844791D01*
X8667602Y-30844105D01*
X8801534Y-30834527D01*
X8936343Y-30784245D01*
X8997666Y-30750760D01*
X9112848Y-30664536D01*
X9414962Y-30362419D01*
X9414988Y-30362397D01*
X9419945Y-30357440D01*
X9568208Y-30209175D01*
X9607286Y-30165263D01*
X9625143Y-30142679D01*
X9658861Y-30094525D01*
X9711409Y-30009329D01*
X9729259Y-29986754D01*
X9749257Y-29966756D01*
X9771832Y-29948906D01*
X9857029Y-29896357D01*
X9905182Y-29862640D01*
X9927766Y-29844783D01*
X9971680Y-29805703D01*
X10241064Y-29536318D01*
X10302387Y-29502834D01*
X10328745Y-29500000D01*
X14438500Y-29500000D01*
X14505539Y-29519685D01*
G37*
%TD.AperFunction*%
%TD*%
%TA.AperFunction,Conductor*%
%TO.N,GND*%
G36*
X6215496Y-19228171D02*
G01*
X6216420Y-19226610D01*
X6241312Y-19241331D01*
X6364602Y-19314244D01*
X6406224Y-19326336D01*
X6522426Y-19360097D01*
X6522429Y-19360097D01*
X6522431Y-19360098D01*
X6559306Y-19363000D01*
X6559314Y-19363000D01*
X7715686Y-19363000D01*
X7715694Y-19363000D01*
X7752569Y-19360098D01*
X7752571Y-19360097D01*
X7752573Y-19360097D01*
X7854806Y-19330395D01*
X7910398Y-19314244D01*
X8042103Y-19236353D01*
X8109827Y-19219171D01*
X8176090Y-19241331D01*
X8192905Y-19255405D01*
X8580400Y-19642900D01*
X8610425Y-19691577D01*
X8665186Y-19856834D01*
X8757288Y-20006156D01*
X8881344Y-20130212D01*
X9030666Y-20222314D01*
X9197203Y-20277499D01*
X9299991Y-20288000D01*
X9376001Y-20287999D01*
X9443038Y-20307683D01*
X9488794Y-20360486D01*
X9500000Y-20411999D01*
X9500000Y-22938500D01*
X9480315Y-23005539D01*
X9427511Y-23051294D01*
X9376000Y-23062500D01*
X6129500Y-23062500D01*
X6062461Y-23042815D01*
X6016706Y-22990011D01*
X6005500Y-22938500D01*
X6005500Y-21000000D01*
X6000355Y-20928060D01*
X5959819Y-20790008D01*
X5882031Y-20668968D01*
X5851551Y-20642557D01*
X5773299Y-20574750D01*
X5773297Y-20574748D01*
X5773294Y-20574746D01*
X5773290Y-20574744D01*
X5642419Y-20514976D01*
X5642410Y-20514974D01*
X5628521Y-20512977D01*
X5564966Y-20483951D01*
X5527194Y-20425171D01*
X5527196Y-20355302D01*
X5564972Y-20296525D01*
X5611577Y-20271164D01*
X5635398Y-20264244D01*
X5776865Y-20180581D01*
X5893081Y-20064365D01*
X5976744Y-19922898D01*
X6022598Y-19765069D01*
X6025500Y-19728194D01*
X6025500Y-19330395D01*
X6045185Y-19263356D01*
X6097989Y-19217601D01*
X6167147Y-19207657D01*
X6215496Y-19228171D01*
G37*
%TD.AperFunction*%
%TA.AperFunction,Conductor*%
G36*
X8943039Y-14087685D02*
G01*
X8988794Y-14140489D01*
X9000000Y-14192000D01*
X9000000Y-14852393D01*
X8980315Y-14919432D01*
X8941097Y-14957931D01*
X8881347Y-14994785D01*
X8881343Y-14994788D01*
X8757289Y-15118842D01*
X8665187Y-15268163D01*
X8665186Y-15268166D01*
X8610001Y-15434703D01*
X8610001Y-15434704D01*
X8610000Y-15434704D01*
X8599500Y-15537483D01*
X8599500Y-15555165D01*
X8579815Y-15622204D01*
X8574700Y-15629565D01*
X7725075Y-16762400D01*
X7669104Y-16804221D01*
X7625875Y-16812000D01*
X6559298Y-16812000D01*
X6522432Y-16814901D01*
X6522426Y-16814902D01*
X6364606Y-16860754D01*
X6364601Y-16860756D01*
X6329125Y-16881736D01*
X6261401Y-16898917D01*
X6195139Y-16876757D01*
X6151376Y-16822290D01*
X6144008Y-16752810D01*
X6175373Y-16690376D01*
X6178285Y-16687361D01*
X6292611Y-16573036D01*
X6365168Y-16481358D01*
X6395124Y-16432890D01*
X6444683Y-16326981D01*
X6473196Y-16241443D01*
X6491066Y-16171561D01*
X6497348Y-16136830D01*
X6498483Y-16126311D01*
X6498491Y-16126313D01*
X6498967Y-16123381D01*
X6499462Y-16117230D01*
X6505090Y-16065087D01*
X6505090Y-16065086D01*
X6505092Y-16058440D01*
X6505380Y-16058440D01*
X6505216Y-16045893D01*
X6505500Y-16042375D01*
X6505500Y-14192000D01*
X6525185Y-14124961D01*
X6577989Y-14079206D01*
X6629500Y-14068000D01*
X8876000Y-14068000D01*
X8943039Y-14087685D01*
G37*
%TD.AperFunction*%
%TD*%
%TA.AperFunction,Conductor*%
%TO.N,GND*%
G36*
X9526932Y-31618961D02*
G01*
X9593159Y-31659810D01*
X9593160Y-31659810D01*
X9593166Y-31659814D01*
X9759703Y-31714999D01*
X9862491Y-31725500D01*
X10876000Y-31725499D01*
X10943039Y-31745183D01*
X10988794Y-31797987D01*
X11000000Y-31849499D01*
X11000000Y-34870500D01*
X10980315Y-34937539D01*
X10927511Y-34983294D01*
X10876000Y-34994500D01*
X9272606Y-34994500D01*
X9160583Y-35007069D01*
X9160581Y-35007069D01*
X9160576Y-35007070D01*
X9106987Y-35019249D01*
X9000547Y-35056326D01*
X8880969Y-35136339D01*
X8836542Y-35176297D01*
X8836534Y-35176306D01*
X8829022Y-35183063D01*
X8829015Y-35183069D01*
X8736824Y-35293534D01*
X8733814Y-35298411D01*
X8727948Y-35305386D01*
X8725858Y-35306772D01*
X8720740Y-35313242D01*
X8700744Y-35333238D01*
X8678159Y-35351096D01*
X8654083Y-35365946D01*
X8627992Y-35378112D01*
X8596738Y-35388469D01*
X8570348Y-35394121D01*
X8568899Y-35394269D01*
X8568048Y-35394356D01*
X8555435Y-35394999D01*
X7694565Y-35394999D01*
X7681956Y-35394356D01*
X7679657Y-35394121D01*
X7653262Y-35388470D01*
X7622007Y-35378113D01*
X7595915Y-35365946D01*
X7571839Y-35351096D01*
X7549254Y-35333238D01*
X7529261Y-35313245D01*
X7515677Y-35296011D01*
X7515155Y-35296375D01*
X7513183Y-35293546D01*
X7513172Y-35293528D01*
X7443666Y-35204783D01*
X7405167Y-35165565D01*
X7317730Y-35094433D01*
X7274623Y-35074746D01*
X7186856Y-35034663D01*
X7119811Y-35014976D01*
X7064815Y-35007069D01*
X6977394Y-34994500D01*
X6977392Y-34994500D01*
X6692000Y-34994500D01*
X6624961Y-34974815D01*
X6579206Y-34922011D01*
X6568000Y-34870500D01*
X6568000Y-33500000D01*
X6562855Y-33428060D01*
X6558885Y-33414541D01*
X6554429Y-33399365D01*
X6522319Y-33290008D01*
X6444531Y-33168968D01*
X6335794Y-33074746D01*
X6335790Y-33074744D01*
X6204917Y-33014976D01*
X6168851Y-33009790D01*
X6145221Y-32998998D01*
X6105297Y-32980765D01*
X6067523Y-32921987D01*
X6067522Y-32921986D01*
X6067522Y-32921985D01*
X6062500Y-32887052D01*
X6062500Y-32834182D01*
X6082185Y-32767143D01*
X6134989Y-32721388D01*
X6151897Y-32715108D01*
X6197898Y-32701744D01*
X6339365Y-32618081D01*
X6455581Y-32501865D01*
X6539244Y-32360398D01*
X6585098Y-32202569D01*
X6588000Y-32165694D01*
X6588000Y-31767895D01*
X6607685Y-31700856D01*
X6660489Y-31655101D01*
X6729647Y-31645157D01*
X6777996Y-31665671D01*
X6778920Y-31664110D01*
X6819534Y-31688128D01*
X6927102Y-31751744D01*
X6968724Y-31763836D01*
X7084926Y-31797597D01*
X7084929Y-31797597D01*
X7084931Y-31797598D01*
X7121806Y-31800500D01*
X7121814Y-31800500D01*
X8278186Y-31800500D01*
X8278194Y-31800500D01*
X8315069Y-31797598D01*
X8315071Y-31797597D01*
X8315073Y-31797597D01*
X8417306Y-31767895D01*
X8472898Y-31751744D01*
X8614365Y-31668081D01*
X8645626Y-31636820D01*
X8706948Y-31603334D01*
X8733308Y-31600500D01*
X9461836Y-31600500D01*
X9526932Y-31618961D01*
G37*
%TD.AperFunction*%
%TA.AperFunction,Conductor*%
G36*
X8505539Y-26019685D02*
G01*
X8551294Y-26072489D01*
X8562500Y-26124000D01*
X8562500Y-28433637D01*
X8542815Y-28500676D01*
X8507283Y-28536811D01*
X7469489Y-29228674D01*
X7402790Y-29249482D01*
X7400706Y-29249500D01*
X7121798Y-29249500D01*
X7084932Y-29252401D01*
X7084926Y-29252402D01*
X6927106Y-29298254D01*
X6927103Y-29298255D01*
X6785637Y-29381917D01*
X6785629Y-29381923D01*
X6669423Y-29498129D01*
X6669414Y-29498140D01*
X6669229Y-29498455D01*
X6669019Y-29498650D01*
X6664639Y-29504298D01*
X6663727Y-29503591D01*
X6618157Y-29546136D01*
X6549415Y-29558637D01*
X6484827Y-29531988D01*
X6460643Y-29504078D01*
X6460361Y-29504298D01*
X6456323Y-29499092D01*
X6455771Y-29498455D01*
X6455585Y-29498140D01*
X6455576Y-29498129D01*
X6339370Y-29381923D01*
X6339362Y-29381917D01*
X6197896Y-29298255D01*
X6151903Y-29284892D01*
X6093018Y-29247284D01*
X6063813Y-29183811D01*
X6062500Y-29165816D01*
X6062500Y-26124000D01*
X6082185Y-26056961D01*
X6134989Y-26011206D01*
X6186500Y-26000000D01*
X8438500Y-26000000D01*
X8505539Y-26019685D01*
G37*
%TD.AperFunction*%
%TD*%
%TA.AperFunction,Conductor*%
%TO.N,Net-(U2-BST)*%
G36*
X10937539Y-15082185D02*
G01*
X10983294Y-15134989D01*
X10994500Y-15186500D01*
X10994500Y-17864305D01*
X10974815Y-17931344D01*
X10922011Y-17977099D01*
X10852853Y-17987043D01*
X10831497Y-17982011D01*
X10802799Y-17972501D01*
X10802795Y-17972500D01*
X10700016Y-17962000D01*
X10700009Y-17962000D01*
X9516563Y-17962000D01*
X9516557Y-17961999D01*
X9358443Y-17961999D01*
X9358439Y-17962000D01*
X8170808Y-17962000D01*
X8103769Y-17942315D01*
X8083126Y-17925680D01*
X8051870Y-17894423D01*
X8051862Y-17894417D01*
X7961682Y-17841085D01*
X7910398Y-17810756D01*
X7910397Y-17810755D01*
X7910396Y-17810755D01*
X7910393Y-17810754D01*
X7752573Y-17764902D01*
X7752567Y-17764901D01*
X7715701Y-17762000D01*
X7715694Y-17762000D01*
X6724500Y-17762000D01*
X6715814Y-17759449D01*
X6706853Y-17760738D01*
X6682812Y-17749759D01*
X6657461Y-17742315D01*
X6651533Y-17735474D01*
X6643297Y-17731713D01*
X6629007Y-17709478D01*
X6611706Y-17689511D01*
X6609418Y-17678996D01*
X6605523Y-17672935D01*
X6600500Y-17638000D01*
X6600500Y-17441500D01*
X6620185Y-17374461D01*
X6672989Y-17328706D01*
X6724500Y-17317500D01*
X7625867Y-17317500D01*
X7625875Y-17317500D01*
X7715401Y-17309509D01*
X7758630Y-17301730D01*
X7758635Y-17301728D01*
X7758638Y-17301728D01*
X7770603Y-17298454D01*
X7845333Y-17278008D01*
X7971675Y-17209166D01*
X8027646Y-17167345D01*
X8129475Y-17065700D01*
X8979100Y-15932865D01*
X8989818Y-15918022D01*
X8994933Y-15910661D01*
X9005067Y-15895501D01*
X9064838Y-15764624D01*
X9084523Y-15697585D01*
X9084524Y-15697581D01*
X9092995Y-15638651D01*
X9093107Y-15637898D01*
X9100570Y-15588672D01*
X9102383Y-15588858D01*
X9106184Y-15551645D01*
X9106634Y-15548681D01*
X9107600Y-15546606D01*
X9111525Y-15528271D01*
X9121887Y-15497001D01*
X9134053Y-15470913D01*
X9134766Y-15469758D01*
X9148904Y-15446836D01*
X9166757Y-15424256D01*
X9186754Y-15404259D01*
X9204012Y-15390711D01*
X9203625Y-15390155D01*
X9206460Y-15388178D01*
X9206474Y-15388170D01*
X9295217Y-15318665D01*
X9334435Y-15280166D01*
X9405567Y-15192729D01*
X9431937Y-15134987D01*
X9477692Y-15082184D01*
X9544731Y-15062500D01*
X10870500Y-15062500D01*
X10937539Y-15082185D01*
G37*
%TD.AperFunction*%
%TD*%
%TA.AperFunction,Conductor*%
%TO.N,+3V3*%
G36*
X11500001Y-13000000D02*
G01*
X13500000Y-13000000D01*
X13500000Y-15500000D01*
X14500000Y-15433333D01*
X14500000Y-17938500D01*
X14497449Y-17947185D01*
X14498738Y-17956147D01*
X14487759Y-17980187D01*
X14480315Y-18005539D01*
X14473474Y-18011466D01*
X14469713Y-18019703D01*
X14447478Y-18033992D01*
X14427511Y-18051294D01*
X14416996Y-18053581D01*
X14410935Y-18057477D01*
X14376000Y-18062500D01*
X14212728Y-18062500D01*
X14145689Y-18042815D01*
X14125047Y-18026181D01*
X14093655Y-17994789D01*
X14093651Y-17994786D01*
X13944337Y-17902687D01*
X13944335Y-17902686D01*
X13861065Y-17875093D01*
X13777797Y-17847501D01*
X13777795Y-17847500D01*
X13675015Y-17837000D01*
X13675008Y-17837000D01*
X12324992Y-17837000D01*
X12324984Y-17837000D01*
X12222204Y-17847500D01*
X12222203Y-17847501D01*
X12055664Y-17902686D01*
X12055662Y-17902687D01*
X11906348Y-17994786D01*
X11906344Y-17994789D01*
X11874953Y-18026181D01*
X11848025Y-18040884D01*
X11822207Y-18057477D01*
X11816006Y-18058368D01*
X11813630Y-18059666D01*
X11787272Y-18062500D01*
X11624000Y-18062500D01*
X11556961Y-18042815D01*
X11511206Y-17990011D01*
X11500000Y-17938500D01*
X11500000Y-13562500D01*
X6000000Y-13562500D01*
X6000000Y-16042375D01*
X5999524Y-16045307D01*
X5999919Y-16046857D01*
X5993637Y-16081588D01*
X5965124Y-16167126D01*
X5935168Y-16215594D01*
X5624217Y-16526546D01*
X5624214Y-16526548D01*
X5624215Y-16526549D01*
X5519478Y-16631286D01*
X5469361Y-16718094D01*
X5469359Y-16718096D01*
X5440425Y-16768209D01*
X5440424Y-16768210D01*
X5440423Y-16768215D01*
X5399499Y-16920943D01*
X5399499Y-16920945D01*
X5399499Y-17089046D01*
X5399500Y-17089059D01*
X5399500Y-17638000D01*
X5379815Y-17705039D01*
X5327011Y-17750794D01*
X5275500Y-17762000D01*
X4284298Y-17762000D01*
X4247432Y-17764901D01*
X4247426Y-17764902D01*
X4089606Y-17810754D01*
X4089603Y-17810755D01*
X3948137Y-17894417D01*
X3948129Y-17894423D01*
X3831922Y-18010630D01*
X3828921Y-18014500D01*
X3826099Y-18016537D01*
X3824654Y-18019703D01*
X3797981Y-18036844D01*
X3772278Y-18055407D01*
X3767938Y-18056151D01*
X3765876Y-18057477D01*
X3730941Y-18062500D01*
X3624000Y-18062500D01*
X3556961Y-18042815D01*
X3511206Y-17990011D01*
X3500000Y-17938500D01*
X3500000Y-11686500D01*
X3519685Y-11619461D01*
X3572489Y-11573706D01*
X3624000Y-11562500D01*
X11500000Y-11562500D01*
X11500001Y-13000000D01*
G37*
%TD.AperFunction*%
%TD*%
%TA.AperFunction,Conductor*%
%TO.N,Net-(U2-EN)*%
G36*
X4191555Y-18401081D02*
G01*
X4232188Y-18405669D01*
X4247431Y-18410098D01*
X4284306Y-18413000D01*
X5275500Y-18413000D01*
X5342539Y-18432685D01*
X5388294Y-18485489D01*
X5399500Y-18537000D01*
X5399500Y-19737377D01*
X5379815Y-19804416D01*
X5334776Y-19846292D01*
X5323349Y-19852510D01*
X5233949Y-19914485D01*
X5139728Y-20023214D01*
X5139726Y-20023218D01*
X5101954Y-20081988D01*
X5101949Y-20081996D01*
X5042176Y-20212871D01*
X5042174Y-20212878D01*
X5021696Y-20355279D01*
X5021695Y-20355288D01*
X5021694Y-20425158D01*
X5021694Y-20425168D01*
X5042162Y-20567561D01*
X5042163Y-20567565D01*
X5042164Y-20567566D01*
X5101928Y-20698446D01*
X5101930Y-20698449D01*
X5101933Y-20698455D01*
X5139494Y-20756906D01*
X5139700Y-20757228D01*
X5139710Y-20757241D01*
X5233921Y-20865970D01*
X5233926Y-20865975D01*
X5233927Y-20865976D01*
X5354965Y-20943766D01*
X5418520Y-20972792D01*
X5418531Y-20972795D01*
X5419337Y-20973096D01*
X5419571Y-20973271D01*
X5422548Y-20974631D01*
X5422252Y-20975278D01*
X5455274Y-21000000D01*
X3500000Y-21000000D01*
X3500000Y-18692000D01*
X3519685Y-18624961D01*
X3572489Y-18579206D01*
X3624000Y-18568000D01*
X3730941Y-18568000D01*
X3802883Y-18562855D01*
X3837818Y-18557832D01*
X3854817Y-18554131D01*
X3857689Y-18553639D01*
X3860793Y-18552830D01*
X3908430Y-18542460D01*
X3908963Y-18542216D01*
X3929261Y-18534994D01*
X3940798Y-18531990D01*
X4005325Y-18498176D01*
X4039291Y-18482653D01*
X4041353Y-18481327D01*
X4040376Y-18479808D01*
X4068241Y-18465207D01*
X4080097Y-18456643D01*
X4085633Y-18452870D01*
X4092931Y-18448180D01*
X4097871Y-18445007D01*
X4097979Y-18444937D01*
X4098044Y-18444895D01*
X4102298Y-18441206D01*
X4110938Y-18434366D01*
X4110943Y-18434361D01*
X4121957Y-18426411D01*
X4121958Y-18426412D01*
X4124780Y-18424375D01*
X4124935Y-18424263D01*
X4124936Y-18424261D01*
X4125019Y-18424202D01*
X4157726Y-18412645D01*
X4190420Y-18400953D01*
X4190723Y-18400987D01*
X4190897Y-18400926D01*
X4191555Y-18401081D01*
G37*
%TD.AperFunction*%
%TD*%
%TA.AperFunction,Conductor*%
%TO.N,+5V*%
G36*
X15005539Y-24519685D02*
G01*
X15051294Y-24572489D01*
X15062500Y-24624000D01*
X15062500Y-28376000D01*
X15042815Y-28443039D01*
X14990011Y-28488794D01*
X14938500Y-28500000D01*
X12186500Y-28500000D01*
X12119461Y-28480315D01*
X12073706Y-28427511D01*
X12062500Y-28376000D01*
X12062500Y-26000000D01*
X9146296Y-26000000D01*
X9079257Y-25980315D01*
X9033502Y-25927511D01*
X9028642Y-25915159D01*
X9011116Y-25862502D01*
X9011113Y-25862496D01*
X8933328Y-25741462D01*
X8933325Y-25741457D01*
X8933320Y-25741451D01*
X8887576Y-25688659D01*
X8887572Y-25688656D01*
X8887570Y-25688653D01*
X8778836Y-25594433D01*
X8778833Y-25594431D01*
X8778831Y-25594430D01*
X8647965Y-25534664D01*
X8647960Y-25534662D01*
X8647959Y-25534662D01*
X8580920Y-25514977D01*
X8580922Y-25514977D01*
X8580917Y-25514976D01*
X8518847Y-25506052D01*
X8438500Y-25494500D01*
X6186500Y-25494500D01*
X6186491Y-25494500D01*
X6186490Y-25494501D01*
X6079049Y-25506052D01*
X6079037Y-25506054D01*
X6027527Y-25517260D01*
X5925002Y-25551383D01*
X5924996Y-25551386D01*
X5803962Y-25629171D01*
X5803951Y-25629179D01*
X5751159Y-25674923D01*
X5656933Y-25783664D01*
X5656930Y-25783668D01*
X5597164Y-25914534D01*
X5577476Y-25981582D01*
X5563825Y-26076528D01*
X5557239Y-26122342D01*
X5557000Y-26124001D01*
X5557000Y-29165812D01*
X5558339Y-29202607D01*
X5559652Y-29220593D01*
X5563663Y-29257168D01*
X5604590Y-29395106D01*
X5604592Y-29395109D01*
X5633795Y-29458579D01*
X5633796Y-29458580D01*
X5697018Y-29556345D01*
X5711926Y-29579397D01*
X5711926Y-29579398D01*
X5820922Y-29673305D01*
X5820936Y-29673315D01*
X5879806Y-29710914D01*
X5879811Y-29710916D01*
X5879814Y-29710918D01*
X5879818Y-29710920D01*
X5971362Y-29752412D01*
X5983284Y-29758617D01*
X6001624Y-29769464D01*
X6049306Y-29820535D01*
X6062500Y-29876194D01*
X6062500Y-30075500D01*
X6042815Y-30142539D01*
X5990011Y-30188294D01*
X5938500Y-30199500D01*
X4846798Y-30199500D01*
X4809932Y-30202401D01*
X4809926Y-30202402D01*
X4652106Y-30248254D01*
X4652103Y-30248255D01*
X4510637Y-30331917D01*
X4510629Y-30331923D01*
X4394422Y-30448130D01*
X4391421Y-30452000D01*
X4334778Y-30492907D01*
X4293441Y-30500000D01*
X3186500Y-30500000D01*
X3119461Y-30480315D01*
X3073706Y-30427511D01*
X3062500Y-30376000D01*
X3062500Y-27120940D01*
X3082185Y-27053901D01*
X3098815Y-27033262D01*
X3121789Y-27010289D01*
X3209394Y-26879179D01*
X3269737Y-26733497D01*
X3300500Y-26578842D01*
X3300500Y-26421158D01*
X3300500Y-26421155D01*
X3300499Y-26421153D01*
X3269737Y-26266503D01*
X3259970Y-26242922D01*
X3209397Y-26120827D01*
X3209390Y-26120814D01*
X3121789Y-25989711D01*
X3121786Y-25989707D01*
X3111819Y-25979740D01*
X3078334Y-25918417D01*
X3075500Y-25892059D01*
X3075500Y-25606897D01*
X3066826Y-25534664D01*
X3064877Y-25518436D01*
X3064876Y-25518435D01*
X3064438Y-25514781D01*
X3064438Y-25485210D01*
X3064875Y-25481568D01*
X3064877Y-25481564D01*
X3075500Y-25393102D01*
X3075500Y-25106898D01*
X3064877Y-25018436D01*
X3064876Y-25018435D01*
X3063929Y-25010543D01*
X3064597Y-25010462D01*
X3063296Y-25000000D01*
X4000000Y-25000000D01*
X4000000Y-24628663D01*
X4010289Y-24621789D01*
X4010292Y-24621786D01*
X4095760Y-24536319D01*
X4157083Y-24502834D01*
X4183441Y-24500000D01*
X14938500Y-24500000D01*
X15005539Y-24519685D01*
G37*
%TD.AperFunction*%
%TD*%
%TA.AperFunction,Conductor*%
%TO.N,+5V*%
G36*
X4000000Y-25000000D02*
G01*
X3063295Y-25000000D01*
X3062500Y-24993602D01*
X3062500Y-24974501D01*
X3082185Y-24907462D01*
X3134989Y-24861707D01*
X3186500Y-24850501D01*
X3329054Y-24850501D01*
X3329057Y-24850501D01*
X3481785Y-24809577D01*
X3481786Y-24809575D01*
X3489635Y-24807473D01*
X3489820Y-24808165D01*
X3528364Y-24800500D01*
X3578844Y-24800500D01*
X3578845Y-24800499D01*
X3733497Y-24769737D01*
X3879179Y-24709394D01*
X4000000Y-24628663D01*
X4000000Y-25000000D01*
G37*
%TD.AperFunction*%
%TD*%
%TA.AperFunction,Conductor*%
%TO.N,Net-(J1-Pin_1)*%
G36*
X109943039Y-5519685D02*
G01*
X109988794Y-5572489D01*
X110000000Y-5624000D01*
X110000000Y-8876000D01*
X109980315Y-8943039D01*
X109927511Y-8988794D01*
X109876000Y-9000000D01*
X93443433Y-9000000D01*
X93376394Y-8980315D01*
X93367946Y-8974375D01*
X93183803Y-8833075D01*
X92956700Y-8701958D01*
X92956690Y-8701953D01*
X92714428Y-8601605D01*
X92714421Y-8601603D01*
X92714419Y-8601602D01*
X92461116Y-8533730D01*
X92403339Y-8526123D01*
X92201127Y-8499500D01*
X92201120Y-8499500D01*
X91938880Y-8499500D01*
X91938872Y-8499500D01*
X91707772Y-8529926D01*
X91678884Y-8533730D01*
X91628841Y-8547139D01*
X91425581Y-8601602D01*
X91425571Y-8601605D01*
X91183309Y-8701953D01*
X91183299Y-8701958D01*
X90956196Y-8833075D01*
X90772054Y-8974375D01*
X90706885Y-8999570D01*
X90696567Y-9000000D01*
X75526315Y-9000000D01*
X75475954Y-8989313D01*
X75474786Y-8988794D01*
X71000000Y-7000000D01*
X70999998Y-7000000D01*
X66186082Y-7000000D01*
X66119043Y-6980315D01*
X66117191Y-6979102D01*
X65973920Y-6883371D01*
X65973907Y-6883364D01*
X65791839Y-6807950D01*
X65791829Y-6807947D01*
X65598543Y-6769500D01*
X65598541Y-6769500D01*
X65401459Y-6769500D01*
X65401457Y-6769500D01*
X65208170Y-6807947D01*
X65208160Y-6807950D01*
X65026092Y-6883364D01*
X65026079Y-6883371D01*
X64882809Y-6979102D01*
X64816131Y-6999980D01*
X64813918Y-7000000D01*
X64124000Y-7000000D01*
X64056961Y-6980315D01*
X64011206Y-6927511D01*
X64000000Y-6876000D01*
X64000000Y-5624000D01*
X64019685Y-5556961D01*
X64072489Y-5511206D01*
X64124000Y-5500000D01*
X109876000Y-5500000D01*
X109943039Y-5519685D01*
G37*
%TD.AperFunction*%
%TD*%
%TA.AperFunction,Conductor*%
%TO.N,Net-(J1-Pin_2)*%
G36*
X66122462Y-7496352D02*
G01*
X66186082Y-7505500D01*
X66876000Y-7505500D01*
X66943039Y-7525185D01*
X66988794Y-7577989D01*
X67000000Y-7629500D01*
X67000000Y-17000000D01*
X109306500Y-17000000D01*
X109373539Y-17019685D01*
X109419294Y-17072489D01*
X109430500Y-17124000D01*
X109430500Y-19376000D01*
X109410815Y-19443039D01*
X109358011Y-19488794D01*
X109306500Y-19500000D01*
X93443433Y-19500000D01*
X93376394Y-19480315D01*
X93367946Y-19474375D01*
X93183803Y-19333075D01*
X92956700Y-19201958D01*
X92956690Y-19201953D01*
X92714428Y-19101605D01*
X92714421Y-19101603D01*
X92714419Y-19101602D01*
X92461116Y-19033730D01*
X92403339Y-19026123D01*
X92201127Y-18999500D01*
X92201120Y-18999500D01*
X91938880Y-18999500D01*
X91938872Y-18999500D01*
X91707772Y-19029926D01*
X91678884Y-19033730D01*
X91425581Y-19101602D01*
X91425571Y-19101605D01*
X91183309Y-19201953D01*
X91183299Y-19201958D01*
X90956196Y-19333075D01*
X90772054Y-19474375D01*
X90706885Y-19499570D01*
X90696567Y-19500000D01*
X71943433Y-19500000D01*
X71876394Y-19480315D01*
X71867946Y-19474375D01*
X71683803Y-19333075D01*
X71456700Y-19201958D01*
X71456690Y-19201953D01*
X71214428Y-19101605D01*
X71214421Y-19101603D01*
X71214419Y-19101602D01*
X70961116Y-19033730D01*
X70903339Y-19026123D01*
X70701127Y-18999500D01*
X70701120Y-18999500D01*
X70438880Y-18999500D01*
X70438872Y-18999500D01*
X70207772Y-19029926D01*
X70178884Y-19033730D01*
X69925581Y-19101602D01*
X69925571Y-19101605D01*
X69683309Y-19201953D01*
X69683299Y-19201958D01*
X69456196Y-19333075D01*
X69272054Y-19474375D01*
X69206885Y-19499570D01*
X69196567Y-19500000D01*
X64124000Y-19500000D01*
X64056961Y-19480315D01*
X64011206Y-19427511D01*
X64000000Y-19376000D01*
X64000000Y-7629500D01*
X64019685Y-7562461D01*
X64072489Y-7516706D01*
X64124000Y-7505500D01*
X64813837Y-7505500D01*
X64813918Y-7505500D01*
X64818486Y-7505479D01*
X64820699Y-7505459D01*
X64825152Y-7505399D01*
X64877489Y-7496917D01*
X64910574Y-7496032D01*
X64952127Y-7500500D01*
X66047872Y-7500499D01*
X66047873Y-7500498D01*
X66047888Y-7500498D01*
X66091565Y-7495802D01*
X66122462Y-7496352D01*
G37*
%TD.AperFunction*%
%TD*%
%TA.AperFunction,Conductor*%
%TO.N,GND*%
G36*
X30142515Y-28144090D02*
G01*
X30142517Y-28144091D01*
X30202127Y-28150500D01*
X30875500Y-28150499D01*
X30942539Y-28170183D01*
X30988294Y-28222987D01*
X30999500Y-28274499D01*
X30999500Y-28947870D01*
X30999501Y-28947876D01*
X31005908Y-29007483D01*
X31056203Y-29142329D01*
X31074766Y-29167126D01*
X31099184Y-29232590D01*
X31099500Y-29241438D01*
X31099500Y-29876000D01*
X31079815Y-29943039D01*
X31027011Y-29988794D01*
X30975500Y-30000000D01*
X30124000Y-30000000D01*
X30056961Y-29980315D01*
X30011206Y-29927511D01*
X30000000Y-29876000D01*
X30000000Y-28266814D01*
X30019685Y-28199775D01*
X30072489Y-28154020D01*
X30137256Y-28143525D01*
X30142515Y-28144090D01*
G37*
%TD.AperFunction*%
%TD*%
%TA.AperFunction,Conductor*%
%TO.N,GND*%
G36*
X46443039Y-28019685D02*
G01*
X46488794Y-28072489D01*
X46500000Y-28124000D01*
X46500000Y-29374500D01*
X46480315Y-29441539D01*
X46427511Y-29487294D01*
X46376000Y-29498500D01*
X44208230Y-29498500D01*
X44141191Y-29478815D01*
X44095436Y-29426011D01*
X44085492Y-29356853D01*
X44114517Y-29293297D01*
X44133918Y-29275234D01*
X44135148Y-29274312D01*
X44157546Y-29257546D01*
X44243796Y-29142331D01*
X44294091Y-29007483D01*
X44300500Y-28947873D01*
X44300499Y-28274498D01*
X44320183Y-28207460D01*
X44372987Y-28161705D01*
X44424499Y-28150499D01*
X45097871Y-28150499D01*
X45097872Y-28150499D01*
X45157483Y-28144091D01*
X45292331Y-28093796D01*
X45292470Y-28093691D01*
X45317128Y-28075234D01*
X45382592Y-28050817D01*
X45391438Y-28050501D01*
X45529054Y-28050501D01*
X45529057Y-28050501D01*
X45681785Y-28009577D01*
X45681792Y-28009572D01*
X45682116Y-28009440D01*
X45682811Y-28009301D01*
X45689636Y-28007473D01*
X45689755Y-28007920D01*
X45729571Y-28000000D01*
X46376000Y-28000000D01*
X46443039Y-28019685D01*
G37*
%TD.AperFunction*%
%TD*%
%TA.AperFunction,Conductor*%
%TO.N,GND*%
G36*
X35443039Y-8120185D02*
G01*
X35488794Y-8172989D01*
X35500000Y-8224500D01*
X35500000Y-14500000D01*
X30005500Y-14500000D01*
X30005500Y-8224500D01*
X30025185Y-8157461D01*
X30077989Y-8111706D01*
X30129500Y-8100500D01*
X35376000Y-8100500D01*
X35443039Y-8120185D01*
G37*
%TD.AperFunction*%
%TD*%
%TA.AperFunction,Conductor*%
%TO.N,GND*%
G36*
X45116177Y-8120185D02*
G01*
X45136819Y-8136819D01*
X46713498Y-9713498D01*
X46731355Y-9736082D01*
X46782285Y-9818652D01*
X46782288Y-9818656D01*
X46906344Y-9942712D01*
X47055666Y-10034814D01*
X47222203Y-10089999D01*
X47324991Y-10100500D01*
X48675008Y-10100499D01*
X48777797Y-10089999D01*
X48944334Y-10034814D01*
X49093656Y-9942712D01*
X49217712Y-9818656D01*
X49268648Y-9736074D01*
X49286491Y-9713508D01*
X50863181Y-8136819D01*
X50924504Y-8103334D01*
X50950862Y-8100500D01*
X52199903Y-8100500D01*
X52266942Y-8120185D01*
X52287584Y-8136819D01*
X52863181Y-8712416D01*
X52896666Y-8773739D01*
X52899500Y-8800097D01*
X52899500Y-10782566D01*
X52879815Y-10849605D01*
X52827011Y-10895360D01*
X52762899Y-10905924D01*
X52700012Y-10899500D01*
X51299998Y-10899500D01*
X51299981Y-10899501D01*
X51197203Y-10910000D01*
X51197200Y-10910001D01*
X51030668Y-10965185D01*
X51030659Y-10965189D01*
X51004153Y-10981539D01*
X50939057Y-11000000D01*
X49035943Y-11000000D01*
X48970847Y-10981539D01*
X48944340Y-10965189D01*
X48944335Y-10965187D01*
X48944334Y-10965186D01*
X48777797Y-10910001D01*
X48777795Y-10910000D01*
X48675010Y-10899500D01*
X47324998Y-10899500D01*
X47324981Y-10899501D01*
X47222203Y-10910000D01*
X47222200Y-10910001D01*
X47055668Y-10965185D01*
X47055659Y-10965189D01*
X47029153Y-10981539D01*
X46964057Y-11000000D01*
X45060943Y-11000000D01*
X44995847Y-10981539D01*
X44969340Y-10965189D01*
X44969335Y-10965187D01*
X44969334Y-10965186D01*
X44802797Y-10910001D01*
X44802795Y-10910000D01*
X44700016Y-10899500D01*
X44700009Y-10899500D01*
X43886794Y-10899500D01*
X43819755Y-10879815D01*
X43818011Y-10878674D01*
X43774408Y-10849605D01*
X43370420Y-10580280D01*
X43351525Y-10564789D01*
X42925089Y-10138354D01*
X42925088Y-10138352D01*
X42806218Y-10019482D01*
X42806216Y-10019480D01*
X42755779Y-9990360D01*
X42707563Y-9939793D01*
X42694489Y-9896220D01*
X42694091Y-9892517D01*
X42643796Y-9757669D01*
X42643795Y-9757668D01*
X42643793Y-9757664D01*
X42557547Y-9642455D01*
X42557546Y-9642454D01*
X42549685Y-9636569D01*
X42507816Y-9580633D01*
X42500000Y-9537305D01*
X42500000Y-8224500D01*
X42519685Y-8157461D01*
X42572489Y-8111706D01*
X42624000Y-8100500D01*
X45049138Y-8100500D01*
X45116177Y-8120185D01*
G37*
%TD.AperFunction*%
%TD*%
%TA.AperFunction,Conductor*%
%TO.N,GND*%
G36*
X23080485Y-15105636D02*
G01*
X23082803Y-15105872D01*
X23109238Y-15111528D01*
X23140489Y-15121884D01*
X23166575Y-15134047D01*
X23190664Y-15148905D01*
X23213244Y-15166760D01*
X23217607Y-15171123D01*
X23217623Y-15171137D01*
X23217630Y-15171144D01*
X23257848Y-15207271D01*
X23257860Y-15207281D01*
X23257868Y-15207288D01*
X23278510Y-15223922D01*
X23322394Y-15255567D01*
X23453271Y-15315338D01*
X23520310Y-15335023D01*
X23520314Y-15335024D01*
X23662730Y-15355500D01*
X23662733Y-15355500D01*
X23876000Y-15355500D01*
X23943039Y-15375185D01*
X23988794Y-15427989D01*
X24000000Y-15479500D01*
X24000000Y-21876000D01*
X23980315Y-21943039D01*
X23927511Y-21988794D01*
X23876000Y-22000000D01*
X21124000Y-22000000D01*
X21056961Y-21980315D01*
X21011206Y-21927511D01*
X21000000Y-21876000D01*
X21000000Y-15622629D01*
X21019685Y-15555590D01*
X21072489Y-15509835D01*
X21115749Y-15498904D01*
X21552951Y-15469758D01*
X21647674Y-15454313D01*
X21693014Y-15442411D01*
X21783127Y-15409332D01*
X21902707Y-15329319D01*
X21954656Y-15282595D01*
X21954662Y-15282590D01*
X21995952Y-15233116D01*
X21996710Y-15232243D01*
X21996985Y-15232066D01*
X22002676Y-15225839D01*
X22061761Y-15166754D01*
X22084335Y-15148904D01*
X22108416Y-15134050D01*
X22134505Y-15121886D01*
X22149181Y-15117022D01*
X22165761Y-15111528D01*
X22192196Y-15105873D01*
X22194515Y-15105636D01*
X22207063Y-15105000D01*
X23067944Y-15105000D01*
X23080485Y-15105636D01*
G37*
%TD.AperFunction*%
%TD*%
%TA.AperFunction,Conductor*%
%TO.N,+12V*%
G36*
X6062500Y-35500000D02*
G01*
X6977394Y-35500000D01*
X7044433Y-35519685D01*
X7082932Y-35558903D01*
X7119788Y-35618656D01*
X7243844Y-35742712D01*
X7393166Y-35834814D01*
X7559703Y-35889999D01*
X7662491Y-35900500D01*
X8587508Y-35900499D01*
X8587516Y-35900498D01*
X8587519Y-35900498D01*
X8643802Y-35894748D01*
X8690297Y-35889999D01*
X8856834Y-35834814D01*
X9006156Y-35742712D01*
X9130212Y-35618656D01*
X9167067Y-35558903D01*
X9219015Y-35512179D01*
X9272606Y-35500000D01*
X14000000Y-35500000D01*
X14000000Y-36949500D01*
X1624000Y-36949500D01*
X1556961Y-36929815D01*
X1511206Y-36877011D01*
X1500000Y-36825500D01*
X1500000Y-36435480D01*
X1519685Y-36368441D01*
X1555105Y-36332381D01*
X1637782Y-36277139D01*
X1777139Y-36137782D01*
X1886632Y-35973914D01*
X1962051Y-35791835D01*
X2000500Y-35598541D01*
X2000500Y-35401459D01*
X2000500Y-35401456D01*
X1962052Y-35208170D01*
X1962051Y-35208169D01*
X1962051Y-35208165D01*
X1926273Y-35121789D01*
X1886635Y-35026092D01*
X1886628Y-35026079D01*
X1777139Y-34862218D01*
X1777136Y-34862214D01*
X1637785Y-34722863D01*
X1637781Y-34722860D01*
X1555109Y-34667620D01*
X1510304Y-34614008D01*
X1500000Y-34564518D01*
X1500000Y-33624000D01*
X1519685Y-33556961D01*
X1572489Y-33511206D01*
X1624000Y-33500000D01*
X4062500Y-33500000D01*
X6062500Y-33500000D01*
X6062500Y-35500000D01*
G37*
%TD.AperFunction*%
%TD*%
%TA.AperFunction,Conductor*%
%TO.N,+3V3*%
G36*
X29443039Y-8019685D02*
G01*
X29488794Y-8072489D01*
X29500000Y-8124000D01*
X29500000Y-16500000D01*
X29625501Y-16500000D01*
X29692540Y-16519685D01*
X29738295Y-16572489D01*
X29749501Y-16624000D01*
X29749501Y-16647876D01*
X29755908Y-16707483D01*
X29806202Y-16842328D01*
X29806206Y-16842335D01*
X29892452Y-16957544D01*
X29892455Y-16957547D01*
X30007664Y-17043793D01*
X30007671Y-17043797D01*
X30142517Y-17094091D01*
X30142516Y-17094091D01*
X30149444Y-17094835D01*
X30202127Y-17100500D01*
X30876000Y-17100499D01*
X30884686Y-17103049D01*
X30893647Y-17101761D01*
X30917683Y-17112738D01*
X30943039Y-17120183D01*
X30948967Y-17127025D01*
X30957203Y-17130786D01*
X30971489Y-17153017D01*
X30988794Y-17172987D01*
X30991081Y-17183502D01*
X30994977Y-17189564D01*
X31000000Y-17224499D01*
X31000000Y-17275500D01*
X30980315Y-17342539D01*
X30927511Y-17388294D01*
X30876000Y-17399500D01*
X30202129Y-17399500D01*
X30202123Y-17399501D01*
X30142516Y-17405908D01*
X30007671Y-17456202D01*
X30007668Y-17456204D01*
X29982872Y-17474767D01*
X29917408Y-17499184D01*
X29908561Y-17499500D01*
X26813861Y-17499500D01*
X26808398Y-17497896D01*
X26802815Y-17499007D01*
X26775241Y-17488159D01*
X26746822Y-17479815D01*
X26741708Y-17474968D01*
X26737795Y-17473429D01*
X26728251Y-17462214D01*
X26713287Y-17448032D01*
X26705497Y-17437230D01*
X26703796Y-17432669D01*
X26660439Y-17374751D01*
X26659809Y-17373878D01*
X26648538Y-17341935D01*
X26636699Y-17310194D01*
X26636943Y-17309071D01*
X26636561Y-17307989D01*
X26644350Y-17275018D01*
X26651550Y-17241921D01*
X26652455Y-17240710D01*
X26652626Y-17239991D01*
X26653954Y-17238709D01*
X26672696Y-17213671D01*
X26767712Y-17118656D01*
X26859814Y-16969334D01*
X26914999Y-16802797D01*
X26925500Y-16700009D01*
X26925499Y-15299992D01*
X26914999Y-15197203D01*
X26859814Y-15030666D01*
X26767712Y-14881344D01*
X26643656Y-14757288D01*
X26494334Y-14665186D01*
X26327797Y-14610001D01*
X26327795Y-14610000D01*
X26225010Y-14599500D01*
X25299998Y-14599500D01*
X25299980Y-14599501D01*
X25197203Y-14610000D01*
X25197200Y-14610001D01*
X25030668Y-14665185D01*
X25030663Y-14665187D01*
X24881342Y-14757289D01*
X24824951Y-14813681D01*
X24763628Y-14847166D01*
X24737270Y-14850000D01*
X23662730Y-14850000D01*
X23595691Y-14830315D01*
X23575049Y-14813681D01*
X23518657Y-14757289D01*
X23518656Y-14757288D01*
X23369334Y-14665186D01*
X23202797Y-14610001D01*
X23202795Y-14610000D01*
X23100010Y-14599500D01*
X22174998Y-14599500D01*
X22174980Y-14599501D01*
X22072203Y-14610000D01*
X22072200Y-14610001D01*
X21905668Y-14665185D01*
X21905663Y-14665187D01*
X21756342Y-14757289D01*
X21632288Y-14881343D01*
X21632285Y-14881347D01*
X21616615Y-14906752D01*
X21564666Y-14953476D01*
X21519326Y-14965378D01*
X21000000Y-15000000D01*
X14500000Y-15433332D01*
X14500000Y-15433333D01*
X13500000Y-15500000D01*
X13500000Y-13000000D01*
X11500001Y-13000000D01*
X11500000Y-11562500D01*
X11509961Y-11552538D01*
X11519685Y-11519424D01*
X11572489Y-11473669D01*
X11581112Y-11470116D01*
X20979249Y-8007644D01*
X21022116Y-8000000D01*
X29376000Y-8000000D01*
X29443039Y-8019685D01*
G37*
%TD.AperFunction*%
%TD*%
%TA.AperFunction,Conductor*%
%TO.N,VBUS*%
G36*
X1500000Y-21582052D02*
G01*
X1480315Y-21649091D01*
X1427511Y-21694846D01*
X1400192Y-21703669D01*
X1266508Y-21730261D01*
X1266498Y-21730264D01*
X1120827Y-21790602D01*
X1120814Y-21790609D01*
X989711Y-21878210D01*
X989707Y-21878213D01*
X878213Y-21989707D01*
X878210Y-21989711D01*
X790609Y-22120814D01*
X790602Y-22120827D01*
X730264Y-22266498D01*
X730261Y-22266508D01*
X699361Y-22421850D01*
X666976Y-22483761D01*
X665425Y-22485339D01*
X279482Y-22871281D01*
X279480Y-22871283D01*
X270075Y-22887573D01*
X263190Y-22899500D01*
X200423Y-23008215D01*
X159499Y-23160943D01*
X159499Y-23160945D01*
X159499Y-23329046D01*
X159500Y-23329059D01*
X159500Y-23636777D01*
X139815Y-23703816D01*
X110428Y-23735579D01*
X82077Y-23757078D01*
X82074Y-23757082D01*
X-9360Y-23877656D01*
X-9360Y-23877657D01*
X-9361Y-23877658D01*
X-64877Y-24018436D01*
X-75500Y-24106898D01*
X-75500Y-24393102D01*
X-64877Y-24481564D01*
X-64875Y-24481567D01*
X-64185Y-24487318D01*
X-64185Y-24516890D01*
X-75000Y-24606940D01*
X-75000Y-24876000D01*
X-77550Y-24884685D01*
X-76262Y-24893647D01*
X-87240Y-24917687D01*
X-94685Y-24943039D01*
X-101525Y-24948966D01*
X-105287Y-24957203D01*
X-127521Y-24971492D01*
X-147489Y-24988794D01*
X-158003Y-24991081D01*
X-164065Y-24994977D01*
X-199000Y-25000000D01*
X-325500Y-25000000D01*
X-392539Y-24980315D01*
X-438294Y-24927511D01*
X-449500Y-24876000D01*
X-449500Y-11000000D01*
X1500000Y-11000000D01*
X1500000Y-21582052D01*
G37*
%TD.AperFunction*%
%TD*%
%TA.AperFunction,Conductor*%
%TO.N,VBUS*%
G36*
X56443039Y-5070185D02*
G01*
X56488794Y-5122989D01*
X56500000Y-5174500D01*
X56500000Y-6876000D01*
X56480315Y-6943039D01*
X56427511Y-6988794D01*
X56376000Y-7000000D01*
X52868201Y-7000000D01*
X52852715Y-6995850D01*
X52838971Y-6996506D01*
X52806208Y-6983390D01*
X52806204Y-6983389D01*
X52795183Y-6977026D01*
X52781904Y-6969360D01*
X52781902Y-6969358D01*
X52781901Y-6969358D01*
X52731785Y-6940423D01*
X52579057Y-6899499D01*
X52420943Y-6899499D01*
X52413347Y-6899499D01*
X52413331Y-6899500D01*
X46629061Y-6899500D01*
X46629057Y-6899499D01*
X46470943Y-6899499D01*
X46470939Y-6899500D01*
X29086670Y-6899500D01*
X29086654Y-6899499D01*
X29079058Y-6899499D01*
X28920943Y-6899499D01*
X28844579Y-6919961D01*
X28768214Y-6940423D01*
X28768213Y-6940424D01*
X28718099Y-6969358D01*
X28693799Y-6983387D01*
X28631800Y-7000000D01*
X-449500Y-7000000D01*
X-449500Y-5174500D01*
X-429815Y-5107461D01*
X-377011Y-5061706D01*
X-325500Y-5050500D01*
X56376000Y-5050500D01*
X56443039Y-5070185D01*
G37*
%TD.AperFunction*%
%TD*%
%TA.AperFunction,Conductor*%
%TO.N,VBUS*%
G36*
X1500000Y-11000000D02*
G01*
X-449500Y-11000000D01*
X-449500Y-7000000D01*
X1500000Y-7000000D01*
X1500000Y-11000000D01*
G37*
%TD.AperFunction*%
%TD*%
%TA.AperFunction,Conductor*%
%TO.N,+12V*%
G36*
X35441799Y-35516612D02*
G01*
X35516216Y-35559577D01*
X35668943Y-35600501D01*
X35668945Y-35600501D01*
X35834654Y-35600501D01*
X35834670Y-35600500D01*
X70699903Y-35600500D01*
X70729343Y-35609144D01*
X70759330Y-35615668D01*
X70764345Y-35619422D01*
X70766942Y-35620185D01*
X70787584Y-35636819D01*
X70963681Y-35812916D01*
X70997166Y-35874239D01*
X71000000Y-35900597D01*
X71000000Y-36825500D01*
X70980315Y-36892539D01*
X70927511Y-36938294D01*
X70876000Y-36949500D01*
X14000000Y-36949500D01*
X14000000Y-35500000D01*
X35379800Y-35500000D01*
X35441799Y-35516612D01*
G37*
%TD.AperFunction*%
%TD*%
%TA.AperFunction,Conductor*%
%TO.N,Net-(U2-EN)*%
G36*
X5500000Y-23376000D02*
G01*
X5480315Y-23443039D01*
X5427511Y-23488794D01*
X5376000Y-23500000D01*
X4183441Y-23500000D01*
X4116402Y-23480315D01*
X4095760Y-23463681D01*
X4010292Y-23378213D01*
X4010288Y-23378210D01*
X3879185Y-23290609D01*
X3879172Y-23290602D01*
X3733501Y-23230264D01*
X3733489Y-23230261D01*
X3578845Y-23199500D01*
X3578842Y-23199500D01*
X3421158Y-23199500D01*
X3421155Y-23199500D01*
X3266510Y-23230261D01*
X3266498Y-23230264D01*
X3120827Y-23290602D01*
X3120814Y-23290609D01*
X2989711Y-23378210D01*
X2989707Y-23378213D01*
X2904240Y-23463681D01*
X2842917Y-23497166D01*
X2816559Y-23500000D01*
X2000000Y-23500000D01*
X1991237Y-23508762D01*
X1980315Y-23545959D01*
X1927511Y-23591714D01*
X1890787Y-23602035D01*
X1865901Y-23605023D01*
X1823437Y-23610122D01*
X1682656Y-23665639D01*
X1574924Y-23747335D01*
X1549528Y-23756986D01*
X1525601Y-23769859D01*
X1517349Y-23769217D01*
X1509612Y-23772158D01*
X1483025Y-23766546D01*
X1455941Y-23764440D01*
X1445422Y-23758610D01*
X1441248Y-23757730D01*
X1425074Y-23747335D01*
X1409572Y-23735579D01*
X1368050Y-23679385D01*
X1360500Y-23636777D01*
X1360500Y-23540097D01*
X1380185Y-23473058D01*
X1396813Y-23452421D01*
X1514663Y-23334571D01*
X1575982Y-23301089D01*
X1578150Y-23300638D01*
X1636085Y-23289113D01*
X1733497Y-23269737D01*
X1879179Y-23209394D01*
X2010289Y-23121789D01*
X2121789Y-23010289D01*
X2209394Y-22879179D01*
X2269737Y-22733497D01*
X2300500Y-22578842D01*
X2300500Y-22421158D01*
X2300500Y-22421155D01*
X2276655Y-22301281D01*
X2282882Y-22231689D01*
X2310589Y-22189410D01*
X2500000Y-22000000D01*
X3500000Y-21000000D01*
X5500000Y-21000000D01*
X5500000Y-23376000D01*
G37*
%TD.AperFunction*%
%TD*%
%TA.AperFunction,Conductor*%
%TO.N,GND*%
G36*
X44007664Y-17043793D02*
G01*
X44007671Y-17043797D01*
X44142517Y-17094091D01*
X44142516Y-17094091D01*
X44149444Y-17094835D01*
X44202127Y-17100500D01*
X45097872Y-17100499D01*
X45157483Y-17094091D01*
X45292331Y-17043796D01*
X45301687Y-17036791D01*
X45367151Y-17012373D01*
X45435424Y-17027223D01*
X45484831Y-17076627D01*
X45500000Y-17136057D01*
X45500000Y-18213942D01*
X45480315Y-18280981D01*
X45427511Y-18326736D01*
X45358353Y-18336680D01*
X45301691Y-18313210D01*
X45292334Y-18306205D01*
X45292328Y-18306202D01*
X45157482Y-18255908D01*
X45157483Y-18255908D01*
X45097883Y-18249501D01*
X45097881Y-18249500D01*
X45097873Y-18249500D01*
X45097864Y-18249500D01*
X44202129Y-18249500D01*
X44202123Y-18249501D01*
X44142516Y-18255908D01*
X44007671Y-18306202D01*
X44007664Y-18306206D01*
X43892455Y-18392452D01*
X43892452Y-18392455D01*
X43811943Y-18500000D01*
X43500000Y-18500000D01*
X43500000Y-17000000D01*
X43949165Y-17000000D01*
X44007664Y-17043793D01*
G37*
%TD.AperFunction*%
%TD*%
%TA.AperFunction,Conductor*%
%TO.N,GND*%
G36*
X42829309Y-13019685D02*
G01*
X42849951Y-13036319D01*
X42881344Y-13067712D01*
X43030666Y-13159814D01*
X43197203Y-13214999D01*
X43299991Y-13225500D01*
X44700008Y-13225499D01*
X44802797Y-13214999D01*
X44969334Y-13159814D01*
X45118656Y-13067712D01*
X45150049Y-13036319D01*
X45176976Y-13021615D01*
X45202795Y-13005023D01*
X45208995Y-13004131D01*
X45211372Y-13002834D01*
X45237730Y-13000000D01*
X45376000Y-13000000D01*
X45443039Y-13019685D01*
X45488794Y-13072489D01*
X45500000Y-13124000D01*
X45500000Y-14099402D01*
X45480315Y-14166441D01*
X45463681Y-14187083D01*
X44837582Y-14813181D01*
X44776259Y-14846666D01*
X44749901Y-14849500D01*
X44202129Y-14849500D01*
X44202123Y-14849501D01*
X44142516Y-14855908D01*
X44007671Y-14906202D01*
X44007664Y-14906206D01*
X43892455Y-14992452D01*
X43892452Y-14992455D01*
X43806206Y-15107664D01*
X43806202Y-15107671D01*
X43762844Y-15223922D01*
X43755909Y-15242517D01*
X43749500Y-15302127D01*
X43749500Y-15302134D01*
X43749500Y-15302135D01*
X43749500Y-15797870D01*
X43749501Y-15797876D01*
X43755908Y-15857483D01*
X43783577Y-15931667D01*
X43788561Y-16001358D01*
X43783577Y-16018331D01*
X43755910Y-16092511D01*
X43755909Y-16092515D01*
X43755909Y-16092517D01*
X43749500Y-16152127D01*
X43749500Y-16152134D01*
X43749500Y-16152135D01*
X43749500Y-16647870D01*
X43749501Y-16647876D01*
X43755908Y-16707483D01*
X43806202Y-16842328D01*
X43806206Y-16842335D01*
X43892452Y-16957544D01*
X43892455Y-16957547D01*
X43949165Y-17000000D01*
X43500000Y-17000000D01*
X43500000Y-18500000D01*
X43811943Y-18500000D01*
X43806206Y-18507664D01*
X43806202Y-18507671D01*
X43783577Y-18568334D01*
X43755909Y-18642517D01*
X43749500Y-18702127D01*
X43749500Y-18702134D01*
X43749500Y-18702135D01*
X43749500Y-19197870D01*
X43749501Y-19197876D01*
X43755908Y-19257483D01*
X43783577Y-19331667D01*
X43788561Y-19401358D01*
X43783577Y-19418331D01*
X43755910Y-19492511D01*
X43755909Y-19492515D01*
X43755909Y-19492517D01*
X43749500Y-19552127D01*
X43749500Y-19552134D01*
X43749500Y-19552135D01*
X43749500Y-20047870D01*
X43749501Y-20047876D01*
X43755908Y-20107483D01*
X43783577Y-20181667D01*
X43788561Y-20251358D01*
X43783577Y-20268331D01*
X43755910Y-20342511D01*
X43755909Y-20342515D01*
X43755909Y-20342517D01*
X43749500Y-20402127D01*
X43749500Y-20402134D01*
X43749500Y-20402135D01*
X43749500Y-20897870D01*
X43749501Y-20897876D01*
X43755908Y-20957483D01*
X43783577Y-21031667D01*
X43788561Y-21101358D01*
X43783577Y-21118331D01*
X43755910Y-21192511D01*
X43755909Y-21192515D01*
X43755909Y-21192517D01*
X43749500Y-21252127D01*
X43749500Y-21252134D01*
X43749500Y-21252135D01*
X43749500Y-21747870D01*
X43749501Y-21747876D01*
X43755908Y-21807483D01*
X43783577Y-21881667D01*
X43788561Y-21951358D01*
X43783577Y-21968331D01*
X43755910Y-22042511D01*
X43755909Y-22042515D01*
X43755909Y-22042517D01*
X43749500Y-22102127D01*
X43749500Y-22102134D01*
X43749500Y-22102135D01*
X43749500Y-22597870D01*
X43749501Y-22597876D01*
X43755908Y-22657483D01*
X43783577Y-22731667D01*
X43788561Y-22801358D01*
X43783577Y-22818331D01*
X43755910Y-22892511D01*
X43755909Y-22892515D01*
X43755909Y-22892517D01*
X43749500Y-22952127D01*
X43749500Y-22952134D01*
X43749500Y-22952135D01*
X43749500Y-23447870D01*
X43749501Y-23447876D01*
X43755908Y-23507483D01*
X43783577Y-23581667D01*
X43788561Y-23651358D01*
X43783577Y-23668331D01*
X43755910Y-23742511D01*
X43755909Y-23742515D01*
X43755909Y-23742517D01*
X43749500Y-23802127D01*
X43749500Y-23802134D01*
X43749500Y-23802135D01*
X43749500Y-24297870D01*
X43749501Y-24297876D01*
X43755908Y-24357483D01*
X43783577Y-24431667D01*
X43788561Y-24501358D01*
X43783577Y-24518331D01*
X43755910Y-24592511D01*
X43755909Y-24592515D01*
X43755909Y-24592517D01*
X43749500Y-24652127D01*
X43749500Y-24652134D01*
X43749500Y-24652135D01*
X43749500Y-25147870D01*
X43749501Y-25147876D01*
X43755908Y-25207483D01*
X43783577Y-25281667D01*
X43788561Y-25351358D01*
X43783577Y-25368331D01*
X43755910Y-25442511D01*
X43755909Y-25442515D01*
X43755909Y-25442517D01*
X43749500Y-25502127D01*
X43749500Y-25502134D01*
X43749500Y-25502135D01*
X43749500Y-25997870D01*
X43749501Y-25997876D01*
X43755908Y-26057483D01*
X43783577Y-26131667D01*
X43788561Y-26201358D01*
X43783577Y-26218331D01*
X43755910Y-26292511D01*
X43755909Y-26292515D01*
X43755909Y-26292517D01*
X43749500Y-26352127D01*
X43749500Y-26352134D01*
X43749500Y-26352135D01*
X43749500Y-26847870D01*
X43749501Y-26847876D01*
X43755908Y-26907483D01*
X43783577Y-26981667D01*
X43788561Y-27051358D01*
X43783577Y-27068331D01*
X43755909Y-27142514D01*
X43755908Y-27142516D01*
X43751823Y-27180519D01*
X43749501Y-27202123D01*
X43749500Y-27202135D01*
X43749500Y-27475500D01*
X43729815Y-27542539D01*
X43677011Y-27588294D01*
X43625500Y-27599500D01*
X43352130Y-27599500D01*
X43352123Y-27599501D01*
X43292516Y-27605908D01*
X43218332Y-27633577D01*
X43148640Y-27638561D01*
X43131668Y-27633577D01*
X43057488Y-27605910D01*
X43057484Y-27605909D01*
X43057483Y-27605909D01*
X42997873Y-27599500D01*
X42997863Y-27599500D01*
X42502129Y-27599500D01*
X42502123Y-27599501D01*
X42442516Y-27605908D01*
X42368332Y-27633577D01*
X42298640Y-27638561D01*
X42281668Y-27633577D01*
X42207488Y-27605910D01*
X42207484Y-27605909D01*
X42207483Y-27605909D01*
X42147873Y-27599500D01*
X42147863Y-27599500D01*
X41652129Y-27599500D01*
X41652123Y-27599501D01*
X41592516Y-27605908D01*
X41518332Y-27633577D01*
X41448640Y-27638561D01*
X41431668Y-27633577D01*
X41357488Y-27605910D01*
X41357484Y-27605909D01*
X41357483Y-27605909D01*
X41297873Y-27599500D01*
X41297863Y-27599500D01*
X40802129Y-27599500D01*
X40802123Y-27599501D01*
X40742516Y-27605908D01*
X40668332Y-27633577D01*
X40598640Y-27638561D01*
X40581668Y-27633577D01*
X40507488Y-27605910D01*
X40507484Y-27605909D01*
X40507483Y-27605909D01*
X40447873Y-27599500D01*
X40447863Y-27599500D01*
X39952129Y-27599500D01*
X39952123Y-27599501D01*
X39892516Y-27605908D01*
X39818332Y-27633577D01*
X39748640Y-27638561D01*
X39731668Y-27633577D01*
X39657488Y-27605910D01*
X39657484Y-27605909D01*
X39657483Y-27605909D01*
X39597873Y-27599500D01*
X39597863Y-27599500D01*
X39102129Y-27599500D01*
X39102123Y-27599501D01*
X39042516Y-27605908D01*
X38968332Y-27633577D01*
X38898640Y-27638561D01*
X38881668Y-27633577D01*
X38807488Y-27605910D01*
X38807484Y-27605909D01*
X38807483Y-27605909D01*
X38747873Y-27599500D01*
X38747863Y-27599500D01*
X38252129Y-27599500D01*
X38252123Y-27599501D01*
X38192516Y-27605908D01*
X38118332Y-27633577D01*
X38048640Y-27638561D01*
X38031668Y-27633577D01*
X37957488Y-27605910D01*
X37957484Y-27605909D01*
X37957483Y-27605909D01*
X37897873Y-27599500D01*
X37897863Y-27599500D01*
X37402129Y-27599500D01*
X37402123Y-27599501D01*
X37342516Y-27605908D01*
X37268332Y-27633577D01*
X37198640Y-27638561D01*
X37181668Y-27633577D01*
X37107488Y-27605910D01*
X37107484Y-27605909D01*
X37107483Y-27605909D01*
X37047873Y-27599500D01*
X37047863Y-27599500D01*
X36552129Y-27599500D01*
X36552123Y-27599501D01*
X36492516Y-27605908D01*
X36418332Y-27633577D01*
X36348640Y-27638561D01*
X36331668Y-27633577D01*
X36257488Y-27605910D01*
X36257484Y-27605909D01*
X36257483Y-27605909D01*
X36197873Y-27599500D01*
X36197863Y-27599500D01*
X35702129Y-27599500D01*
X35702123Y-27599501D01*
X35642516Y-27605908D01*
X35568332Y-27633577D01*
X35498640Y-27638561D01*
X35481668Y-27633577D01*
X35407488Y-27605910D01*
X35407484Y-27605909D01*
X35407483Y-27605909D01*
X35347873Y-27599500D01*
X35347863Y-27599500D01*
X34852129Y-27599500D01*
X34852123Y-27599501D01*
X34792516Y-27605908D01*
X34718332Y-27633577D01*
X34648640Y-27638561D01*
X34631668Y-27633577D01*
X34557488Y-27605910D01*
X34557484Y-27605909D01*
X34557483Y-27605909D01*
X34497873Y-27599500D01*
X34497863Y-27599500D01*
X34002129Y-27599500D01*
X34002123Y-27599501D01*
X33942516Y-27605908D01*
X33868332Y-27633577D01*
X33798640Y-27638561D01*
X33781668Y-27633577D01*
X33707488Y-27605910D01*
X33707484Y-27605909D01*
X33707483Y-27605909D01*
X33647873Y-27599500D01*
X33647863Y-27599500D01*
X33152129Y-27599500D01*
X33152123Y-27599501D01*
X33092516Y-27605908D01*
X33018332Y-27633577D01*
X32948640Y-27638561D01*
X32931668Y-27633577D01*
X32857488Y-27605910D01*
X32857484Y-27605909D01*
X32857483Y-27605909D01*
X32797873Y-27599500D01*
X32797863Y-27599500D01*
X32302129Y-27599500D01*
X32302123Y-27599501D01*
X32242516Y-27605908D01*
X32168332Y-27633577D01*
X32098640Y-27638561D01*
X32081668Y-27633577D01*
X32007485Y-27605909D01*
X32007483Y-27605908D01*
X31947883Y-27599501D01*
X31947881Y-27599500D01*
X31947873Y-27599500D01*
X31947865Y-27599500D01*
X31674499Y-27599500D01*
X31607460Y-27579815D01*
X31561705Y-27527011D01*
X31550499Y-27475500D01*
X31550499Y-27202129D01*
X31550498Y-27202123D01*
X31550497Y-27202116D01*
X31544091Y-27142517D01*
X31516421Y-27068332D01*
X31511438Y-26998642D01*
X31516422Y-26981667D01*
X31544091Y-26907483D01*
X31550500Y-26847873D01*
X31550499Y-26352128D01*
X31544091Y-26292517D01*
X31516421Y-26218332D01*
X31511438Y-26148642D01*
X31516422Y-26131667D01*
X31544091Y-26057483D01*
X31550500Y-25997873D01*
X31550499Y-25502128D01*
X31544091Y-25442517D01*
X31516421Y-25368332D01*
X31511438Y-25298642D01*
X31516422Y-25281667D01*
X31544091Y-25207483D01*
X31550500Y-25147873D01*
X31550499Y-24652128D01*
X31544091Y-24592517D01*
X31516421Y-24518332D01*
X31511438Y-24448642D01*
X31516422Y-24431667D01*
X31544091Y-24357483D01*
X31550500Y-24297873D01*
X31550499Y-23802128D01*
X31544091Y-23742517D01*
X31516421Y-23668332D01*
X31511438Y-23598642D01*
X31516422Y-23581667D01*
X31544091Y-23507483D01*
X31550500Y-23447873D01*
X31550499Y-22952128D01*
X31544091Y-22892517D01*
X31516421Y-22818332D01*
X31511438Y-22748642D01*
X31516422Y-22731667D01*
X31544091Y-22657483D01*
X31550500Y-22597873D01*
X31550499Y-22102128D01*
X31544091Y-22042517D01*
X31516421Y-21968332D01*
X31511438Y-21898642D01*
X31516422Y-21881667D01*
X31544091Y-21807483D01*
X31550500Y-21747873D01*
X31550499Y-21252128D01*
X31544091Y-21192517D01*
X31516421Y-21118332D01*
X31511438Y-21048642D01*
X31516422Y-21031667D01*
X31544091Y-20957483D01*
X31550500Y-20897873D01*
X31550499Y-20402128D01*
X31544091Y-20342517D01*
X31516421Y-20268332D01*
X31511438Y-20198642D01*
X31516422Y-20181667D01*
X31544091Y-20107483D01*
X31550500Y-20047873D01*
X31550499Y-19552128D01*
X31544091Y-19492517D01*
X31516421Y-19418332D01*
X31511438Y-19348642D01*
X31516422Y-19331667D01*
X31544091Y-19257483D01*
X31550500Y-19197873D01*
X31550499Y-18702128D01*
X31544091Y-18642517D01*
X31516421Y-18568332D01*
X31511438Y-18498642D01*
X31516420Y-18481672D01*
X31544091Y-18407483D01*
X31550500Y-18347873D01*
X31550499Y-17852128D01*
X31544091Y-17792517D01*
X31516421Y-17718332D01*
X31511438Y-17648642D01*
X31516420Y-17631672D01*
X31544091Y-17557483D01*
X31550500Y-17497873D01*
X31550499Y-17002128D01*
X31544091Y-16942517D01*
X31542897Y-16939317D01*
X31493797Y-16807671D01*
X31493793Y-16807664D01*
X31407547Y-16692455D01*
X31407544Y-16692452D01*
X31292335Y-16606206D01*
X31292328Y-16606202D01*
X31157482Y-16555908D01*
X31157483Y-16555908D01*
X31097883Y-16549501D01*
X31097881Y-16549500D01*
X31097873Y-16549500D01*
X31097864Y-16549500D01*
X31094548Y-16549322D01*
X31094636Y-16547671D01*
X31033823Y-16529815D01*
X31013181Y-16513181D01*
X31000000Y-16500000D01*
X30333297Y-16500000D01*
X30266258Y-16480315D01*
X30220503Y-16427511D01*
X30215643Y-16415159D01*
X30198117Y-16362502D01*
X30198114Y-16362496D01*
X30120329Y-16241462D01*
X30120327Y-16241458D01*
X30112700Y-16232656D01*
X30074571Y-16188653D01*
X30074568Y-16188650D01*
X30074566Y-16188648D01*
X30048295Y-16165883D01*
X30010522Y-16107104D01*
X30005500Y-16072172D01*
X30005500Y-14500000D01*
X35500000Y-14500000D01*
X35500000Y-13000000D01*
X42762270Y-13000000D01*
X42829309Y-13019685D01*
G37*
%TD.AperFunction*%
%TD*%
M02*
